STARTFONT 2.1
COMMENT
COMMENT Converted from OpenType font "RobotoMono-Bold.ttf" by "otf2bdf 3.0".
COMMENT
FONT -FreeType-Roboto Mono-Bold-R-Normal--48-480-72-72-P-239-ISO10646-1
SIZE 48 72 72
FONTBOUNDINGBOX 62 63 -24 -12
STARTPROPERTIES 19
FOUNDRY "FreeType"
FAMILY_NAME "Roboto Mono"
WEIGHT_NAME "Bold"
SLANT "R"
SETWIDTH_NAME "Normal"
ADD_STYLE_NAME ""
PIXEL_SIZE 48
POINT_SIZE 480
RESOLUTION_X 72
RESOLUTION_Y 72
SPACING "P"
AVERAGE_WIDTH 239
CHARSET_REGISTRY "ISO10646"
CHARSET_ENCODING "1"
FONT_ASCENT 50
FONT_DESCENT 13
COPYRIGHT "Copyright 2015 The Roboto Mono Project Authors (https://github.com/googlefonts/robotomono)"
_OTF_FONTFILE "RobotoMono-Bold.ttf"
_OTF_PSNAME "RobotoMono-Bold"
ENDPROPERTIES
CHARS 876
STARTCHAR 000D
ENCODING 13
SWIDTH 604 0
DWIDTH 29 0
BBX 0 0 0 0
BITMAP
ENDCHAR
STARTCHAR 0020
ENCODING 32
SWIDTH 604 0
DWIDTH 29 0
BBX 0 0 0 0
BITMAP
ENDCHAR
STARTCHAR 0021
ENCODING 33
SWIDTH 625 0
DWIDTH 30 0
BBX 8 34 11 0
BITMAP
FE
FE
FE
FE
FE
FE
FE
FE
FE
FE
FE
FE
FE
FE
FE
FE
FE
FE
FE
FE
FE
FE
00
00
00
00
00
3C
7E
FF
FF
FF
7E
3C
ENDCHAR
STARTCHAR 0022
ENCODING 34
SWIDTH 604 0
DWIDTH 29 0
BBX 14 12 7 24
BITMAP
F03C
F03C
F03C
F03C
F03C
F03C
F03C
F03C
F03C
F03C
F03C
F03C
ENDCHAR
STARTCHAR 0023
ENCODING 35
SWIDTH 604 0
DWIDTH 29 0
BBX 26 34 1 0
BITMAP
003C3C00
007C3C00
00783C00
00783C00
00783C00
00787800
00787800
00F07800
00F07800
3FFFFFC0
3FFFFFC0
3FFFFFC0
3FFFFFC0
01E0F000
01E0F000
01E0F000
01E1F000
01E1E000
03E1E000
03C1E000
FFFFFF00
FFFFFF00
FFFFFF00
FFFFFF00
0783C000
0783C000
0783C000
0783C000
07878000
07878000
0F078000
0F078000
0F078000
0F078000
ENDCHAR
STARTCHAR 0024
ENCODING 36
SWIDTH 604 0
DWIDTH 29 0
BBX 24 45 3 -5
BITMAP
001E00
001E00
001E00
001E00
001E00
00FF80
03FFE0
0FFFF0
1FFFF8
1FFFFC
3FC1FC
3F80FE
3F00FE
7F007E
7F007E
3F007F
3F8000
3F8000
3FE000
1FF800
1FFE00
0FFF80
03FFE0
01FFF8
003FF8
000FFC
0003FE
0000FE
0000FE
FE007E
FE007F
FE007E
FE007E
7F00FE
7F81FE
3FFFFC
3FFFFC
1FFFF8
07FFF0
03FFC0
003C00
003C00
003C00
003C00
003C00
ENDCHAR
STARTCHAR 0025
ENCODING 37
SWIDTH 604 0
DWIDTH 29 0
BBX 27 34 1 0
BITMAP
0F800000
3FE00000
7FF00000
FFF00000
F8F80000
F0783C00
F0783C00
F0787800
F078F800
F8F8F000
7FF1E000
7FF1E000
3FE3C000
0F87C000
00078000
000F8000
000F0000
001E0000
001E0000
003C3E00
007CFF80
0079FFC0
00F1FFC0
00F3E3E0
01E3C1E0
03E3C1E0
03C3C1E0
0383C1E0
0083C1E0
0003E3E0
0001FFC0
0001FFC0
0000FF80
00003E00
ENDCHAR
STARTCHAR 0026
ENCODING 38
SWIDTH 625 0
DWIDTH 30 0
BBX 27 35 2 -1
BITMAP
007E0000
03FF8000
07FFC000
0FFFE000
0FFFE000
1FE3F000
1FC1F000
1FC1F000
1FC1F000
1FC1F000
1FC3E000
0FC7E000
0FFFC000
07FF8000
07FF0000
03FC0000
07FC0000
0FFE07E0
1FFF07E0
3FFF07E0
7F3F87E0
7F1FCFE0
FE1FCFC0
FE0FFFC0
FE07FFC0
FE03FF80
FE03FF80
FE01FF00
7F03FE00
7FFFFF00
3FFFFF80
3FFFFFC0
1FFFDFE0
07FF1FE0
00600000
ENDCHAR
STARTCHAR 0027
ENCODING 39
SWIDTH 604 0
DWIDTH 29 0
BBX 5 13 11 23
BITMAP
F8
F8
F8
F8
F8
F8
F8
F8
F8
F8
F8
F8
F8
ENDCHAR
STARTCHAR 0028
ENCODING 40
SWIDTH 604 0
DWIDTH 29 0
BBX 13 48 8 -11
BITMAP
0010
0078
00F8
01F8
03F0
07E0
07C0
0FC0
0F80
1F80
1F00
3F00
3F00
3E00
7E00
7E00
7E00
7C00
FC00
FC00
FC00
FC00
FC00
FC00
FC00
FC00
FC00
FC00
FC00
FC00
FC00
7C00
7E00
7E00
7E00
3E00
3F00
3F00
1F00
1F80
0F80
0FC0
07E0
03F0
01F0
00F8
0078
0038
ENDCHAR
STARTCHAR 0029
ENCODING 41
SWIDTH 625 0
DWIDTH 30 0
BBX 14 49 8 -11
BITMAP
4000
F000
F800
FC00
7E00
3F00
1F00
1F80
0FC0
0FC0
07E0
07E0
07E0
03F0
03F0
03F0
03F8
01F8
01F8
01F8
01F8
01F8
01F8
01FC
01FC
01FC
01F8
01F8
01F8
01F8
01F8
03F8
03F8
03F0
03F0
03F0
07E0
07E0
07C0
0FC0
0F80
1F80
3F00
7E00
7E00
FC00
F000
E000
4000
ENDCHAR
STARTCHAR 002A
ENCODING 42
SWIDTH 604 0
DWIDTH 29 0
BBX 23 24 4 10
BITMAP
007C00
007C00
007C00
007C00
007C00
003C00
403C00
703C0C
FC387E
FF39FE
FFFFFE
7FFFFE
07FFE0
007E00
00FE00
01FF00
03EF80
07C7C0
0FC7C0
0F83E0
1F83F0
1F01F0
0E01E0
020080
ENDCHAR
STARTCHAR 002B
ENCODING 43
SWIDTH 583 0
DWIDTH 28 0
BBX 23 25 2 3
BITMAP
00FE00
00FE00
00FE00
00FE00
00FE00
00FE00
00FE00
00FE00
00FE00
FFFFFE
FFFFFE
FFFFFE
FFFFFE
FFFFFE
FFFFFE
00FE00
00FE00
00FE00
00FE00
00FE00
00FE00
00FE00
00FE00
00FE00
00FE00
ENDCHAR
STARTCHAR 002C
ENCODING 44
SWIDTH 625 0
DWIDTH 30 0
BBX 9 15 9 -9
BITMAP
3F80
3F80
3F80
3F80
3F80
3F80
3F00
3F00
3F00
3F00
7E00
7E00
FC00
F800
3000
ENDCHAR
STARTCHAR 002D
ENCODING 45
SWIDTH 625 0
DWIDTH 30 0
BBX 20 5 7 13
BITMAP
FFFFF0
FFFFF0
FFFFF0
FFFFF0
FFFFF0
ENDCHAR
STARTCHAR 002E
ENCODING 46
SWIDTH 604 0
DWIDTH 29 0
BBX 9 9 10 0
BITMAP
3E00
7F00
FF80
FF80
FF80
FF80
FF80
7F00
3E00
ENDCHAR
STARTCHAR 002F
ENCODING 47
SWIDTH 604 0
DWIDTH 29 0
BBX 19 38 5 -4
BITMAP
0007E0
000FC0
000FC0
000FC0
001F80
001F80
001F80
003F00
003F00
003F00
007E00
007E00
007E00
00FC00
00FC00
00FC00
01F800
01F800
01F800
03F000
03F000
03F000
07E000
07E000
07E000
0FC000
0FC000
0FC000
1F8000
1F8000
1F8000
3F0000
3F0000
3F0000
7E0000
7E0000
FE0000
FC0000
ENDCHAR
STARTCHAR 0030
ENCODING 48
SWIDTH 604 0
DWIDTH 29 0
BBX 22 35 3 -1
BITMAP
01FE00
07FF80
0FFFC0
1FFFE0
3FFFF0
3FCFF0
7F03F8
7E01F8
FE01F8
FE01FC
FE01FC
FE01FC
FE01FC
FE07FC
FE0FFC
FE1FFC
FE7FFC
FEFDFC
FFF1FC
FFE1FC
FFC1FC
FF01FC
FE01FC
FE01FC
FE01FC
FE01FC
7E01F8
7F03F8
7F87F8
3FFFF0
1FFFF0
1FFFE0
0FFFC0
03FF00
003000
ENDCHAR
STARTCHAR 0031
ENCODING 49
SWIDTH 604 0
DWIDTH 29 0
BBX 16 34 4 0
BITMAP
0007
003F
01FF
07FF
3FFF
FFFF
FFFF
FFFF
FE7F
F07F
807F
007F
007F
007F
007F
007F
007F
007F
007F
007F
007F
007F
007F
007F
007F
007F
007F
007F
007F
007F
007F
007F
007F
007F
ENDCHAR
STARTCHAR 0032
ENCODING 50
SWIDTH 604 0
DWIDTH 29 0
BBX 24 34 2 0
BITMAP
00FF00
03FFE0
0FFFF0
1FFFF8
3FFFFC
7FC7FC
7F01FE
7E00FE
FE00FE
FE00FE
FE00FE
0000FE
0000FE
0001FC
0001FC
0003F8
0007F8
000FF0
001FE0
003FC0
007F80
00FF00
00FE00
01FC00
03F800
07F000
0FE000
1FC000
3F8000
7FFFFF
7FFFFF
7FFFFF
7FFFFF
7FFFFF
ENDCHAR
STARTCHAR 0033
ENCODING 51
SWIDTH 604 0
DWIDTH 29 0
BBX 24 34 2 0
BITMAP
00FF00
07FFE0
0FFFF0
1FFFF8
3FFFFC
7FC7FC
7F01FE
7E00FE
FE00FE
0000FE
0000FE
0000FE
0001FC
0007FC
00FFF8
00FFE0
00FFE0
00FFF0
00FFFC
0003FC
0000FE
0000FE
00007E
00007E
FE007F
FE007E
FE00FE
FF00FE
7FC7FE
7FFFFC
3FFFF8
1FFFF0
07FFC0
00FF00
ENDCHAR
STARTCHAR 0034
ENCODING 52
SWIDTH 604 0
DWIDTH 29 0
BBX 25 34 1 0
BITMAP
0003F800
0007F800
0007F800
000FF800
001FF800
001FF800
003FF800
003FF800
007FF800
00FFF800
00FBF800
01FBF800
03F3F800
03E3F800
07E3F800
0FC3F800
0F83F800
1F83F800
3F03F800
3E03F800
7E03F800
FFFFFF80
FFFFFF80
FFFFFF80
FFFFFF80
FFFFFF80
0003F800
0003F800
0003F800
0003F800
0003F800
0003F800
0003F800
0003F800
ENDCHAR
STARTCHAR 0035
ENCODING 53
SWIDTH 604 0
DWIDTH 29 0
BBX 23 34 3 0
BITMAP
3FFFF8
3FFFF8
3FFFF8
3FFFF8
3FFFF8
3F0000
3F0000
7E0000
7E0000
7E0000
7E0000
7EFF00
7FFFC0
7FFFE0
7FFFF0
7FFFF8
FF07F8
0C03FC
0001FC
0000FC
0000FC
0000FC
0000FE
0000FC
FC00FC
FC00FC
FE01FC
FF03FC
7F87F8
7FFFF8
3FFFF0
1FFFE0
07FF80
01FE00
ENDCHAR
STARTCHAR 0036
ENCODING 54
SWIDTH 604 0
DWIDTH 29 0
BBX 24 34 2 0
BITMAP
000FC0
003FC0
00FFC0
03FFC0
07FFC0
0FFE00
1FF000
1FC000
3F8000
3F0000
7F0000
7E3FC0
7EFFE0
FFFFF0
FFFFF8
FFFFFC
FF83FC
FF01FE
FE00FE
FE007E
FE007E
FE007E
FE007F
FE007E
FE007E
7E00FE
7F00FE
7F81FC
3FC7FC
1FFFF8
1FFFF8
07FFE0
03FFC0
00FF00
ENDCHAR
STARTCHAR 0037
ENCODING 55
SWIDTH 604 0
DWIDTH 29 0
BBX 24 34 2 0
BITMAP
FFFFFF
FFFFFF
FFFFFF
FFFFFF
FFFFFF
00007E
00007E
0000FC
0000FC
0001F8
0001F8
0003F8
0003F0
0007F0
0007E0
000FE0
000FC0
001FC0
001F80
001F80
003F80
003F00
007F00
007E00
00FE00
00FC00
01FC00
01FC00
03F800
03F800
07F000
07F000
07E000
0FE000
ENDCHAR
STARTCHAR 0038
ENCODING 56
SWIDTH 604 0
DWIDTH 29 0
BBX 23 34 3 0
BITMAP
01FE00
07FFC0
0FFFE0
1FFFF0
3FFFF8
3FC7F8
7F01FC
7F01FC
7F01FC
7F01FC
7F01FC
7F01F8
3F83F8
1FFFF0
0FFFE0
07FFC0
0FFFE0
1FFFF0
3FC7F8
7F01FC
7E00FC
FE00FE
FE00FE
FE00FE
FE00FE
FE00FE
FE00FE
7F01FC
7FC7FC
3FFFF8
3FFFF8
1FFFF0
07FFC0
01FF00
ENDCHAR
STARTCHAR 0039
ENCODING 57
SWIDTH 604 0
DWIDTH 29 0
BBX 23 34 2 0
BITMAP
00FE00
07FF80
0FFFE0
1FFFF0
3FFFF0
3FC7F8
7F03FC
7F01FC
FE00FC
FE00FE
FE00FE
FE00FE
FE00FE
FE00FE
FE00FE
FF00FE
7F01FE
7FC7FE
3FFFFE
3FFFFE
1FFFFE
0FFEFC
01F8FC
0000FC
0001F8
0003F8
0007F8
000FF0
00FFE0
07FFC0
07FF80
07FF00
07FC00
07E000
ENDCHAR
STARTCHAR 003A
ENCODING 58
SWIDTH 604 0
DWIDTH 29 0
BBX 9 28 10 0
BITMAP
3E00
7F00
FF80
FF80
FF80
FF80
FF80
7F00
3E00
0000
0000
0000
0000
0000
0000
0000
0000
0000
0000
3E00
7F00
FF80
FF80
FF80
FF80
FF80
7F00
3E00
ENDCHAR
STARTCHAR 003B
ENCODING 59
SWIDTH 604 0
DWIDTH 29 0
BBX 10 38 10 -10
BITMAP
1F00
3F80
7FC0
7FC0
7FC0
7FC0
7FC0
3F80
1F00
0000
0000
0000
0000
0000
0000
0000
0000
0000
0000
0000
0000
0000
3F80
3F80
3F80
3F80
3F80
3F80
3F00
3F00
3F00
3F00
7E00
7E00
7C00
FC00
7800
1000
ENDCHAR
STARTCHAR 003C
ENCODING 60
SWIDTH 604 0
DWIDTH 29 0
BBX 21 22 4 3
BITMAP
000008
000078
0001F8
000FF8
003FF8
00FFF8
07FFF8
1FFFC0
FFFE00
FFF000
FF8000
FE0000
FFC000
FFF800
7FFF00
0FFFE0
03FFF8
007FF8
001FF8
0007F8
0000F8
000038
ENDCHAR
STARTCHAR 003D
ENCODING 61
SWIDTH 604 0
DWIDTH 29 0
BBX 22 15 4 7
BITMAP
FFFFFC
FFFFFC
FFFFFC
FFFFFC
FFFFFC
000000
000000
000000
000000
000000
FFFFFC
FFFFFC
FFFFFC
FFFFFC
FFFFFC
ENDCHAR
STARTCHAR 003E
ENCODING 62
SWIDTH 604 0
DWIDTH 29 0
BBX 21 22 4 3
BITMAP
800000
F00000
FC0000
FF8000
FFE000
FFF800
7FFF00
0FFFC0
01FFF8
003FF8
0007F8
0003F8
001FF8
00FFF8
07FFF0
3FFF80
FFFE00
FFF000
FFC000
FF0000
F80000
E00000
ENDCHAR
STARTCHAR 003F
ENCODING 63
SWIDTH 604 0
DWIDTH 29 0
BBX 22 34 4 0
BITMAP
01FE00
0FFFC0
1FFFE0
3FFFF0
7FFFF8
7F87F8
FF01FC
FE01FC
FE01FC
0001FC
0001FC
0001FC
0003F8
0007F8
000FF0
001FE0
003FC0
007F80
00FF00
00FE00
00FC00
00FC00
01FC00
01FC00
000000
000000
000000
007800
00FC00
01FE00
01FE00
01FE00
00FC00
007800
ENDCHAR
STARTCHAR 0040
ENCODING 64
SWIDTH 604 0
DWIDTH 29 0
BBX 27 34 1 0
BITMAP
001FE000
007FF800
01FFFC00
03FFFF00
07E03F00
0F800F80
1F000780
1E0FC3C0
3E1FE3C0
3C3FF3C0
787FF1E0
78FCF1E0
78F0F1E0
F0F0F1E0
F1E0F1E0
F1E0E1E0
F1E0E1E0
F1E0E1E0
F1E0E1E0
F1E1E1C0
F1E1E3C0
F1E1E3C0
F1F3E780
F8FFFF00
78FEFF00
783C7C00
7C000000
3E000000
3F000000
1FC06000
0FFFE000
07FFE000
03FFE000
007F0000
ENDCHAR
STARTCHAR 0041
ENCODING 65
SWIDTH 604 0
DWIDTH 29 0
BBX 28 34 1 0
BITMAP
001F8000
003F8000
003FC000
003FC000
007FC000
007FE000
007FE000
00FFE000
00FFF000
00FFF000
01FBF000
01FBF800
01F9F800
03F9F800
03F1FC00
03F0FC00
07F0FC00
07E0FC00
07E0FE00
0FE07E00
0FE07E00
0FC07F00
1FFFFF00
1FFFFF00
1FFFFF80
3FFFFF80
3FFFFF80
3F001FC0
7F001FC0
7F000FC0
7F000FE0
FE000FE0
FE000FE0
FE0007F0
ENDCHAR
STARTCHAR 0042
ENCODING 66
SWIDTH 604 0
DWIDTH 29 0
BBX 25 34 3 0
BITMAP
FFFF0000
FFFFE000
FFFFF800
FFFFFC00
FFFFFE00
FE03FE00
FE00FF00
FE007F00
FE007F00
FE007F00
FE007F00
FE007F00
FE00FE00
FE03FE00
FFFFFC00
FFFFF000
FFFFF000
FFFFFC00
FFFFFE00
FE01FE00
FE007F00
FE003F00
FE003F00
FE003F00
FE003F80
FE003F00
FE007F00
FE00FF00
FE03FF00
FFFFFE00
FFFFFC00
FFFFF800
FFFFF000
FFFF8000
ENDCHAR
STARTCHAR 0043
ENCODING 67
SWIDTH 604 0
DWIDTH 29 0
BBX 25 35 2 -1
BITMAP
007F8000
01FFE000
07FFF800
0FFFFC00
1FFFFE00
3FE1FE00
3F807F00
7F003F00
7F003F80
7E003F80
FE003F80
FE000000
FE000000
FE000000
FE000000
FE000000
FE000000
FE000000
FE000000
FE000000
FE000000
FE000000
FE000000
FE003F80
7E003F80
7E003F80
7F003F80
3F007F00
3FC0FF00
1FFFFE00
1FFFFC00
0FFFFC00
03FFF000
00FFC000
00080000
ENDCHAR
STARTCHAR 0044
ENCODING 68
SWIDTH 604 0
DWIDTH 29 0
BBX 24 34 3 0
BITMAP
FFF800
FFFF00
FFFF80
FFFFE0
FFFFF0
FE1FF0
FE07F8
FE03FC
FE01FC
FE00FE
FE00FE
FE00FE
FE007E
FE007E
FE007E
FE007F
FE007F
FE007F
FE007F
FE007E
FE007E
FE007E
FE00FE
FE00FE
FE00FE
FE01FC
FE03FC
FE07F8
FE1FF0
FFFFF0
FFFFE0
FFFF80
FFFF00
FFF800
ENDCHAR
STARTCHAR 0045
ENCODING 69
SWIDTH 583 0
DWIDTH 28 0
BBX 23 34 3 0
BITMAP
FFFFFE
FFFFFE
FFFFFE
FFFFFE
FFFFFE
FE0000
FE0000
FE0000
FE0000
FE0000
FE0000
FE0000
FE0000
FE0000
FFFFF8
FFFFF8
FFFFF8
FFFFF8
FFFFF8
FE0000
FE0000
FE0000
FE0000
FE0000
FE0000
FE0000
FE0000
FE0000
FE0000
FFFFFE
FFFFFE
FFFFFE
FFFFFE
FFFFFE
ENDCHAR
STARTCHAR 0046
ENCODING 70
SWIDTH 583 0
DWIDTH 28 0
BBX 23 34 3 0
BITMAP
FFFFFE
FFFFFE
FFFFFE
FFFFFE
FFFFFE
FE0000
FE0000
FE0000
FE0000
FE0000
FE0000
FE0000
FE0000
FE0000
FE0000
FFFFF8
FFFFF8
FFFFF8
FFFFF8
FFFFF8
FE0000
FE0000
FE0000
FE0000
FE0000
FE0000
FE0000
FE0000
FE0000
FE0000
FE0000
FE0000
FE0000
FE0000
ENDCHAR
STARTCHAR 0047
ENCODING 71
SWIDTH 604 0
DWIDTH 29 0
BBX 25 34 2 0
BITMAP
007F8000
03FFE000
07FFF800
0FFFFC00
1FFFFE00
3FE3FE00
3F807F00
7F007F00
7F003F00
7E003F00
FE000000
FE000000
FE000000
FE000000
FE000000
FE000000
FE0FFF80
FE0FFF80
FE0FFF80
FE0FFF80
FE0FFF80
FE003F80
FE003F80
FE003F80
7E003F80
7F003F80
7F003F80
3F803F80
3FE1FF80
1FFFFF80
0FFFFF00
07FFFC00
03FFF000
007F8000
ENDCHAR
STARTCHAR 0048
ENCODING 72
SWIDTH 604 0
DWIDTH 29 0
BBX 23 34 3 0
BITMAP
FE00FE
FE00FE
FE00FE
FE00FE
FE00FE
FE00FE
FE00FE
FE00FE
FE00FE
FE00FE
FE00FE
FE00FE
FE00FE
FE00FE
FFFFFE
FFFFFE
FFFFFE
FFFFFE
FFFFFE
FE00FE
FE00FE
FE00FE
FE00FE
FE00FE
FE00FE
FE00FE
FE00FE
FE00FE
FE00FE
FE00FE
FE00FE
FE00FE
FE00FE
FE00FE
ENDCHAR
STARTCHAR 0049
ENCODING 73
SWIDTH 625 0
DWIDTH 30 0
BBX 20 34 5 0
BITMAP
FFFFF0
FFFFF0
FFFFF0
FFFFF0
FFFFF0
03F800
03F800
03F800
03F800
03F800
03F800
03F800
03F800
03F800
03F800
03F800
03F800
03F800
03F800
03F800
03F800
03F800
03F800
03F800
03F800
03F800
03F800
03F800
03F800
FFFFF0
FFFFF0
FFFFF0
FFFFF0
FFFFF0
ENDCHAR
STARTCHAR 004A
ENCODING 74
SWIDTH 604 0
DWIDTH 29 0
BBX 23 34 3 0
BITMAP
0000FE
0000FE
0000FE
0000FE
0000FE
0000FE
0000FE
0000FE
0000FE
0000FE
0000FE
0000FE
0000FE
0000FE
0000FE
0000FE
0000FE
0000FE
0000FE
0000FE
0000FE
0000FE
0000FE
0000FE
FE00FE
FE00FE
FE00FE
7F01FC
7FC7FC
7FFFF8
3FFFF0
1FFFE0
07FFC0
01FE00
ENDCHAR
STARTCHAR 004B
ENCODING 75
SWIDTH 604 0
DWIDTH 29 0
BBX 26 34 3 0
BITMAP
FE003FC0
FE007F80
FE00FF00
FE01FE00
FE01FE00
FE03FC00
FE07F800
FE0FF000
FE0FE000
FE1FE000
FE3FC000
FE3F8000
FE7F0000
FEFF0000
FFFE0000
FFFE0000
FFFE0000
FFFF0000
FFFF8000
FFFF8000
FFFFC000
FF9FE000
FF0FE000
FE0FF000
FE07F000
FE07F800
FE03FC00
FE01FC00
FE01FE00
FE00FF00
FE00FF00
FE007F80
FE003F80
FE003FC0
ENDCHAR
STARTCHAR 004C
ENCODING 76
SWIDTH 604 0
DWIDTH 29 0
BBX 23 34 4 0
BITMAP
FE0000
FE0000
FE0000
FE0000
FE0000
FE0000
FE0000
FE0000
FE0000
FE0000
FE0000
FE0000
FE0000
FE0000
FE0000
FE0000
FE0000
FE0000
FE0000
FE0000
FE0000
FE0000
FE0000
FE0000
FE0000
FE0000
FE0000
FE0000
FE0000
FFFFFE
FFFFFE
FFFFFE
FFFFFE
FFFFFE
ENDCHAR
STARTCHAR 004D
ENCODING 77
SWIDTH 604 0
DWIDTH 29 0
BBX 24 34 3 0
BITMAP
FF81FF
FF81FF
FF83FF
FF83FF
FFC3FF
FFC7FF
FFC7FF
FFC7FF
FFE7FF
FFEFFF
FFEF7F
FFEF7F
FFEF7F
FEFF7F
FEFE7F
FEFE7F
FEFE7F
FE7C7F
FE7C7F
FE7C7F
FE7C7F
FE387F
FE387F
FE007F
FE007F
FE007F
FE007F
FE007F
FE007F
FE007F
FE007F
FE007F
FE007F
FE007F
ENDCHAR
STARTCHAR 004E
ENCODING 78
SWIDTH 604 0
DWIDTH 29 0
BBX 23 34 3 0
BITMAP
FE00FE
FE00FE
FF00FE
FF00FE
FF00FE
FF80FE
FF80FE
FFC0FE
FFC0FE
FFE0FE
FFE0FE
FFF0FE
FFF0FE
FFF0FE
FEF8FE
FEF8FE
FEFCFE
FE7CFE
FE7EFE
FE3EFE
FE3EFE
FE1FFE
FE1FFE
FE1FFE
FE0FFE
FE0FFE
FE07FE
FE07FE
FE03FE
FE03FE
FE01FE
FE01FE
FE01FE
FE00FE
ENDCHAR
STARTCHAR 004F
ENCODING 79
SWIDTH 604 0
DWIDTH 29 0
BBX 25 34 2 0
BITMAP
007F0000
03FFC000
07FFF000
0FFFF800
1FFFFC00
3FE3FE00
3F80FE00
7F007F00
7E007F00
7E003F00
FE003F80
FE003F80
FE003F80
FE003F80
FE003F80
FE003F80
FE003F80
FE003F80
FE003F80
FE003F80
FE003F80
FE003F80
FE003F80
FE003F80
7E003F00
7E007F00
7F007F00
3F80FE00
3FE3FE00
1FFFFC00
0FFFF800
07FFF000
03FFC000
007F0000
ENDCHAR
STARTCHAR 0050
ENCODING 80
SWIDTH 583 0
DWIDTH 28 0
BBX 24 34 3 0
BITMAP
FFFF00
FFFFC0
FFFFF0
FFFFF8
FFFFFC
FE07FE
FE00FE
FE007F
FE007F
FE007F
FE007F
FE007F
FE007F
FE007F
FE00FE
FE03FE
FFFFFC
FFFFFC
FFFFF0
FFFFE0
FFFF80
FE0000
FE0000
FE0000
FE0000
FE0000
FE0000
FE0000
FE0000
FE0000
FE0000
FE0000
FE0000
FE0000
ENDCHAR
STARTCHAR 0051
ENCODING 81
SWIDTH 604 0
DWIDTH 29 0
BBX 26 39 2 -6
BITMAP
007F0000
03FFC000
07FFF000
0FFFF800
1FFFFC00
3FE3FE00
3F80FE00
7F007F00
7E007F00
7E003F00
FE003F80
FE003F80
FE003F80
FE003F80
FE003F80
FE003F80
FE003F80
FE003F80
FE003F80
FE003F80
FE003F80
FE003F80
FE003F80
FE003F80
FE003F00
7E007F00
7F007F00
3F80FE00
3FE3FE00
1FFFFC00
0FFFF800
07FFFC00
03FFFE00
007FFF00
00007F80
00003FC0
00001FC0
00000F80
00000600
ENDCHAR
STARTCHAR 0052
ENCODING 82
SWIDTH 604 0
DWIDTH 29 0
BBX 25 34 3 0
BITMAP
FFFF0000
FFFFE000
FFFFF800
FFFFFC00
FFFFFC00
FE03FE00
FE00FE00
FE007F00
FE007F00
FE007F00
FE007F00
FE007F00
FE007F00
FE007F00
FE00FE00
FE07FE00
FFFFFC00
FFFFF800
FFFFF000
FFFFC000
FFFFE000
FE0FE000
FE0FF000
FE07F000
FE07F800
FE03F800
FE03FC00
FE01FC00
FE01FE00
FE00FE00
FE00FF00
FE007F00
FE007F80
FE003F80
ENDCHAR
STARTCHAR 0053
ENCODING 83
SWIDTH 604 0
DWIDTH 29 0
BBX 25 34 2 0
BITMAP
007F8000
03FFF000
0FFFF800
1FFFFC00
3FFFFE00
3FE1FF00
7F807F00
7F003F80
7F003F80
7F003F80
7F000000
7F000000
3FC00000
3FF00000
1FFE0000
0FFFC000
07FFF000
01FFF800
007FFC00
000FFE00
0001FF00
00007F00
00003F80
FE003F80
FE003F80
FE003F80
FE003F80
7F807F80
7FE1FF00
3FFFFF00
1FFFFE00
0FFFFC00
03FFF000
007FC000
ENDCHAR
STARTCHAR 0054
ENCODING 84
SWIDTH 625 0
DWIDTH 30 0
BBX 28 34 1 0
BITMAP
FFFFFFF0
FFFFFFF0
FFFFFFF0
FFFFFFF0
FFFFFFF0
003F8000
003F8000
003F8000
003F8000
003F8000
003F8000
003F8000
003F8000
003F8000
003F8000
003F8000
003F8000
003F8000
003F8000
003F8000
003F8000
003F8000
003F8000
003F8000
003F8000
003F8000
003F8000
003F8000
003F8000
003F8000
003F8000
003F8000
003F8000
003F8000
ENDCHAR
STARTCHAR 0055
ENCODING 85
SWIDTH 604 0
DWIDTH 29 0
BBX 23 34 3 0
BITMAP
FE00FE
FE00FE
FE00FE
FE00FE
FE00FE
FE00FE
FE00FE
FE00FE
FE00FE
FE00FE
FE00FE
FE00FE
FE00FE
FE00FE
FE00FE
FE00FE
FE00FE
FE00FE
FE00FE
FE00FE
FE00FE
FE00FE
FE00FE
FE00FE
FE00FE
FE00FE
7E01FC
7F01FC
7FC7FC
3FFFF8
1FFFF0
0FFFE0
07FFC0
00FE00
ENDCHAR
STARTCHAR 0056
ENCODING 86
SWIDTH 604 0
DWIDTH 29 0
BBX 27 34 1 0
BITMAP
FE000FE0
FE001FE0
FF001FC0
7F001FC0
7F001FC0
7F003F80
3F803F80
3F803F80
3F803F80
1F807F00
1FC07F00
1FC07F00
0FC07E00
0FE0FE00
0FE0FE00
0FE0FC00
07E1FC00
07F1FC00
07F1F800
03F1F800
03F3F800
03FBF800
01FBF000
01FBF000
01FFF000
01FFE000
00FFE000
00FFE000
00FFC000
007FC000
007FC000
007FC000
003F8000
003F8000
ENDCHAR
STARTCHAR 0057
ENCODING 87
SWIDTH 604 0
DWIDTH 29 0
BBX 27 34 1 0
BITMAP
FC1F07E0
FC1F07E0
FC1F07E0
FC3F07E0
FC3F07E0
FC3F87E0
FC3F8FC0
7E3F8FC0
7E3F8FC0
7E3F8FC0
7E7F8FC0
7E7F8FC0
7E7FCFC0
7E7FCF80
3E7FDF80
3F7BDF80
3F7BDF80
3FFBDF80
3FFBDF80
3FFBFF80
3FF3FF00
1FF1FF00
1FF1FF00
1FF1FF00
1FF1FF00
1FF1FF00
1FE1FF00
1FE0FE00
0FE0FE00
0FE0FE00
0FE0FE00
0FE0FE00
0FC0FE00
0FC07E00
ENDCHAR
STARTCHAR 0058
ENCODING 88
SWIDTH 604 0
DWIDTH 29 0
BBX 27 34 1 0
BITMAP
FF001FE0
7F001FE0
7F803FC0
3F803F80
1FC07F80
1FC07F00
0FE0FF00
0FE0FE00
07F0FE00
07F1FC00
03F9F800
03FBF800
01FFF000
00FFF000
00FFE000
007FE000
007FC000
007FC000
007FE000
00FFE000
01FFF000
01FFF800
03FBF800
03F9FC00
07F1FC00
07F0FE00
0FE0FE00
1FE07F00
1FC07F80
3FC03F80
3F803FC0
7F801FC0
7F001FE0
FF000FE0
ENDCHAR
STARTCHAR 0059
ENCODING 89
SWIDTH 583 0
DWIDTH 28 0
BBX 27 34 1 0
BITMAP
FE000FE0
FE001FE0
7F001FC0
7F001FC0
3F803F80
3F803F80
1F807F00
1FC07F00
0FC0FE00
0FE0FE00
0FE0FC00
07F1FC00
07F1F800
03F3F800
03FBF000
01FFF000
01FFE000
00FFE000
00FFC000
007FC000
007F8000
003F8000
003F8000
003F8000
003F8000
003F8000
003F8000
003F8000
003F8000
003F8000
003F8000
003F8000
003F8000
003F8000
ENDCHAR
STARTCHAR 005A
ENCODING 90
SWIDTH 604 0
DWIDTH 29 0
BBX 25 34 2 0
BITMAP
FFFFFF00
FFFFFF00
FFFFFF00
FFFFFF00
FFFFFF00
0000FE00
0001FC00
0001FC00
0003F800
0007F000
0007F000
000FE000
001FC000
001FC000
003F8000
007F0000
007F0000
00FE0000
00FC0000
01FC0000
03F80000
03F80000
07F00000
0FE00000
0FE00000
1FC00000
3F800000
3F800000
7F000000
FFFFFF80
FFFFFF80
FFFFFF80
FFFFFF80
FFFFFF80
ENDCHAR
STARTCHAR 005B
ENCODING 91
SWIDTH 583 0
DWIDTH 28 0
BBX 11 48 9 -8
BITMAP
FFE0
FFE0
FFE0
FFE0
FFE0
FE00
FE00
FE00
FE00
FE00
FE00
FE00
FE00
FE00
FE00
FE00
FE00
FE00
FE00
FE00
FE00
FE00
FE00
FE00
FE00
FE00
FE00
FE00
FE00
FE00
FE00
FE00
FE00
FE00
FE00
FE00
FE00
FE00
FE00
FE00
FE00
FE00
FE00
FFE0
FFE0
FFE0
FFE0
FFE0
ENDCHAR
STARTCHAR 005C
ENCODING 92
SWIDTH 604 0
DWIDTH 29 0
BBX 19 38 6 -4
BITMAP
FC0000
FC0000
FE0000
7E0000
7E0000
7F0000
3F0000
3F0000
1F8000
1F8000
1F8000
0FC000
0FC000
0FC000
07E000
07E000
07E000
03F000
03F000
03F000
01F800
01F800
01F800
00FC00
00FC00
00FC00
007E00
007E00
007E00
003F00
003F00
003F00
001F80
001F80
001F80
000FC0
000FC0
000FE0
ENDCHAR
STARTCHAR 005D
ENCODING 93
SWIDTH 583 0
DWIDTH 28 0
BBX 11 48 9 -8
BITMAP
FFE0
FFE0
FFE0
FFE0
FFE0
0FE0
0FE0
0FE0
0FE0
0FE0
0FE0
0FE0
0FE0
0FE0
0FE0
0FE0
0FE0
0FE0
0FE0
0FE0
0FE0
0FE0
0FE0
0FE0
0FE0
0FE0
0FE0
0FE0
0FE0
0FE0
0FE0
0FE0
0FE0
0FE0
0FE0
0FE0
0FE0
0FE0
0FE0
0FE0
0FE0
0FE0
0FE0
FFE0
FFE0
FFE0
FFE0
FFE0
ENDCHAR
STARTCHAR 005E
ENCODING 94
SWIDTH 604 0
DWIDTH 29 0
BBX 19 18 5 16
BITMAP
01F000
01F800
03F800
03FC00
03FC00
07FC00
07FE00
0FBE00
0F9F00
0F1F00
1F1F80
1F0F80
3E0F80
3E07C0
7E07C0
7C07E0
7C03E0
F803E0
ENDCHAR
STARTCHAR 005F
ENCODING 95
SWIDTH 583 0
DWIDTH 28 0
BBX 21 5 3 -5
BITMAP
FFFFF8
FFFFF8
FFFFF8
FFFFF8
FFFFF8
ENDCHAR
STARTCHAR 0060
ENCODING 96
SWIDTH 604 0
DWIDTH 29 0
BBX 11 7 10 28
BITMAP
FE00
7F00
3F00
1F80
0F80
0FC0
07E0
ENDCHAR
STARTCHAR 0061
ENCODING 97
SWIDTH 604 0
DWIDTH 29 0
BBX 23 26 3 0
BITMAP
01FE00
07FFC0
1FFFE0
3FFFF0
7FFFF8
7F87F8
7E01FC
FE01FC
0001FC
0001FC
01FFFC
0FFFFC
1FFFFC
3FFFFC
7F81FC
FE01FC
FE01FC
FE01FC
FE01FC
FE03FC
FF8FFC
7FFFFC
7FFFFC
3FFEFC
1FFCFE
07F0FE
ENDCHAR
STARTCHAR 0062
ENCODING 98
SWIDTH 583 0
DWIDTH 28 0
BBX 23 36 3 0
BITMAP
FE0000
FE0000
FE0000
FE0000
FE0000
FE0000
FE0000
FE0000
FE0000
FE0000
FE3F00
FEFFC0
FFFFE0
FFFFF0
FFFFF8
FF87F8
FF03FC
FE01FC
FE01FC
FE00FC
FE00FC
FE00FC
FE00FE
FE00FE
FE00FC
FE00FC
FE00FC
FE01FC
FE01FC
FF03FC
FF87F8
FFFFF8
FFFFF0
FDFFE0
FCFFC0
FC3F00
ENDCHAR
STARTCHAR 0063
ENCODING 99
SWIDTH 604 0
DWIDTH 29 0
BBX 23 27 3 -1
BITMAP
00FF00
03FFC0
0FFFF0
1FFFF8
3FFFF8
3FC7FC
7F01FC
7F00FE
7E00FE
FE00FE
FE0000
FE0000
FE0000
FE0000
FE0000
FE0000
FE0000
FE00FE
7E00FE
7F00FE
3F81FC
3FFFFC
1FFFF8
0FFFF0
07FFE0
01FF80
001800
ENDCHAR
STARTCHAR 0064
ENCODING 100
SWIDTH 604 0
DWIDTH 29 0
BBX 23 36 3 0
BITMAP
0000FE
0000FE
0000FE
0000FE
0000FE
0000FE
0000FE
0000FE
0000FE
0000FE
01F8FE
07FEFE
1FFFFE
1FFFFE
3FFFFE
7FC7FE
7F01FE
7F00FE
FE00FE
FE00FE
FE00FE
FE00FE
FE00FE
FE00FE
FE00FE
FE00FE
FE00FE
FE00FE
7F00FE
7F01FE
7FC7FE
3FFFFE
1FFFFE
0FFFFE
07FEFE
01F87E
ENDCHAR
STARTCHAR 0065
ENCODING 101
SWIDTH 604 0
DWIDTH 29 0
BBX 25 26 2 0
BITMAP
007F8000
01FFE000
07FFF800
0FFFFC00
1FFFFC00
3FE3FE00
3F807E00
7F007F00
7F003F00
7E003F00
7FFFFF00
7FFFFF00
FFFFFF80
FFFFFF80
7FFFFF80
7E000000
7F000000
7F000000
7F800800
3FC01C00
3FF0FE00
1FFFFF00
0FFFFE00
07FFFC00
01FFF000
003FC000
ENDCHAR
STARTCHAR 0066
ENCODING 102
SWIDTH 604 0
DWIDTH 29 0
BBX 24 37 3 0
BITMAP
0007FF
001FFF
007FFF
00FFFE
00FFFE
01FF00
01FC00
01F800
01F800
03F800
03F800
FFFFFC
FFFFFC
FFFFFC
FFFFFC
FFFFFC
03F800
03F800
03F800
03F800
03F800
03F800
03F800
03F800
03F800
03F800
03F800
03F800
03F800
03F800
03F800
03F800
03F800
03F800
03F800
03F800
03F800
ENDCHAR
STARTCHAR 0067
ENCODING 103
SWIDTH 604 0
DWIDTH 29 0
BBX 23 36 3 -10
BITMAP
01FC7E
07FF7E
0FFFFE
1FFFFE
3FFFFE
3FC3FE
7F81FE
7F00FE
FE00FE
FE00FE
FE00FE
FE00FE
FE00FE
FE00FE
FE00FE
FE00FE
FE00FE
FE00FE
7F00FE
7F81FE
3FC3FE
3FFFFE
1FFFFE
0FFFFE
07FEFE
01F8FE
0000FE
0000FE
0800FE
1C01FC
3F87FC
3FFFF8
3FFFF0
1FFFE0
07FFC0
01FE00
ENDCHAR
STARTCHAR 0068
ENCODING 104
SWIDTH 583 0
DWIDTH 28 0
BBX 23 36 3 0
BITMAP
FE0000
FE0000
FE0000
FE0000
FE0000
FE0000
FE0000
FE0000
FE0000
FE0000
FE1F80
FE7FE0
FEFFF0
FFFFF8
FFFFF8
FFC7FC
FF01FC
FE01FC
FE00FC
FE00FC
FE00FE
FE00FE
FE00FE
FE00FE
FE00FE
FE00FE
FE00FE
FE00FE
FE00FE
FE00FE
FE00FE
FE00FE
FE00FE
FE00FE
FE00FE
FE00FE
ENDCHAR
STARTCHAR 0069
ENCODING 105
SWIDTH 604 0
DWIDTH 29 0
BBX 21 36 5 0
BITMAP
00F000
01F800
03FC00
03FC00
03FC00
01F800
00F000
000000
000000
000000
FFFC00
FFFC00
FFFC00
FFFC00
FFFC00
01FC00
01FC00
01FC00
01FC00
01FC00
01FC00
01FC00
01FC00
01FC00
01FC00
01FC00
01FC00
01FC00
01FC00
01FC00
01FC00
FFFFF8
FFFFF8
FFFFF8
FFFFF8
FFFFF8
ENDCHAR
STARTCHAR 006A
ENCODING 106
SWIDTH 604 0
DWIDTH 29 0
BBX 16 47 5 -11
BITMAP
003C
007E
00FF
00FF
00FF
007E
003C
0000
0000
0000
3FFE
3FFE
3FFE
3FFE
3FFE
00FE
00FE
00FE
00FE
00FE
00FE
00FE
00FE
00FE
00FE
00FE
00FE
00FE
00FE
00FE
00FE
00FE
00FE
00FE
00FE
00FE
00FE
00FE
00FE
00FE
01FC
FFFC
FFFC
FFF8
FFF0
FFC0
3800
ENDCHAR
STARTCHAR 006B
ENCODING 107
SWIDTH 583 0
DWIDTH 28 0
BBX 24 36 3 0
BITMAP
FE0000
FE0000
FE0000
FE0000
FE0000
FE0000
FE0000
FE0000
FE0000
FE0000
FE01FE
FE03FC
FE07F8
FE0FF0
FE1FE0
FE1FC0
FE3FC0
FE7F80
FEFF00
FFFE00
FFFC00
FFFC00
FFFE00
FFFF00
FFFF00
FFBF80
FF3FC0
FE1FE0
FE0FE0
FE0FF0
FE07F8
FE03F8
FE03FC
FE01FE
FE00FF
FE00FF
ENDCHAR
STARTCHAR 006C
ENCODING 108
SWIDTH 604 0
DWIDTH 29 0
BBX 21 36 5 0
BITMAP
FFFC00
FFFC00
FFFC00
FFFC00
FFFC00
01FC00
01FC00
01FC00
01FC00
01FC00
01FC00
01FC00
01FC00
01FC00
01FC00
01FC00
01FC00
01FC00
01FC00
01FC00
01FC00
01FC00
01FC00
01FC00
01FC00
01FC00
01FC00
01FC00
01FC00
01FC00
01FC00
FFFFF8
FFFFF8
FFFFF8
FFFFF8
FFFFF8
ENDCHAR
STARTCHAR 006D
ENCODING 109
SWIDTH 625 0
DWIDTH 30 0
BBX 26 26 2 0
BITMAP
FE7C3C00
FEFEFF00
FFFFFF00
FFFFFF80
FFFFFF80
FE3F1F80
FE3F1F80
FE3F1FC0
FE3F1FC0
FE3F1FC0
FE3F1FC0
FE3F1FC0
FE3F1FC0
FE3F1FC0
FE3F1FC0
FE3F1FC0
FE3F1FC0
FE3F1FC0
FE3F1FC0
FE3F1FC0
FE3F1FC0
FE3F1FC0
FE3F1FC0
FE3F1FC0
FE3F1FC0
FE3F1FC0
ENDCHAR
STARTCHAR 006E
ENCODING 110
SWIDTH 583 0
DWIDTH 28 0
BBX 23 26 3 0
BITMAP
FC1F80
FC7FE0
FDFFF0
FFFFF8
FFFFF8
FF83FC
FE01FC
FE00FC
FE00FC
FE00FC
FE00FE
FE00FE
FE00FE
FE00FE
FE00FE
FE00FE
FE00FE
FE00FE
FE00FE
FE00FE
FE00FE
FE00FE
FE00FE
FE00FE
FE00FE
FE00FE
ENDCHAR
STARTCHAR 006F
ENCODING 111
SWIDTH 583 0
DWIDTH 28 0
BBX 24 27 2 -1
BITMAP
00FF00
03FFC0
0FFFF0
1FFFF8
3FFFFC
3FC3FC
7F81FE
7F00FE
7E007E
FE007F
FE007F
FE007F
FE007F
FE007F
FE007F
FE007F
FE007F
FE007F
7F00FE
7F00FE
3F81FC
3FFFFC
1FFFF8
0FFFF0
07FFE0
01FF80
001800
ENDCHAR
STARTCHAR 0070
ENCODING 112
SWIDTH 583 0
DWIDTH 28 0
BBX 23 36 3 -10
BITMAP
FC3F00
FCFFC0
FFFFE0
FFFFF0
FFFFF8
FF8FF8
FE03FC
FE01FC
FE01FC
FE00FC
FE00FC
FE00FC
FE00FE
FE00FE
FE00FC
FE00FC
FE00FC
FE01FC
FE01FC
FE03F8
FF8FF8
FFFFF8
FFFFF0
FFFFE0
FEFFC0
FE3F00
FE0000
FE0000
FE0000
FE0000
FE0000
FE0000
FE0000
FE0000
FE0000
FE0000
ENDCHAR
STARTCHAR 0071
ENCODING 113
SWIDTH 604 0
DWIDTH 29 0
BBX 23 36 3 -10
BITMAP
01F87E
07FE7E
1FFFFE
1FFFFE
3FFFFE
7FC7FE
7F01FE
7F00FE
FE00FE
FE00FE
FE00FE
FE00FE
FE00FE
FE00FE
FE00FE
FE00FE
FE00FE
FE00FE
7F00FE
7F01FE
7FC7FE
3FFFFE
1FFFFE
0FFFFE
07FEFE
01F8FE
0000FE
0000FE
0000FE
0000FE
0000FE
0000FE
0000FE
0000FE
0000FE
0000FE
ENDCHAR
STARTCHAR 0072
ENCODING 114
SWIDTH 604 0
DWIDTH 29 0
BBX 20 26 7 0
BITMAP
FC0FF0
FC3FE0
FCFFE0
FDFFE0
FDFFE0
FFFFE0
FFFFE0
FFC020
FF0000
FE0000
FE0000
FE0000
FE0000
FE0000
FE0000
FE0000
FE0000
FE0000
FE0000
FE0000
FE0000
FE0000
FE0000
FE0000
FE0000
FE0000
ENDCHAR
STARTCHAR 0073
ENCODING 115
SWIDTH 604 0
DWIDTH 29 0
BBX 23 27 3 -1
BITMAP
01FF00
07FFC0
1FFFF0
3FFFF8
7FFFFC
7FC3FC
7F00FE
FE00FE
7E00FE
7F0000
7F8000
3FFC00
1FFFC0
07FFF0
01FFF8
001FFC
0001FE
0000FE
FE00FE
FE00FE
7F01FE
7FFFFC
3FFFFC
1FFFF8
0FFFF0
03FFC0
001000
ENDCHAR
STARTCHAR 0074
ENCODING 116
SWIDTH 604 0
DWIDTH 29 0
BBX 23 33 3 -1
BITMAP
03F800
03F800
03F800
03F800
03F800
03F800
FFFFFC
FFFFFC
FFFFFC
FFFFFC
FFFFFC
03F800
03F800
03F800
03F800
03F800
03F800
03F800
03F800
03F800
03F800
03F800
03F800
03F800
03F800
03F800
03FC00
01FFFE
01FFFE
00FFFE
007FFE
003FFC
000300
ENDCHAR
STARTCHAR 0075
ENCODING 117
SWIDTH 604 0
DWIDTH 29 0
BBX 22 27 4 -1
BITMAP
FE01FC
FE01FC
FE01FC
FE01FC
FE01FC
FE01FC
FE01FC
FE01FC
FE01FC
FE01FC
FE01FC
FE01FC
FE01FC
FE01FC
FE01FC
FE01FC
FE01FC
FE01FC
FE01FC
FE01FC
7F03FC
7FFFFC
7FFFFC
3FFEFC
1FFCFC
0FF8FC
008000
ENDCHAR
STARTCHAR 0076
ENCODING 118
SWIDTH 604 0
DWIDTH 29 0
BBX 25 26 2 0
BITMAP
FE003F80
FE003F80
7E003F00
7F007F00
7F007E00
3F007E00
3F00FE00
3F80FC00
1F80FC00
1F81FC00
0FC1F800
0FC1F800
0FC1F000
07E3F000
07E3F000
07E3E000
03F7E000
03F7E000
01F7C000
01F7C000
01FFC000
00FF8000
00FF8000
00FF0000
007F0000
007F0000
ENDCHAR
STARTCHAR 0077
ENCODING 119
SWIDTH 604 0
DWIDTH 29 0
BBX 27 26 1 0
BITMAP
FC1E07E0
FC1F07C0
FC1F0FC0
FC3F0FC0
FC3F0FC0
7C3F0FC0
7C3F8FC0
7E3F8F80
7E7F8F80
7E7F8F80
7E7F9F80
3E7B9F80
3E7BDF80
3E73DF00
3EF3DF00
3FF3DF00
1FF1DF00
1FF1DF00
1FE1FE00
1FE1FE00
1FE1FE00
1FE0FE00
0FE0FE00
0FC0FE00
0FC0FC00
0FC0FC00
ENDCHAR
STARTCHAR 0078
ENCODING 120
SWIDTH 604 0
DWIDTH 29 0
BBX 25 26 2 0
BITMAP
7F003F80
7F007F80
3F807F00
1FC0FE00
1FE1FE00
0FE1FC00
07F3F800
07FFF800
03FFF000
01FFE000
01FFE000
00FFC000
007F8000
00FF8000
00FFC000
01FFE000
03FFE000
03FFF000
07F3F800
0FF3F800
0FE1FC00
1FC0FE00
3FC0FE00
3F807F00
7F003F80
FE003F80
ENDCHAR
STARTCHAR 0079
ENCODING 121
SWIDTH 604 0
DWIDTH 29 0
BBX 28 37 1 -11
BITMAP
FF000FF0
7F000FE0
7F000FE0
3F801FC0
3F801FC0
1F801F80
1FC03F80
1FC03F80
0FE07F00
0FE07F00
07E07E00
07F0FE00
03F0FC00
03F0FC00
03F9FC00
01F9F800
01FBF800
00FFF000
00FFF000
007FE000
007FE000
007FE000
003FC000
003FC000
001F8000
001F8000
003F0000
003F0000
007F0000
00FE0000
00FE0000
0FFC0000
0FFC0000
0FF80000
1FF00000
1FC00000
06000000
ENDCHAR
STARTCHAR 007A
ENCODING 122
SWIDTH 604 0
DWIDTH 29 0
BBX 24 26 3 0
BITMAP
FFFFFE
FFFFFE
FFFFFE
FFFFFE
FFFFFE
0003FC
0007F8
000FF0
001FE0
003FC0
003F80
007F80
00FF00
01FE00
03FC00
07F800
07F000
0FE000
1FE000
3FC000
7F8000
FFFFFF
FFFFFF
FFFFFF
FFFFFF
FFFFFF
ENDCHAR
STARTCHAR 007B
ENCODING 123
SWIDTH 604 0
DWIDTH 29 0
BBX 16 46 7 -8
BITMAP
000F
003F
007F
00FF
01FC
01F8
01F8
03F8
03F8
03F8
03F8
03F8
03F8
03F8
03F8
03F0
03F0
07F0
0FE0
3FE0
FFC0
FF00
FE00
FF80
FFC0
1FE0
07E0
07F0
03F0
03F0
03F8
03F8
03F8
03F8
03F8
03F8
03F8
03F8
03F8
01F8
01FC
00FE
00FF
007F
001F
000F
ENDCHAR
STARTCHAR 007C
ENCODING 124
SWIDTH 583 0
DWIDTH 28 0
BBX 4 44 12 -10
BITMAP
F0
F0
F0
F0
F0
F0
F0
F0
F0
F0
F0
F0
F0
F0
F0
F0
F0
F0
F0
F0
F0
F0
F0
F0
F0
F0
F0
F0
F0
F0
F0
F0
F0
F0
F0
F0
F0
F0
F0
F0
F0
F0
F0
F0
ENDCHAR
STARTCHAR 007D
ENCODING 125
SWIDTH 604 0
DWIDTH 29 0
BBX 16 46 8 -8
BITMAP
7000
7C00
7F00
FF00
3F80
1FC0
0FC0
0FC0
0FC0
0FC0
0FE0
0FE0
0FE0
0FE0
0FE0
0FE0
0FE0
0FE0
07F0
03FC
01FF
00FF
003F
00FF
03FF
03F8
07F0
0FE0
0FE0
0FE0
0FE0
0FE0
0FE0
0FE0
0FE0
0FE0
0FC0
0FC0
0FC0
1FC0
1F80
3F80
FF00
7E00
7C00
7000
ENDCHAR
STARTCHAR 007E
ENCODING 126
SWIDTH 604 0
DWIDTH 29 0
BBX 26 10 1 9
BITMAP
0FE00000
1FF803C0
3FFC03C0
7FFE07C0
7FFF8FC0
FC7FFF80
F81FFF80
F00FFF00
3003FE00
0000F800
ENDCHAR
STARTCHAR 00A0
ENCODING 160
SWIDTH 604 0
DWIDTH 29 0
BBX 0 0 0 0
BITMAP
ENDCHAR
STARTCHAR 00A1
ENCODING 161
SWIDTH 604 0
DWIDTH 29 0
BBX 8 35 11 -9
BITMAP
3C
7E
FF
FF
FF
7E
3C
00
00
00
00
00
00
FE
FE
FE
FE
FE
FE
FE
FE
FE
FE
FE
FE
FE
FE
FE
FE
FE
FE
FE
FE
FE
FE
ENDCHAR
STARTCHAR 00A2
ENCODING 162
SWIDTH 604 0
DWIDTH 29 0
BBX 23 37 3 -6
BITMAP
007C00
007C00
007C00
007C00
007C00
01FF00
07FFC0
0FFFF0
1FFFF8
3FFFFC
3F83FC
7F01FC
7F00FE
7E00FE
FE00FE
FE0000
FE0000
FE0000
FE0000
FE0000
FE0000
FE0000
FE00FE
7F00FE
7F00FE
7F83FC
3FFFFC
1FFFF8
0FFFF0
07FFE0
01FF80
007C00
007C00
007C00
007C00
007C00
007C00
ENDCHAR
STARTCHAR 00A3
ENCODING 163
SWIDTH 604 0
DWIDTH 29 0
BBX 25 34 3 0
BITMAP
003FC000
00FFF000
03FFFC00
07FFFE00
07FFFE00
0FF9FF00
0FE07F00
0FC03F00
0FC03F00
1FC00000
1FC00000
1FC00000
1FC00000
1FC00000
1FC00000
FFFFC000
FFFFC000
FFFFC000
FFFFC000
FFFFC000
0FE00000
0FE00000
0FE00000
0FE00000
0FE00000
0FC00000
0FC00000
1FC00000
1F800000
FFFFFF80
FFFFFF80
FFFFFF80
FFFFFF80
FFFFFF80
ENDCHAR
STARTCHAR 00A4
ENCODING 164
SWIDTH 604 0
DWIDTH 29 0
BBX 25 26 2 0
BITMAP
10000000
387F0600
7FFFEF00
FFFFFF80
7FFFFF00
3FC1FE00
1F007C00
3E003E00
3C001E00
7C001F00
78000F00
78000F00
78000F00
78000F00
78000F00
78000F00
78000F00
7C001F00
3C001E00
3E003E00
1F007E00
3FC1FF00
7FFFFF00
7FFFFF80
3BFFCF00
107F0600
ENDCHAR
STARTCHAR 00A5
ENCODING 165
SWIDTH 583 0
DWIDTH 28 0
BBX 27 34 1 0
BITMAP
FE000FE0
FE001FC0
7F001FC0
7F003F80
3F803F80
3F807F00
1FC07F00
0FC0FE00
0FE0FC00
07E1FC00
07F1F800
03F3F800
03FBF000
01FBF000
01FFE000
00FFE000
3FFFFF00
3FFFFF00
3FFFFF00
3FFFFF00
003F8000
003F8000
003F8000
3FFFFF00
3FFFFF00
3FFFFF00
3FFFFF00
003F8000
003F8000
003F8000
003F8000
003F8000
003F8000
003F8000
ENDCHAR
STARTCHAR 00A6
ENCODING 166
SWIDTH 604 0
DWIDTH 29 0
BBX 7 41 11 -7
BITMAP
FE
FE
FE
FE
FE
FE
FE
FE
FE
FE
FE
FE
FE
FE
FE
FE
FE
FE
00
00
00
00
FE
FE
FE
FE
FE
FE
FE
FE
FE
FE
FE
FE
FE
FE
FE
FE
FE
FE
FE
ENDCHAR
STARTCHAR 00A7
ENCODING 167
SWIDTH 604 0
DWIDTH 29 0
BBX 26 45 2 -11
BITMAP
00FF8000
07FFF000
0FFFFC00
1FFFFE00
3FFFFF00
7FC1FF00
7F007F00
7E003F80
FE003F80
FE003F80
7E000000
7F800000
7FE00000
3FFC0000
1FFFC000
0FFFF000
3FFFFC00
7FFFFE00
7E1FFF00
FE03FF80
FE007F80
FE003F80
FE001F80
FE001FC0
FF801F80
7FF03F80
3FFE3F80
3FFFFF00
0FFFFE00
03FFFC00
00FFFE00
000FFF00
0001FF00
00007F80
00003F80
FE003F80
FE003F80
FE003F80
7F807F80
7FFFFF00
3FFFFF00
1FFFFE00
0FFFF800
03FFE000
000C0000
ENDCHAR
STARTCHAR 00A8
ENCODING 168
SWIDTH 583 0
DWIDTH 28 0
BBX 18 5 6 29
BITMAP
7C0F80
FC1F80
FE1FC0
FC1F80
780F00
ENDCHAR
STARTCHAR 00A9
ENCODING 169
SWIDTH 604 0
DWIDTH 29 0
BBX 25 26 2 0
BITMAP
00FF8000
03FFE000
0780F000
0E003800
1C001C00
383E0E00
30FF8600
61E38700
61C1C300
E381C380
C3800180
C3800180
C3800180
C3800180
C3800180
C381C180
E3C1C380
61C38300
70FF8700
307E0600
38000E00
1C001C00
0E007800
07C1F000
01FFC000
007F0000
ENDCHAR
STARTCHAR 00AA
ENCODING 170
SWIDTH 583 0
DWIDTH 28 0
BBX 16 18 6 16
BITMAP
07E0
1FF8
3FFC
7F7E
783E
781E
001E
001E
0FFE
3FFE
7FFE
F81E
F01E
F01E
F87E
FFFE
7FFE
3F9F
ENDCHAR
STARTCHAR 00AB
ENCODING 171
SWIDTH 604 0
DWIDTH 29 0
BBX 20 19 4 2
BITMAP
01E0F0
03C1E0
07C3E0
0F87C0
0F8780
1F0F80
3E1F00
3E1F00
7C3E00
FC7C00
7C3E00
3E1F00
3E1F00
1F0F80
0F8780
0F87C0
07C3E0
03C1E0
01E0F0
ENDCHAR
STARTCHAR 00AC
ENCODING 172
SWIDTH 604 0
DWIDTH 29 0
BBX 20 10 4 9
BITMAP
FFFFF0
FFFFF0
FFFFF0
FFFFF0
0001F0
0001F0
0001F0
0001F0
0001F0
0001F0
ENDCHAR
STARTCHAR 00AD
ENCODING 173
SWIDTH 625 0
DWIDTH 30 0
BBX 20 5 7 13
BITMAP
FFFFF0
FFFFF0
FFFFF0
FFFFF0
FFFFF0
ENDCHAR
STARTCHAR 00AE
ENCODING 174
SWIDTH 604 0
DWIDTH 29 0
BBX 25 26 2 0
BITMAP
00FF0000
03FFE000
0780F000
0E003800
1C001C00
39FE0E00
31FF8600
61C3C300
61C1C300
E1C1C380
C1C1C180
C1C38180
C1FF0180
C1FE0180
C1C60180
C1C70180
E1C30380
61C38300
71C18700
31C1C600
38000E00
1C001C00
0F007800
07C1F000
01FFC000
007F0000
ENDCHAR
STARTCHAR 00AF
ENCODING 175
SWIDTH 583 0
DWIDTH 28 0
BBX 17 4 6 30
BITMAP
FFFF80
FFFF80
FFFF80
FFFF80
ENDCHAR
STARTCHAR 00B0
ENCODING 176
SWIDTH 583 0
DWIDTH 28 0
BBX 12 13 8 22
BITMAP
0F00
3FC0
7FE0
70E0
F0F0
E070
E070
E070
F0F0
70E0
7FE0
3FC0
0F00
ENDCHAR
STARTCHAR 00B1
ENCODING 177
SWIDTH 583 0
DWIDTH 28 0
BBX 21 30 3 0
BITMAP
00FC00
00FC00
00FC00
00FC00
00FC00
00FC00
00FC00
00FC00
FFFFF8
FFFFF8
FFFFF8
FFFFF8
FFFFF8
00FC00
00FC00
00FC00
00FC00
00FC00
00FC00
00FC00
00FC00
00FC00
000000
000000
000000
7FFFF8
7FFFF8
7FFFF8
7FFFF8
7FFFF8
ENDCHAR
STARTCHAR 00B2
ENCODING 178
SWIDTH 583 0
DWIDTH 28 0
BBX 14 18 7 16
BITMAP
0FC0
3FF0
7FF8
FFFC
F87C
F07C
007C
00FC
01F8
03F0
07E0
0FC0
1F80
3E00
FFFC
FFFC
FFFC
FFFC
ENDCHAR
STARTCHAR 00B3
ENCODING 179
SWIDTH 604 0
DWIDTH 29 0
BBX 15 18 7 16
BITMAP
0FE0
3FF8
7FFC
7FFE
F83E
003E
007C
07F8
07F0
07FC
007E
003E
F83E
F83E
FFFE
7FFC
3FF8
0FE0
ENDCHAR
STARTCHAR 00B4
ENCODING 180
SWIDTH 604 0
DWIDTH 29 0
BBX 11 7 9 28
BITMAP
0FE0
1FC0
1F80
3F00
3E00
7C00
F800
ENDCHAR
STARTCHAR 00B5
ENCODING 181
SWIDTH 604 0
DWIDTH 29 0
BBX 23 36 4 -10
BITMAP
FE00FE
FE00FE
FE00FE
FE00FE
FE00FE
FE00FE
FE00FE
FE00FE
FE00FE
FE00FE
FE00FE
FE00FE
FE00FE
FE00FE
FE00FE
FE00FE
FE00FE
FE00FE
FE00FE
FE01FE
FF03FE
FFFFFE
FFFFFE
FFFFFE
FFFFFE
FFFEFE
FE2000
FE0000
FE0000
FE0000
FE0000
FE0000
FE0000
FE0000
FE0000
FE0000
ENDCHAR
STARTCHAR 00B6
ENCODING 182
SWIDTH 604 0
DWIDTH 29 0
BBX 19 34 5 0
BITMAP
00FFE0
03FFE0
0FFFE0
1FFFE0
3FFFE0
3FFFE0
7FFFE0
7FFFE0
7FFFE0
7FFFE0
FFFFE0
FFFFE0
7FFFE0
7FFFE0
7FFFE0
7FFFE0
3FFFE0
3FFFE0
1FFFE0
0FFFE0
03FFE0
00FFE0
0003E0
0003E0
0003E0
0003E0
0003E0
0003E0
0003E0
0003E0
0003E0
0003E0
0003E0
0003E0
ENDCHAR
STARTCHAR 00B7
ENCODING 183
SWIDTH 604 0
DWIDTH 29 0
BBX 7 7 12 13
BITMAP
38
7C
FE
FE
FE
7C
38
ENDCHAR
STARTCHAR 00B8
ENCODING 184
SWIDTH 583 0
DWIDTH 28 0
BBX 8 11 10 -11
BITMAP
F8
FC
FE
7F
1F
1F
3F
FF
FE
FC
F0
ENDCHAR
STARTCHAR 00B9
ENCODING 185
SWIDTH 604 0
DWIDTH 29 0
BBX 10 18 9 16
BITMAP
03C0
1FC0
FFC0
FFC0
FFC0
E7C0
07C0
07C0
07C0
07C0
07C0
07C0
07C0
07C0
07C0
07C0
07C0
07C0
ENDCHAR
STARTCHAR 00BA
ENCODING 186
SWIDTH 583 0
DWIDTH 28 0
BBX 16 18 6 16
BITMAP
07E0
1FF8
3FFC
7FFE
781E
F80F
F00F
F00F
F00F
F00F
F00F
F00F
F00F
F81F
7C3E
3FFE
3FFC
0FF0
ENDCHAR
STARTCHAR 00BB
ENCODING 187
SWIDTH 604 0
DWIDTH 29 0
BBX 19 19 6 3
BITMAP
F0F800
F87800
783C00
7C3E00
3E1F00
1F1F00
1F0F80
0F87C0
0FC7C0
07C3E0
0FC7C0
0F87C0
1F0F80
1F1F00
3E1F00
7C3E00
783C00
F87800
F0F800
ENDCHAR
STARTCHAR 00BC
ENCODING 188
SWIDTH 604 0
DWIDTH 29 0
BBX 26 34 2 0
BITMAP
03000000
1F000000
FF000000
FF000000
FF000000
8F006000
0F007800
0F00F000
0F00F000
0F01E000
0F03C000
0F03C000
0F078000
0F078000
0F0F0000
0F0F0000
0F1E0000
003E0F00
003C1F00
00783F00
00787F00
00F07F00
00F0FF00
01E1EF00
01E3CF00
03C3CF00
07878F00
018FFFC0
000FFFC0
000FFFC0
00000F00
00000F00
00000F00
00000F00
ENDCHAR
STARTCHAR 00BD
ENCODING 189
SWIDTH 625 0
DWIDTH 30 0
BBX 28 35 1 0
BITMAP
01000000
0F000000
7F000000
FF000000
FF000000
EF000000
0F00E000
0F00F000
0F01E000
0F01E000
0F03C000
0F03C000
0F078000
0F070000
0F0F0000
0F1E0000
0F1E0000
003C0000
003C3F00
0078FFC0
0079FFC0
00F1F3E0
00F1E1E0
01E1E1E0
01C003E0
03C003E0
078007C0
07800F80
03001F00
00003E00
00007C00
0000F800
0001FFF0
0001FFF0
0001FFF0
ENDCHAR
STARTCHAR 00BE
ENCODING 190
SWIDTH 625 0
DWIDTH 30 0
BBX 28 34 1 0
BITMAP
1FC00000
3FF00000
7FF80000
F8F80000
00780000
00780C00
07F01E00
07C01E00
07F03C00
00F83C00
00787800
F078F000
F8F8F000
7FF1E000
3FE1E000
1FC3C000
0003C000
000783C0
000787C0
000F0FC0
000F1FC0
001E3FC0
003C3FC0
003C7BC0
0078F3C0
0079E3C0
00F3E3C0
0033FFF0
0003FFF0
0003FFF0
000003C0
000003C0
000003C0
000003C0
ENDCHAR
STARTCHAR 00BF
ENCODING 191
SWIDTH 604 0
DWIDTH 29 0
BBX 21 34 5 -8
BITMAP
007800
00FC00
00FC00
00FE00
00FC00
007800
000000
000000
000000
000000
00FC00
00FC00
00FC00
00FC00
01FC00
03F800
07F800
0FF000
1FE000
3FC000
7F8000
7F0000
FE0000
FE0000
FE0000
FE03F8
FE03F8
FE03F8
FF07F0
7FFFF0
7FFFE0
3FFFE0
1FFF80
03FE00
ENDCHAR
STARTCHAR 00C0
ENCODING 192
SWIDTH 604 0
DWIDTH 29 0
BBX 28 43 1 0
BITMAP
03F80000
03F80000
01FC0000
00FC0000
007E0000
003F0000
001F0000
00000000
00000000
001F8000
003F8000
003FC000
003FC000
007FC000
007FE000
007FE000
00FFE000
00FFF000
00FFF000
01FBF000
01FBF800
01F9F800
03F9F800
03F1FC00
03F0FC00
07F0FC00
07E0FC00
07E0FE00
0FE07E00
0FE07E00
0FC07F00
1FFFFF00
1FFFFF00
1FFFFF80
3FFFFF80
3FFFFF80
3F001FC0
7F001FC0
7F000FC0
7F000FE0
FE000FE0
FE000FE0
FE0007F0
ENDCHAR
STARTCHAR 00C1
ENCODING 193
SWIDTH 604 0
DWIDTH 29 0
BBX 28 43 1 0
BITMAP
0001FC00
0001F800
0003F000
0007E000
0007C000
000FC000
001F8000
00000000
00000000
001F8000
003F8000
003FC000
003FC000
007FC000
007FE000
007FE000
00FFE000
00FFF000
00FFF000
01FBF000
01FBF800
01F9F800
03F9F800
03F1FC00
03F0FC00
07F0FC00
07E0FC00
07E0FE00
0FE07E00
0FE07E00
0FC07F00
1FFFFF00
1FFFFF00
1FFFFF80
3FFFFF80
3FFFFF80
3F001FC0
7F001FC0
7F000FC0
7F000FE0
FE000FE0
FE000FE0
FE0007F0
ENDCHAR
STARTCHAR 00C2
ENCODING 194
SWIDTH 583 0
DWIDTH 28 0
BBX 27 44 1 0
BITMAP
001F0000
003F8000
007FC000
00FFE000
03F1F000
07E0FC00
07C07C00
00000000
00000000
00000000
003F8000
003F8000
003F8000
007F8000
007FC000
007FC000
00FFC000
00FFE000
00FFE000
01FBE000
01FBF000
01FBF000
03F3F000
03F1F800
03F1F800
07F1F800
07E1FC00
07E0FC00
07E0FC00
0FE0FE00
0FC0FE00
0FC07E00
1FFFFF00
1FFFFF00
1FFFFF00
3FFFFF00
3FFFFF80
3F003F80
7F001F80
7F001FC0
7E001FC0
FE000FC0
FE000FE0
FE000FE0
ENDCHAR
STARTCHAR 00C3
ENCODING 195
SWIDTH 583 0
DWIDTH 28 0
BBX 27 45 1 0
BITMAP
00001000
01F83C00
03FF7C00
03FFF800
07FFF800
0787F000
0301C000
00000000
00000000
00000000
00000000
003F8000
003F8000
003F8000
007FC000
007FC000
007FC000
00FFE000
00FFE000
00FFE000
01FBF000
01FBF000
01FBF000
03F3F800
03F1F800
03F1F800
07F1F800
07E0FC00
07E0FC00
0FE0FC00
0FE0FE00
0FC07E00
1FC07E00
1FFFFF00
1FFFFF00
3FFFFF00
3FFFFF80
3FFFFF80
7F001F80
7F001FC0
7F001FC0
FE001FC0
FE000FE0
FE000FE0
FC000FE0
ENDCHAR
STARTCHAR 00C4
ENCODING 196
SWIDTH 604 0
DWIDTH 29 0
BBX 28 43 1 0
BITMAP
03C07800
07E0FC00
07F0FE00
07E0FC00
03E07C00
00000000
00000000
00000000
00000000
001F8000
001F8000
003FC000
003FC000
003FC000
007FC000
007FE000
007FE000
00FFE000
00FFF000
00FBF000
01FBF000
01F9F800
01F9F800
03F1F800
03F0FC00
03F0FC00
07F0FC00
07E0FE00
07E07E00
0FE07E00
0FE07F00
0FFFFF00
1FFFFF00
1FFFFF80
1FFFFF80
3FFFFF80
3F801FC0
3F001FC0
7F001FC0
7F000FE0
7E000FE0
FE000FE0
FE0007F0
ENDCHAR
STARTCHAR 00C5
ENCODING 197
SWIDTH 604 0
DWIDTH 29 0
BBX 28 45 1 0
BITMAP
001F8000
003FC000
0079E000
0070E000
0070E000
0070E000
0079E000
003FC000
000F0000
00000000
00000000
001F8000
001F8000
003FC000
003FC000
003FC000
007FE000
007FE000
007FE000
00FFF000
00FFF000
00FFF000
01F9F800
01F9F800
01F9F800
03F1FC00
03F0FC00
03F0FC00
07F0FE00
07E07E00
07E07E00
0FE07F00
0FE07F00
0FFFFF00
1FFFFF80
1FFFFF80
1FFFFF80
3FFFFFC0
3F801FC0
3F000FC0
7F000FE0
7F000FE0
7E000FE0
FE0007F0
FE0007F0
ENDCHAR
STARTCHAR 00C6
ENCODING 198
SWIDTH 604 0
DWIDTH 29 0
BBX 27 34 1 0
BITMAP
001FFFC0
001FFFC0
003FFFC0
003FFFC0
003FFFC0
003FF800
007FF800
007FF800
007FF800
00FFF800
00FBF800
00FBF800
01FBF800
01F3F800
01F3FFC0
03F3FFC0
03F3FFC0
03E3FFC0
07E3FFC0
07E3F800
07E3F800
0FFFF800
0FFFF800
0FFFF800
1FFFF800
1FFFF800
1F83F800
3F03F800
3F03F800
3F03FFE0
7F03FFE0
7E03FFE0
7E03FFE0
FE03FFE0
ENDCHAR
STARTCHAR 00C7
ENCODING 199
SWIDTH 604 0
DWIDTH 29 0
BBX 25 45 2 -11
BITMAP
007F8000
01FFE000
07FFF800
0FFFFC00
1FFFFE00
3FE1FE00
3F807F00
7F003F00
7F003F80
7E003F80
FE003F80
FE000000
FE000000
FE000000
FE000000
FE000000
FE000000
FE000000
FE000000
FE000000
FE000000
FE000000
FE000000
FE003F80
7E003F80
7E003F80
7F003F80
3F007F00
3FC0FF00
1FFFFE00
1FFFFC00
0FFFFC00
03FFF000
00FFC000
003E0000
003F0000
003F8000
000FC000
0007C000
0007C000
000FC000
003FC000
003F8000
003F0000
003C0000
ENDCHAR
STARTCHAR 00C8
ENCODING 200
SWIDTH 583 0
DWIDTH 28 0
BBX 23 43 3 0
BITMAP
1FC000
0FE000
07E000
03F000
01F800
00F800
007C00
000000
000000
FFFFFE
FFFFFE
FFFFFE
FFFFFE
FFFFFE
FE0000
FE0000
FE0000
FE0000
FE0000
FE0000
FE0000
FE0000
FE0000
FFFFF8
FFFFF8
FFFFF8
FFFFF8
FFFFF8
FE0000
FE0000
FE0000
FE0000
FE0000
FE0000
FE0000
FE0000
FE0000
FE0000
FFFFFE
FFFFFE
FFFFFE
FFFFFE
FFFFFE
ENDCHAR
STARTCHAR 00C9
ENCODING 201
SWIDTH 583 0
DWIDTH 28 0
BBX 23 43 3 0
BITMAP
0007F0
000FE0
000FC0
001F80
003F00
003E00
007C00
000000
000000
FFFFFE
FFFFFE
FFFFFE
FFFFFE
FFFFFE
FE0000
FE0000
FE0000
FE0000
FE0000
FE0000
FE0000
FE0000
FE0000
FFFFF8
FFFFF8
FFFFF8
FFFFF8
FFFFF8
FE0000
FE0000
FE0000
FE0000
FE0000
FE0000
FE0000
FE0000
FE0000
FE0000
FFFFFE
FFFFFE
FFFFFE
FFFFFE
FFFFFE
ENDCHAR
STARTCHAR 00CA
ENCODING 202
SWIDTH 583 0
DWIDTH 28 0
BBX 23 44 3 0
BITMAP
007C00
00FF00
01FF80
03FFC0
0FC7E0
1F83F8
1F01F8
000000
000000
000000
FFFFFE
FFFFFE
FFFFFE
FFFFFE
FFFFFE
FE0000
FE0000
FE0000
FE0000
FE0000
FE0000
FE0000
FE0000
FE0000
FFFFF8
FFFFF8
FFFFF8
FFFFF8
FFFFF8
FE0000
FE0000
FE0000
FE0000
FE0000
FE0000
FE0000
FE0000
FE0000
FE0000
FFFFFE
FFFFFE
FFFFFE
FFFFFE
FFFFFE
ENDCHAR
STARTCHAR 00CB
ENCODING 203
SWIDTH 583 0
DWIDTH 28 0
BBX 23 43 3 0
BITMAP
0F01E0
1F83F0
3F83F8
1F83F0
1F01F0
000000
000000
000000
000000
FFFFFE
FFFFFE
FFFFFE
FFFFFE
FFFFFE
FE0000
FE0000
FE0000
FE0000
FE0000
FE0000
FE0000
FE0000
FE0000
FFFFF8
FFFFF8
FFFFF8
FFFFF8
FFFFF8
FE0000
FE0000
FE0000
FE0000
FE0000
FE0000
FE0000
FE0000
FE0000
FE0000
FFFFFE
FFFFFE
FFFFFE
FFFFFE
FFFFFE
ENDCHAR
STARTCHAR 00CC
ENCODING 204
SWIDTH 625 0
DWIDTH 30 0
BBX 20 43 5 0
BITMAP
7F0000
3F8000
1F8000
0FC000
07E000
03E000
01F000
000000
000000
FFFFF0
FFFFF0
FFFFF0
FFFFF0
FFFFF0
03F800
03F800
03F800
03F800
03F800
03F800
03F800
03F800
03F800
03F800
03F800
03F800
03F800
03F800
03F800
03F800
03F800
03F800
03F800
03F800
03F800
03F800
03F800
03F800
FFFFF0
FFFFF0
FFFFF0
FFFFF0
FFFFF0
ENDCHAR
STARTCHAR 00CD
ENCODING 205
SWIDTH 625 0
DWIDTH 30 0
BBX 20 43 5 0
BITMAP
001FC0
003F80
003F00
007E00
00FC00
00F800
01F000
000000
000000
FFFFF0
FFFFF0
FFFFF0
FFFFF0
FFFFF0
03F800
03F800
03F800
03F800
03F800
03F800
03F800
03F800
03F800
03F800
03F800
03F800
03F800
03F800
03F800
03F800
03F800
03F800
03F800
03F800
03F800
03F800
03F800
03F800
FFFFF0
FFFFF0
FFFFF0
FFFFF0
FFFFF0
ENDCHAR
STARTCHAR 00CE
ENCODING 206
SWIDTH 625 0
DWIDTH 30 0
BBX 20 44 5 0
BITMAP
01F000
03F800
07FC00
0FBE00
3F1F80
7E0FC0
7C07C0
000000
000000
000000
FFFFF0
FFFFF0
FFFFF0
FFFFF0
FFFFF0
03F800
03F800
03F800
03F800
03F800
03F800
03F800
03F800
03F800
03F800
03F800
03F800
03F800
03F800
03F800
03F800
03F800
03F800
03F800
03F800
03F800
03F800
03F800
03F800
FFFFF0
FFFFF0
FFFFF0
FFFFF0
FFFFF0
ENDCHAR
STARTCHAR 00CF
ENCODING 207
SWIDTH 625 0
DWIDTH 30 0
BBX 20 43 5 0
BITMAP
3C0780
7E0FC0
FE0FE0
7E0FC0
7C07C0
000000
000000
000000
000000
FFFFF0
FFFFF0
FFFFF0
FFFFF0
FFFFF0
03F800
03F800
03F800
03F800
03F800
03F800
03F800
03F800
03F800
03F800
03F800
03F800
03F800
03F800
03F800
03F800
03F800
03F800
03F800
03F800
03F800
03F800
03F800
03F800
FFFFF0
FFFFF0
FFFFF0
FFFFF0
FFFFF0
ENDCHAR
STARTCHAR 00D0
ENCODING 208
SWIDTH 604 0
DWIDTH 29 0
BBX 28 34 -1 0
BITMAP
0FFF8000
0FFFF000
0FFFFC00
0FFFFE00
0FFFFF00
0FE1FF80
0FE03FC0
0FE01FC0
0FE00FE0
0FE00FE0
0FE007E0
0FE007F0
0FE007F0
0FE007F0
0FE007F0
FFFF07F0
FFFF07F0
FFFF07F0
FFFF07F0
0FE007F0
0FE007F0
0FE007F0
0FE007F0
0FE007E0
0FE00FE0
0FE00FE0
0FE01FC0
0FE03FC0
0FE1FF80
0FFFFF00
0FFFFE00
0FFFFC00
0FFFF000
0FFFC000
ENDCHAR
STARTCHAR 00D1
ENCODING 209
SWIDTH 604 0
DWIDTH 29 0
BBX 23 45 3 0
BITMAP
010040
07E0F0
0FFDF0
0FFFE0
1FFFE0
1E1FC0
0C0700
000000
000000
000000
000000
FE00FE
FE00FE
FF00FE
FF00FE
FF00FE
FF80FE
FF80FE
FFC0FE
FFC0FE
FFE0FE
FFE0FE
FFF0FE
FFF0FE
FFF0FE
FEF8FE
FEF8FE
FEFCFE
FE7CFE
FE7EFE
FE3EFE
FE3EFE
FE1FFE
FE1FFE
FE1FFE
FE0FFE
FE0FFE
FE07FE
FE07FE
FE03FE
FE03FE
FE01FE
FE01FE
FE01FE
FE00FE
ENDCHAR
STARTCHAR 00D2
ENCODING 210
SWIDTH 604 0
DWIDTH 29 0
BBX 25 44 2 0
BITMAP
0FE00000
07F00000
03F80000
01F80000
00FC0000
007C0000
003E0000
00000000
00000000
00000000
007F0000
03FFC000
07FFF000
0FFFF800
1FFFFC00
3FE3FE00
3F80FE00
7F007F00
7E007F00
7E003F00
FE003F80
FE003F80
FE003F80
FE003F80
FE003F80
FE003F80
FE003F80
FE003F80
FE003F80
FE003F80
FE003F80
FE003F80
FE003F80
FE003F80
7E003F00
7E007F00
7F007F00
3F80FE00
3FE3FE00
1FFFFC00
0FFFF800
07FFF000
03FFC000
007F0000
ENDCHAR
STARTCHAR 00D3
ENCODING 211
SWIDTH 604 0
DWIDTH 29 0
BBX 25 44 2 0
BITMAP
0003F800
0007F000
0007E000
000FC000
001F8000
001F0000
003E0000
00000000
00000000
00000000
007F0000
03FFC000
07FFF000
0FFFF800
1FFFFC00
3FE3FE00
3F80FE00
7F007F00
7E007F00
7E003F00
FE003F80
FE003F80
FE003F80
FE003F80
FE003F80
FE003F80
FE003F80
FE003F80
FE003F80
FE003F80
FE003F80
FE003F80
FE003F80
FE003F80
7E003F00
7E007F00
7F007F00
3F80FE00
3FE3FE00
1FFFFC00
0FFFF800
07FFF000
03FFC000
007F0000
ENDCHAR
STARTCHAR 00D4
ENCODING 212
SWIDTH 604 0
DWIDTH 29 0
BBX 25 45 2 0
BITMAP
003E0000
007F0000
00FF8000
01F7C000
07E3F000
0FC1F800
0F80F800
00000000
00000000
00000000
00000000
007F0000
03FFC000
07FFF000
0FFFF800
1FFFFC00
3FE3FE00
3F80FE00
7F007F00
7E007F00
7E003F00
FE003F80
FE003F80
FE003F80
FE003F80
FE003F80
FE003F80
FE003F80
FE003F80
FE003F80
FE003F80
FE003F80
FE003F80
FE003F80
FE003F80
7E003F00
7E007F00
7F007F00
3F80FE00
3FE3FE00
1FFFFC00
0FFFF800
07FFF000
03FFC000
007F0000
ENDCHAR
STARTCHAR 00D5
ENCODING 213
SWIDTH 604 0
DWIDTH 29 0
BBX 25 45 2 0
BITMAP
00002000
03F03800
07FEF800
07FFF800
0FFFF000
0F0FE000
0603C000
00000000
00000000
00000000
00000000
007F0000
03FFC000
07FFF000
0FFFF800
1FFFFC00
3FE3FE00
3F80FE00
7F007F00
7E007F00
7E003F00
FE003F80
FE003F80
FE003F80
FE003F80
FE003F80
FE003F80
FE003F80
FE003F80
FE003F80
FE003F80
FE003F80
FE003F80
FE003F80
FE003F80
7E003F00
7E007F00
7F007F00
3F80FE00
3FE3FE00
1FFFFC00
0FFFF800
07FFF000
03FFC000
007F0000
ENDCHAR
STARTCHAR 00D6
ENCODING 214
SWIDTH 604 0
DWIDTH 29 0
BBX 25 44 2 0
BITMAP
0780F000
0FC1F800
1FC1FC00
0FC1F800
0F80F800
00000000
00000000
00000000
00000000
00000000
007F0000
03FFC000
07FFF000
0FFFF800
1FFFFC00
3FE3FE00
3F80FE00
7F007F00
7E007F00
7E003F00
FE003F80
FE003F80
FE003F80
FE003F80
FE003F80
FE003F80
FE003F80
FE003F80
FE003F80
FE003F80
FE003F80
FE003F80
FE003F80
FE003F80
7E003F00
7E007F00
7F007F00
3F80FE00
3FE3FE00
1FFFFC00
0FFFF800
07FFF000
03FFC000
007F0000
ENDCHAR
STARTCHAR 00D7
ENCODING 215
SWIDTH 604 0
DWIDTH 29 0
BBX 22 22 4 5
BITMAP
180060
3C00F0
7C01F8
FE03FC
7F07F8
3F8FF0
1FDFE0
0FFFC0
07FF80
03FF00
01FE00
03FE00
07FF00
0FFF80
1FFFC0
3FDFE0
7F8FF0
FF07F8
FE03FC
7C01F8
3800F0
100060
ENDCHAR
STARTCHAR 00D8
ENCODING 216
SWIDTH 604 0
DWIDTH 29 0
BBX 26 38 1 -2
BITMAP
000007C0
00000780
003F8780
01FFFF00
03FFFF00
07FFFE00
0FFFFE00
1FF1FF00
1FC07F00
3F807F80
3F00FF80
3F01FF80
7F01FFC0
7F03FFC0
7F03DFC0
7F079FC0
7F0F9FC0
7F0F1FC0
7F1F1FC0
7F1E1FC0
7F3C1FC0
7F7C1FC0
7F781FC0
7FF81FC0
7FF01FC0
7FE01FC0
3FE01F80
3FC03F80
3FC03F80
1FC07F00
1FF1FF00
0FFFFE00
1FFFFC00
1FFFF800
3DFFE000
7C7F8000
78000000
F8000000
ENDCHAR
STARTCHAR 00D9
ENCODING 217
SWIDTH 604 0
DWIDTH 29 0
BBX 23 44 3 0
BITMAP
1FC000
0FE000
07F000
03F000
01F800
00FC00
007C00
000000
000000
000000
FE00FE
FE00FE
FE00FE
FE00FE
FE00FE
FE00FE
FE00FE
FE00FE
FE00FE
FE00FE
FE00FE
FE00FE
FE00FE
FE00FE
FE00FE
FE00FE
FE00FE
FE00FE
FE00FE
FE00FE
FE00FE
FE00FE
FE00FE
FE00FE
FE00FE
FE00FE
7E01FC
7F01FC
7FC7FC
3FFFF8
1FFFF0
0FFFE0
07FFC0
00FE00
ENDCHAR
STARTCHAR 00DA
ENCODING 218
SWIDTH 604 0
DWIDTH 29 0
BBX 23 44 3 0
BITMAP
0007F0
000FE0
000FC0
001F80
003F00
003F00
007E00
000000
000000
000000
FE00FE
FE00FE
FE00FE
FE00FE
FE00FE
FE00FE
FE00FE
FE00FE
FE00FE
FE00FE
FE00FE
FE00FE
FE00FE
FE00FE
FE00FE
FE00FE
FE00FE
FE00FE
FE00FE
FE00FE
FE00FE
FE00FE
FE00FE
FE00FE
FE00FE
FE00FE
7E01FC
7F01FC
7FC7FC
3FFFF8
1FFFF0
0FFFE0
07FFC0
00FE00
ENDCHAR
STARTCHAR 00DB
ENCODING 219
SWIDTH 604 0
DWIDTH 29 0
BBX 23 45 3 0
BITMAP
003C00
007E00
01FF00
03FF80
07EFC0
0FC3E0
1F81F0
000000
000000
000000
000000
FE00FE
FE00FE
FE00FE
FE00FE
FE00FE
FE00FE
FE00FE
FE00FE
FE00FE
FE00FE
FE00FE
FE00FE
FE00FE
FE00FE
FE00FE
FE00FE
FE00FE
FE00FE
FE00FE
FE00FE
FE00FE
FE00FE
FE00FE
FE00FE
FE00FE
FE00FE
7E01FC
7F01FC
7FC7FC
3FFFF8
1FFFF0
0FFFE0
07FFC0
00FE00
ENDCHAR
STARTCHAR 00DC
ENCODING 220
SWIDTH 604 0
DWIDTH 29 0
BBX 23 43 3 0
BITMAP
1F01F0
1F83F0
3F83F8
1F83F0
0F01E0
000000
000000
000000
000000
FE00FE
FE00FE
FE00FE
FE00FE
FE00FE
FE00FE
FE00FE
FE00FE
FE00FE
FE00FE
FE00FE
FE00FE
FE00FE
FE00FE
FE00FE
FE00FE
FE00FE
FE00FE
FE00FE
FE00FE
FE00FE
FE00FE
FE00FE
FE00FE
FE00FE
FE00FE
7E01FC
7F01FC
7FC7FC
3FFFF8
1FFFF0
0FFFE0
07FFC0
00FE00
ENDCHAR
STARTCHAR 00DD
ENCODING 221
SWIDTH 583 0
DWIDTH 28 0
BBX 27 43 1 0
BITMAP
0001FC00
0003F800
0007F000
0007E000
000FC000
000F8000
001F0000
00000000
00000000
FE000FE0
FE001FE0
7F001FC0
7F001FC0
3F803F80
3F803F80
1F807F00
1FC07F00
0FC0FE00
0FE0FE00
0FE0FC00
07F1FC00
07F1F800
03F3F800
03FBF000
01FFF000
01FFE000
00FFE000
00FFC000
007FC000
007F8000
003F8000
003F8000
003F8000
003F8000
003F8000
003F8000
003F8000
003F8000
003F8000
003F8000
003F8000
003F8000
003F8000
ENDCHAR
STARTCHAR 00DE
ENCODING 222
SWIDTH 604 0
DWIDTH 29 0
BBX 25 34 3 0
BITMAP
FE000000
FE000000
FE000000
FE000000
FE000000
FE000000
FFFF0000
FFFFE000
FFFFF800
FFFFFC00
FFFFFE00
FE03FE00
FE00FF00
FE007F00
FE003F00
FE003F00
FE003F80
FE003F00
FE003F00
FE007F00
FE00FF00
FE01FE00
FFFFFE00
FFFFFC00
FFFFF800
FFFFF000
FFFF8000
FE000000
FE000000
FE000000
FE000000
FE000000
FE000000
FE000000
ENDCHAR
STARTCHAR 00DF
ENCODING 223
SWIDTH 604 0
DWIDTH 29 0
BBX 24 38 4 -1
BITMAP
01FC00
07FF00
1FFFC0
1FFFC0
3FFFE0
7F9FE0
7F07F0
FE07F0
FE07F0
FE07F0
FE07F0
FE07F0
FE07E0
FE0FE0
FE0FC0
FE1FC0
FE1FC0
FE1FC0
FE1FC0
FE1FC0
FE0FE0
FE0FF0
FE07F8
FE03FC
FE01FE
FE00FE
FE007F
FE007F
FE007F
FE007F
FE007F
FE40FF
FE7FFE
FE7FFE
FEFFFC
FEFFF8
FE7FF0
000200
ENDCHAR
STARTCHAR 00E0
ENCODING 224
SWIDTH 604 0
DWIDTH 29 0
BBX 23 36 3 0
BITMAP
1FC000
0FE000
07E000
03F000
03F000
01F800
00FC00
000000
000000
000000
01FE00
07FFC0
1FFFE0
3FFFF0
7FFFF8
7F87F8
7E01FC
FE01FC
0001FC
0001FC
01FFFC
0FFFFC
1FFFFC
3FFFFC
7F81FC
FE01FC
FE01FC
FE01FC
FE01FC
FE03FC
FF8FFC
7FFFFC
7FFFFC
3FFEFC
1FFCFE
07F0FE
ENDCHAR
STARTCHAR 00E1
ENCODING 225
SWIDTH 604 0
DWIDTH 29 0
BBX 23 36 3 0
BITMAP
0007F0
000FE0
001FC0
001F80
003F00
007E00
007C00
000000
000000
000000
01FE00
07FFC0
1FFFE0
3FFFF0
7FFFF8
7F87F8
7E01FC
FE01FC
0001FC
0001FC
01FFFC
0FFFFC
1FFFFC
3FFFFC
7F81FC
FE01FC
FE01FC
FE01FC
FE01FC
FE03FC
FF8FFC
7FFFFC
7FFFFC
3FFEFC
1FFCFE
07F0FE
ENDCHAR
STARTCHAR 00E2
ENCODING 226
SWIDTH 604 0
DWIDTH 29 0
BBX 23 37 3 0
BITMAP
007C00
00FE00
01FF00
07FF80
0FCFC0
1F83F0
1F01F0
000000
000000
000000
000000
01FE00
07FFC0
1FFFE0
3FFFF0
7FFFF8
7F87F8
7E01FC
FE01FC
0001FC
0001FC
01FFFC
0FFFFC
1FFFFC
3FFFFC
7F81FC
FE01FC
FE01FC
FE01FC
FE01FC
FE03FC
FF8FFC
7FFFFC
7FFFFC
3FFEFC
1FFCFE
07F0FE
ENDCHAR
STARTCHAR 00E3
ENCODING 227
SWIDTH 604 0
DWIDTH 29 0
BBX 23 37 3 0
BITMAP
0100C0
07E0F0
0FFDF0
1FFFE0
1FFFE0
1E1FC0
0C0700
000000
000000
000000
000000
01FE00
07FFC0
1FFFE0
3FFFF0
7FFFF8
7F87F8
7E01FC
FE01FC
0001FC
0001FC
01FFFC
0FFFFC
1FFFFC
3FFFFC
7F81FC
FE01FC
FE01FC
FE01FC
FE01FC
FE03FC
FF8FFC
7FFFFC
7FFFFC
3FFEFC
1FFCFE
07F0FE
ENDCHAR
STARTCHAR 00E4
ENCODING 228
SWIDTH 604 0
DWIDTH 29 0
BBX 23 36 3 0
BITMAP
0F01E0
1F83F0
3F87F0
1F83F0
1F03E0
000000
000000
000000
000000
000000
01FE00
07FFC0
1FFFE0
3FFFF0
7FFFF8
7F87F8
7E01FC
FE01FC
0001FC
0001FC
01FFFC
0FFFFC
1FFFFC
3FFFFC
7F81FC
FE01FC
FE01FC
FE01FC
FE01FC
FE03FC
FF8FFC
7FFFFC
7FFFFC
3FFEFC
1FFCFE
07F0FE
ENDCHAR
STARTCHAR 00E5
ENCODING 229
SWIDTH 604 0
DWIDTH 29 0
BBX 23 38 3 0
BITMAP
007C00
01FE00
01CF00
038700
038700
038700
01CF00
01FE00
007800
000000
000000
000000
01FE00
07FFC0
1FFFE0
3FFFF0
7FFFF8
7F87F8
7E01FC
FE01FC
0001FC
0001FC
01FFFC
0FFFFC
1FFFFC
3FFFFC
7F81FC
FE01FC
FE01FC
FE01FC
FE01FC
FE03FC
FF8FFC
7FFFFC
7FFFFC
3FFEFC
1FFCFE
07F0FE
ENDCHAR
STARTCHAR 00E6
ENCODING 230
SWIDTH 604 0
DWIDTH 29 0
BBX 27 26 1 0
BITMAP
07E0FC00
1FFBFF00
3FFFFF80
7FFFFFC0
7FFFFFC0
7E7F9FC0
7E3F0FE0
003F0FE0
003F0FE0
003F0FE0
03FFFFE0
1FFFFFE0
3FFFFFE0
7FFFFFE0
7FFFFFE0
FF3F0000
FE3F0000
FE3F0000
FE3F0000
FE3F8000
FE3FC380
FFFFFF80
7FFFFFC0
7FF7FFC0
3FE3FFC0
0FC0FE00
ENDCHAR
STARTCHAR 00E7
ENCODING 231
SWIDTH 604 0
DWIDTH 29 0
BBX 23 37 3 -11
BITMAP
00FF00
03FFC0
0FFFF0
1FFFF8
3FFFF8
3FC7FC
7F01FC
7F00FE
7E00FE
FE00FE
FE0000
FE0000
FE0000
FE0000
FE0000
FE0000
FE0000
FE00FE
7E00FE
7F00FE
3F81FC
3FFFFC
1FFFF8
0FFFF0
07FFE0
01FF80
007C00
007E00
007F00
001F80
000F80
000F80
001F80
007F80
007F00
007E00
007800
ENDCHAR
STARTCHAR 00E8
ENCODING 232
SWIDTH 604 0
DWIDTH 29 0
BBX 25 36 2 0
BITMAP
0FE00000
07E00000
03F00000
03F80000
01F80000
00FC0000
007C0000
00000000
00000000
00000000
007F8000
01FFE000
07FFF800
0FFFFC00
1FFFFC00
3FE3FE00
3F807E00
7F007F00
7F003F00
7E003F00
7FFFFF00
7FFFFF00
FFFFFF80
FFFFFF80
7FFFFF80
7E000000
7F000000
7F000000
7F800800
3FC01C00
3FF0FE00
1FFFFF00
0FFFFE00
07FFFC00
01FFF000
003FC000
ENDCHAR
STARTCHAR 00E9
ENCODING 233
SWIDTH 604 0
DWIDTH 29 0
BBX 25 36 2 0
BITMAP
0007F000
0007F000
000FE000
001FC000
001F8000
003F0000
003E0000
00000000
00000000
00000000
007F8000
01FFE000
07FFF800
0FFFFC00
1FFFFC00
3FE3FE00
3F807E00
7F007F00
7F003F00
7E003F00
7FFFFF00
7FFFFF00
FFFFFF80
FFFFFF80
7FFFFF80
7E000000
7F000000
7F000000
7F800800
3FC01C00
3FF0FE00
1FFFFF00
0FFFFE00
07FFFC00
01FFF000
003FC000
ENDCHAR
STARTCHAR 00EA
ENCODING 234
SWIDTH 604 0
DWIDTH 29 0
BBX 24 37 3 0
BITMAP
007C00
00FE00
01FF00
03FF80
0FC7E0
1F83F0
1F01F0
000000
000000
000000
000000
007F00
03FFE0
07FFF0
0FFFF8
1FFFFC
3FE3FC
7F80FE
7F007E
7E007F
FE007F
FFFFFF
FFFFFF
FFFFFF
FFFFFF
FFFFFF
FE0000
FE0000
7F0000
7F0018
7F803C
3FF1FE
1FFFFE
0FFFFC
07FFF8
01FFF0
007F80
ENDCHAR
STARTCHAR 00EB
ENCODING 235
SWIDTH 604 0
DWIDTH 29 0
BBX 25 36 2 0
BITMAP
0F01E000
1F83F000
1FC3F800
1F83F000
0F81F000
00000000
00000000
00000000
00000000
00000000
007F8000
01FFE000
07FFF800
0FFFFC00
1FFFFC00
3FE3FE00
3F807E00
7F007F00
7F003F00
7E003F00
7FFFFF00
7FFFFF00
FFFFFF80
FFFFFF80
7FFFFF80
7E000000
7F000000
7F000000
7F800800
3FC03C00
3FF0FE00
1FFFFF00
0FFFFE00
07FFFC00
01FFF000
003FC000
ENDCHAR
STARTCHAR 00EC
ENCODING 236
SWIDTH 604 0
DWIDTH 29 0
BBX 21 35 5 0
BITMAP
1FC000
0FC000
0FE000
07E000
03F000
01F800
00F800
000000
000000
FFFC00
FFFC00
FFFC00
FFFC00
FFFC00
01FC00
01FC00
01FC00
01FC00
01FC00
01FC00
01FC00
01FC00
01FC00
01FC00
01FC00
01FC00
01FC00
01FC00
01FC00
01FC00
FFFFF8
FFFFF8
FFFFF8
FFFFF8
FFFFF8
ENDCHAR
STARTCHAR 00ED
ENCODING 237
SWIDTH 604 0
DWIDTH 29 0
BBX 21 34 5 0
BITMAP
000FE0
000FC0
001F80
003F00
003E00
007C00
00FC00
000000
FFFC00
FFFC00
FFFC00
FFFC00
FFFC00
01FC00
01FC00
01FC00
01FC00
01FC00
01FC00
01FC00
01FC00
01FC00
01FC00
01FC00
01FC00
01FC00
01FC00
01FC00
01FC00
FFFFF8
FFFFF8
FFFFF8
FFFFF8
FFFFF8
ENDCHAR
STARTCHAR 00EE
ENCODING 238
SWIDTH 604 0
DWIDTH 29 0
BBX 21 36 5 0
BITMAP
00F800
01FE00
03FF00
07FF80
0F8FE0
1F03F0
000000
000000
000000
000000
FFFC00
FFFC00
FFFC00
FFFC00
FFFC00
01FC00
01FC00
01FC00
01FC00
01FC00
01FC00
01FC00
01FC00
01FC00
01FC00
01FC00
01FC00
01FC00
01FC00
01FC00
01FC00
FFFFF8
FFFFF8
FFFFF8
FFFFF8
FFFFF8
ENDCHAR
STARTCHAR 00EF
ENCODING 239
SWIDTH 604 0
DWIDTH 29 0
BBX 21 34 5 0
BITMAP
1E03C0
3F07E0
3F87F0
3F07E0
1F03E0
000000
000000
000000
FFFC00
FFFC00
FFFC00
FFFC00
FFFC00
01FC00
01FC00
01FC00
01FC00
01FC00
01FC00
01FC00
01FC00
01FC00
01FC00
01FC00
01FC00
01FC00
01FC00
01FC00
01FC00
FFFFF8
FFFFF8
FFFFF8
FFFFF8
FFFFF8
ENDCHAR
STARTCHAR 00F0
ENCODING 240
SWIDTH 604 0
DWIDTH 29 0
BBX 25 37 1 -1
BITMAP
00100000
003E0200
003F0F00
003FFF00
007FFE00
003FF800
000FF800
001FF800
007FFC00
01FDFE00
00F0FE00
00C0FE00
00007F00
00FE7F00
07FFBF00
0FFFFF80
1FFFFF80
3FFFFF80
7FC1FF80
7F807F80
7F003F80
FE003F80
FE003F80
FE003F80
FE003F80
FE003F80
FE003F00
FE003F00
7E007F00
7F00FE00
7F81FE00
3FFFFC00
1FFFF800
0FFFF000
07FFE000
01FF8000
00180000
ENDCHAR
STARTCHAR 00F1
ENCODING 241
SWIDTH 583 0
DWIDTH 28 0
BBX 23 37 3 0
BITMAP
010080
07E0E0
0FFBE0
1FFFE0
1FFFC0
3C3F80
1C0700
000000
000000
000000
000000
FC1F80
FC7FE0
FDFFF0
FFFFF8
FFFFF8
FF83FC
FE01FC
FE00FC
FE00FC
FE00FC
FE00FE
FE00FE
FE00FE
FE00FE
FE00FE
FE00FE
FE00FE
FE00FE
FE00FE
FE00FE
FE00FE
FE00FE
FE00FE
FE00FE
FE00FE
FE00FE
ENDCHAR
STARTCHAR 00F2
ENCODING 242
SWIDTH 583 0
DWIDTH 28 0
BBX 24 37 2 -1
BITMAP
0FE000
07F000
03F000
01F800
01F800
00FC00
007E00
000000
000000
000000
00FF00
03FFC0
0FFFF0
1FFFF8
3FFFFC
3FC3FC
7F81FE
7F00FE
7E007E
FE007F
FE007F
FE007F
FE007F
FE007F
FE007F
FE007F
FE007F
FE007F
7F00FE
7F00FE
3F81FC
3FFFFC
1FFFF8
0FFFF0
07FFE0
01FF80
001800
ENDCHAR
STARTCHAR 00F3
ENCODING 243
SWIDTH 583 0
DWIDTH 28 0
BBX 24 37 2 -1
BITMAP
0007F8
0007F0
000FE0
000FC0
001F80
003F00
003E00
000000
000000
000000
00FF00
03FFC0
0FFFF0
1FFFF8
3FFFFC
3FC3FC
7F81FE
7F00FE
7E007E
FE007F
FE007F
FE007F
FE007F
FE007F
FE007F
FE007F
FE007F
FE007F
7F00FE
7F00FE
3F81FC
3FFFFC
1FFFF8
0FFFF0
07FFE0
01FF80
001800
ENDCHAR
STARTCHAR 00F4
ENCODING 244
SWIDTH 583 0
DWIDTH 28 0
BBX 24 38 2 -1
BITMAP
003C00
007E00
00FF00
01FFC0
03F7E0
07C3F0
0F81F8
000000
000000
000000
000000
00FF00
03FFC0
0FFFF0
1FFFF8
3FFFFC
3FC3FC
7F81FE
7F00FE
7E007E
FE007F
FE007F
FE007F
FE007F
FE007F
FE007F
FE007F
FE007F
FE007F
7F00FE
7F00FE
3F81FC
3FFFFC
1FFFF8
0FFFF0
07FFE0
01FF80
001800
ENDCHAR
STARTCHAR 00F5
ENCODING 245
SWIDTH 583 0
DWIDTH 28 0
BBX 24 38 2 -1
BITMAP
008060
03F078
07FEF8
0FFFF0
0FFFF0
0E0FE0
060380
000000
000000
000000
000000
00FF00
03FFC0
0FFFF0
1FFFF8
3FFFFC
3FC3FC
7F81FE
7F00FE
7E007E
FE007F
FE007F
FE007F
FE007F
FE007F
FE007F
FE007F
FE007F
FE007F
7F00FE
7F00FE
3F81FC
3FFFFC
1FFFF8
0FFFF0
07FFE0
01FF80
001800
ENDCHAR
STARTCHAR 00F6
ENCODING 246
SWIDTH 583 0
DWIDTH 28 0
BBX 24 37 2 -1
BITMAP
0F00F0
1F81F8
1FC3F8
1F81F8
0F81F0
000000
000000
000000
000000
000000
00FF00
03FFC0
0FFFF0
1FFFF8
3FFFFC
3FC3FC
7F81FE
7F00FE
7E007E
FE007F
FE007F
FE007F
FE007F
FE007F
FE007F
FE007F
FE007F
FE007F
7F00FE
7F00FE
3F81FC
3FFFFC
1FFFF8
0FFFF0
07FFE0
01FF80
001800
ENDCHAR
STARTCHAR 00F7
ENCODING 247
SWIDTH 604 0
DWIDTH 29 0
BBX 24 26 3 3
BITMAP
003800
007C00
00FE00
00FE00
00FE00
007C00
007800
000000
000000
000000
000000
FFFFFF
FFFFFF
FFFFFF
FFFFFF
FFFFFF
000000
000000
000000
003800
007C00
00FE00
00FE00
00FE00
007C00
007800
ENDCHAR
STARTCHAR 00F8
ENCODING 248
SWIDTH 583 0
DWIDTH 28 0
BBX 24 33 2 -4
BITMAP
00003C
000038
000078
00FF70
03FFF0
0FFFF0
1FFFF8
3FFFFC
3FC3FC
7F83FE
7F07FE
7E077E
FE0F7F
FE0E7F
FE1E7F
FE1C7F
FE3C7F
FE387F
FE787F
FE787F
FEF07F
7FF0FE
7FE0FE
3FE1FC
3FFFFC
1FFFF8
0FFFF0
07FFE0
0FFF80
0F1800
1E0000
1E0000
1C0000
ENDCHAR
STARTCHAR 00F9
ENCODING 249
SWIDTH 604 0
DWIDTH 29 0
BBX 22 36 4 -1
BITMAP
1FC000
0FC000
07E000
07F000
03F000
01F800
00F800
000000
000000
FE01FC
FE01FC
FE01FC
FE01FC
FE01FC
FE01FC
FE01FC
FE01FC
FE01FC
FE01FC
FE01FC
FE01FC
FE01FC
FE01FC
FE01FC
FE01FC
FE01FC
FE01FC
FE01FC
FE01FC
7F03FC
7FFFFC
7FFFFC
3FFEFC
1FFCFC
0FF8FC
008000
ENDCHAR
STARTCHAR 00FA
ENCODING 250
SWIDTH 604 0
DWIDTH 29 0
BBX 22 36 4 -1
BITMAP
000FE0
000FC0
001F80
003F00
003F00
007E00
007C00
000000
000000
FE01FC
FE01FC
FE01FC
FE01FC
FE01FC
FE01FC
FE01FC
FE01FC
FE01FC
FE01FC
FE01FC
FE01FC
FE01FC
FE01FC
FE01FC
FE01FC
FE01FC
FE01FC
FE01FC
FE01FC
7F03FC
7FFFFC
7FFFFC
3FFEFC
1FFCFC
0FF8FC
008000
ENDCHAR
STARTCHAR 00FB
ENCODING 251
SWIDTH 604 0
DWIDTH 29 0
BBX 22 37 4 -1
BITMAP
007800
01FE00
03FF00
07FF80
0F8FE0
1F03F0
000000
000000
000000
000000
FE01FC
FE01FC
FE01FC
FE01FC
FE01FC
FE01FC
FE01FC
FE01FC
FE01FC
FE01FC
FE01FC
FE01FC
FE01FC
FE01FC
FE01FC
FE01FC
FE01FC
FE01FC
FE01FC
FE01FC
7F03FC
7FFFFC
7FFFFC
3FFEFC
1FFCFC
0FF8FC
008000
ENDCHAR
STARTCHAR 00FC
ENCODING 252
SWIDTH 604 0
DWIDTH 29 0
BBX 22 35 4 -1
BITMAP
1E01E0
3F03F0
3F87F0
3F03F0
1F03E0
000000
000000
000000
FE01FC
FE01FC
FE01FC
FE01FC
FE01FC
FE01FC
FE01FC
FE01FC
FE01FC
FE01FC
FE01FC
FE01FC
FE01FC
FE01FC
FE01FC
FE01FC
FE01FC
FE01FC
FE01FC
FE01FC
7F03FC
7FFFFC
7FFFFC
3FFEFC
1FFCFC
0FF8FC
008000
ENDCHAR
STARTCHAR 00FD
ENCODING 253
SWIDTH 604 0
DWIDTH 29 0
BBX 28 46 1 -11
BITMAP
0001FE00
0001FC00
0003F800
0003F000
0007E000
000FC000
000F8000
00000000
00000000
FF000FF0
7F000FE0
7F000FE0
3F801FC0
3F801FC0
1F801F80
1FC03F80
1FC03F80
0FE07F00
0FE07F00
07E07E00
07F0FE00
03F0FC00
03F0FC00
03F9FC00
01F9F800
01FBF800
00FFF000
00FFF000
007FE000
007FE000
007FE000
003FC000
003FC000
001F8000
001F8000
003F0000
003F0000
007F0000
00FE0000
00FE0000
0FFC0000
0FFC0000
0FF80000
1FF00000
1FC00000
06000000
ENDCHAR
STARTCHAR 00FE
ENCODING 254
SWIDTH 583 0
DWIDTH 28 0
BBX 23 46 3 -10
BITMAP
FE0000
FE0000
FE0000
FE0000
FE0000
FE0000
FE0000
FE0000
FE0000
FE0000
FE3F00
FEFFC0
FFFFE0
FFFFF0
FFFFF8
FF8FF8
FE03FC
FE01FC
FE01FC
FE00FC
FE00FC
FE00FC
FE00FE
FE00FE
FE00FC
FE00FC
FE00FC
FE01FC
FE01FC
FF03F8
FF8FF8
FFFFF8
FFFFF0
FFFFE0
FEFFC0
FE3F00
FE0000
FE0000
FE0000
FE0000
FE0000
FE0000
FE0000
FE0000
FE0000
FE0000
ENDCHAR
STARTCHAR 00FF
ENCODING 255
SWIDTH 583 0
DWIDTH 28 0
BBX 27 45 1 -11
BITMAP
03C07800
07E0FC00
07F0FE00
07E0FC00
03E07C00
00000000
00000000
00000000
FE000FE0
7F000FE0
7F001FC0
3F801FC0
3F801FC0
3F803F80
1FC03F80
1FC07F00
0FC07F00
0FE07E00
07E0FE00
07E0FE00
07F0FC00
03F1FC00
03F9F800
01F9F800
01FBF000
00FBF000
00FFF000
00FFE000
007FE000
007FC000
003FC000
003F8000
001F8000
001F8000
003F0000
003F0000
007E0000
00FE0000
01FC0000
0FFC0000
0FF80000
1FF80000
1FF00000
1FC00000
06000000
ENDCHAR
STARTCHAR 0100
ENCODING 256
SWIDTH 583 0
DWIDTH 28 0
BBX 28 42 0 0
BITMAP
03FFFE00
03FFFE00
03FFFE00
03FFFE00
00000000
00000000
00000000
00000000
001FC000
001FC000
001FC000
003FE000
003FE000
003FE000
007FE000
007FF000
007FF000
00FDF000
00FDF800
00FDF800
01F9F800
01F8FC00
01F8FC00
03F8FC00
03F0FE00
03F07E00
07F07E00
07E07F00
07E03F00
0FE03F00
0FFFFF80
0FFFFF80
1FFFFF80
1FFFFFC0
1FFFFFC0
3F800FC0
3F800FE0
3F800FE0
7F000FE0
7F0007F0
7F0007F0
FE0007F0
ENDCHAR
STARTCHAR 0101
ENCODING 257
SWIDTH 604 0
DWIDTH 29 0
BBX 23 34 3 0
BITMAP
1FFFF0
1FFFF0
1FFFF0
1FFFF0
000000
000000
000000
000000
01FE00
07FFC0
1FFFE0
3FFFF0
7FFFF8
7F87F8
7E01FC
FE01FC
0001FC
0001FC
01FFFC
0FFFFC
1FFFFC
3FFFFC
7F81FC
FE01FC
FE01FC
FE01FC
FE01FC
FE03FC
FF8FFC
7FFFFC
7FFFFC
3FFFFC
1FFCFE
07F0FE
ENDCHAR
STARTCHAR 0102
ENCODING 258
SWIDTH 604 0
DWIDTH 29 0
BBX 28 44 1 0
BITMAP
03E07C00
03E07C00
03F0FC00
01FFF800
00FFF000
007FE000
001F8000
00000000
00000000
00000000
001F8000
001F8000
003FC000
003FC000
003FC000
007FE000
007FE000
007FE000
00FFF000
00FFF000
00FFF000
01F9F800
01F9F800
01F9F800
03F9FC00
03F0FC00
03F0FC00
07F0FE00
07F0FE00
07E07E00
0FE07F00
0FE07F00
0FFFFF00
1FFFFF00
1FFFFF80
1FFFFF80
3FFFFF80
3F801FC0
3F001FC0
7F000FC0
7F000FE0
7F000FE0
FE000FE0
FE0007F0
ENDCHAR
STARTCHAR 0103
ENCODING 259
SWIDTH 604 0
DWIDTH 29 0
BBX 23 36 3 0
BITMAP
1F03E0
1F87E0
0FFFC0
0FFFC0
07FF80
01FE00
000000
000000
000000
000000
01FE00
07FFC0
1FFFE0
3FFFF0
7FFFF8
7F87F8
7E01FC
FE01FC
0001FC
0001FC
01FFFC
0FFFFC
1FFFFC
3FFFFC
7F81FC
FE01FC
FE01FC
FE01FC
FE01FC
FE03FC
FF8FFC
7FFFFC
7FFFFC
3FFEFC
1FFCFE
07F0FE
ENDCHAR
STARTCHAR 0104
ENCODING 260
SWIDTH 604 0
DWIDTH 29 0
BBX 28 44 1 -10
BITMAP
001F8000
001FC000
003FC000
003FC000
003FE000
007FE000
007FE000
007FF000
00FFF000
00FFF000
00FDF800
01FDF800
01F9F800
01F9FC00
01F8FC00
03F0FC00
03F0FE00
03F07E00
07F07E00
07E07F00
07E07F00
0FE03F00
0FFFFF80
0FFFFF80
1FFFFF80
1FFFFFC0
1FFFFFC0
3F801FC0
3F800FC0
3F000FE0
7F000FE0
7F0007E0
7E0007F0
FE0007F0
00000FC0
00001F00
00001E00
00003E00
00003E00
00003E00
00003FE0
00001FE0
00001FE0
000007C0
ENDCHAR
STARTCHAR 0105
ENCODING 261
SWIDTH 604 0
DWIDTH 29 0
BBX 23 35 3 -9
BITMAP
01FE00
07FFC0
1FFFE0
3FFFF0
7FFFF8
7F87F8
7E01FC
FE01FC
0001FC
0001FC
01FFFC
0FFFFC
1FFFFC
3FFFFC
7F81FC
FE01FC
FE01FC
FE01FC
FE01FC
FE03FC
FF8FFC
7FFFFC
7FFFFC
3FFEFC
1FFCFE
07F0FE
0001F8
0003E0
0007C0
0007C0
0007C0
0007FC
0007FC
0003FE
0000FC
ENDCHAR
STARTCHAR 0106
ENCODING 262
SWIDTH 604 0
DWIDTH 29 0
BBX 25 44 2 -1
BITMAP
0000FE00
0001FC00
0003F800
0003F000
0007E000
000FC000
000F8000
00000000
00000000
007F8000
01FFE000
07FFF800
0FFFFC00
1FFFFE00
3FE1FE00
3F807F00
7F003F00
7F003F80
7E003F80
FE003F80
FE000000
FE000000
FE000000
FE000000
FE000000
FE000000
FE000000
FE000000
FE000000
FE000000
FE000000
FE000000
FE003F80
7E003F80
7E003F80
7F003F80
3F007F00
3FC0FF00
1FFFFE00
1FFFFC00
0FFFFC00
03FFF000
00FFC000
00080000
ENDCHAR
STARTCHAR 0107
ENCODING 263
SWIDTH 604 0
DWIDTH 29 0
BBX 23 37 3 -1
BITMAP
0007F8
0007F0
000FE0
001FC0
001F80
003F00
003E00
000000
000000
000000
00FF00
03FFC0
0FFFF0
1FFFF8
3FFFF8
3FC7FC
7F01FC
7F00FE
7E00FE
FE00FE
FE0000
FE0000
FE0000
FE0000
FE0000
FE0000
FE0000
FE00FE
7E00FE
7F00FE
3F81FC
3FFFFC
1FFFF8
0FFFF0
07FFE0
01FF80
001800
ENDCHAR
STARTCHAR 0108
ENCODING 264
SWIDTH 604 0
DWIDTH 29 0
BBX 25 45 2 -1
BITMAP
000F8000
001FC000
003FE000
00FFF000
01F9F800
03F07E00
03E03E00
00000000
00000000
00000000
007F8000
01FFE000
07FFF800
0FFFFC00
1FFFFE00
3FE1FE00
3F807F00
7F003F00
7F003F80
7E003F80
FE003F80
FE000000
FE000000
FE000000
FE000000
FE000000
FE000000
FE000000
FE000000
FE000000
FE000000
FE000000
FE000000
FE003F80
7E003F80
7E003F80
7F003F80
3F007F00
3FC0FF00
1FFFFE00
1FFFFC00
0FFFFC00
03FFF000
00FFC000
00080000
ENDCHAR
STARTCHAR 0109
ENCODING 265
SWIDTH 604 0
DWIDTH 29 0
BBX 23 38 3 -1
BITMAP
003C00
007E00
00FF00
01FFC0
03E7E0
07C3F0
0F81F8
000000
000000
000000
000000
00FF00
03FFC0
0FFFF0
1FFFF8
3FFFF8
3FC7FC
7F01FC
7F00FE
7E00FE
FE00FE
FE0000
FE0000
FE0000
FE0000
FE0000
FE0000
FE0000
FE00FE
7E00FE
7F00FE
3F81FC
3FFFFC
1FFFF8
0FFFF0
07FFE0
01FF80
001800
ENDCHAR
STARTCHAR 010A
ENCODING 266
SWIDTH 604 0
DWIDTH 29 0
BBX 25 45 2 -1
BITMAP
000F0000
001F8000
001F8000
001FC000
001F8000
001F8000
000F0000
00000000
00000000
00000000
007F8000
01FFE000
07FFF800
0FFFFC00
1FFFFE00
3FE1FE00
3F807F00
7F003F00
7F003F80
7E003F80
FE003F80
FE000000
FE000000
FE000000
FE000000
FE000000
FE000000
FE000000
FE000000
FE000000
FE000000
FE000000
FE000000
FE003F80
7E003F80
7E003F80
7F003F80
3F007F00
3FC0FF00
1FFFFE00
1FFFFC00
0FFFFC00
03FFF000
00FFC000
00080000
ENDCHAR
STARTCHAR 010B
ENCODING 267
SWIDTH 604 0
DWIDTH 29 0
BBX 23 38 3 -1
BITMAP
003C00
007E00
007E00
00FE00
007E00
007E00
003C00
000000
000000
000000
000000
00FF00
03FFC0
0FFFF0
1FFFF8
3FFFF8
3FC7FC
7F01FC
7F00FE
7E00FE
FE00FE
FE0000
FE0000
FE0000
FE0000
FE0000
FE0000
FE0000
FE00FE
7E00FE
7F00FE
3F81FC
3FFFFC
1FFFF8
0FFFF0
07FFE0
01FF80
001800
ENDCHAR
STARTCHAR 010C
ENCODING 268
SWIDTH 604 0
DWIDTH 29 0
BBX 25 45 2 -1
BITMAP
07E07E00
03F0FC00
01FDF800
007FF000
003FE000
001FC000
000F0000
00000000
00000000
00000000
007F8000
01FFE000
07FFF800
0FFFFC00
1FFFFE00
3FE1FE00
3F807F00
7F003F00
7F003F80
7E003F80
FE003F80
FE000000
FE000000
FE000000
FE000000
FE000000
FE000000
FE000000
FE000000
FE000000
FE000000
FE000000
FE000000
FE003F80
7E003F80
7E003F80
7F003F80
3F007F00
3FC0FF00
1FFFFE00
1FFFFC00
0FFFFC00
03FFF000
00FFC000
00080000
ENDCHAR
STARTCHAR 010D
ENCODING 269
SWIDTH 604 0
DWIDTH 29 0
BBX 23 38 3 -1
BITMAP
1F80F8
0FC3F8
07E7E0
03FFC0
01FF80
00FF00
007E00
000000
000000
000000
000000
00FF00
03FFC0
0FFFF0
1FFFF8
3FFFF8
3FC7FC
7F01FC
7F00FE
7E00FE
FE00FE
FE0000
FE0000
FE0000
FE0000
FE0000
FE0000
FE0000
FE00FE
7E00FE
7F00FE
3F81FC
3FFFFC
1FFFF8
0FFFF0
07FFE0
01FF80
001800
ENDCHAR
STARTCHAR 010E
ENCODING 270
SWIDTH 604 0
DWIDTH 29 0
BBX 24 44 3 0
BITMAP
7E0FE0
3F1F80
1FBF00
0FFE00
07FC00
03F800
00F000
000000
000000
000000
FFF800
FFFF00
FFFF80
FFFFE0
FFFFF0
FE1FF0
FE07F8
FE03FC
FE01FC
FE00FE
FE00FE
FE00FE
FE007E
FE007E
FE007E
FE007F
FE007F
FE007F
FE007F
FE007E
FE007E
FE007E
FE00FE
FE00FE
FE00FE
FE01FC
FE03FC
FE07F8
FE1FF0
FFFFF0
FFFFE0
FFFF80
FFFF00
FFF800
ENDCHAR
STARTCHAR 010F
ENCODING 271
SWIDTH 604 0
DWIDTH 29 0
BBX 32 38 1 0
BITMAP
0000001F
0000001F
0000FE1F
0000FE1F
0000FE1F
0000FE1F
0000FE1F
0000FE1F
0000FE1E
0000FE3E
0000FE3E
0000FE7C
01F8FE78
07FEFE38
1FFFFE00
1FFFFE00
3FFFFE00
7FC7FE00
7F01FE00
7F00FE00
FE00FE00
FE00FE00
FE00FE00
FE00FE00
FE00FE00
FE00FE00
FE00FE00
FE00FE00
FE00FE00
FE00FE00
7F00FE00
7F01FE00
7FC7FE00
3FFFFE00
1FFFFE00
0FFFFE00
07FEFE00
01F87E00
ENDCHAR
STARTCHAR 0110
ENCODING 272
SWIDTH 604 0
DWIDTH 29 0
BBX 28 34 -1 0
BITMAP
0FFF8000
0FFFF000
0FFFFC00
0FFFFE00
0FFFFF00
0FE1FF80
0FE03FC0
0FE01FC0
0FE00FE0
0FE00FE0
0FE007E0
0FE007F0
0FE007F0
0FE007F0
0FE007F0
FFFF07F0
FFFF07F0
FFFF07F0
FFFF07F0
0FE007F0
0FE007F0
0FE007F0
0FE007F0
0FE007E0
0FE00FE0
0FE00FE0
0FE01FC0
0FE03FC0
0FE1FF80
0FFFFF00
0FFFFE00
0FFFFC00
0FFFF000
0FFFC000
ENDCHAR
STARTCHAR 0111
ENCODING 273
SWIDTH 604 0
DWIDTH 29 0
BBX 27 36 2 0
BITMAP
0000FE00
0000FE00
0000FE00
001FFFE0
001FFFE0
001FFFE0
001FFFE0
0000FE00
0000FE00
0000FE00
01F8FE00
07FEFE00
1FFFFE00
1FFFFE00
3FFFFE00
7FC7FE00
7F01FE00
7F00FE00
FE00FE00
FE00FE00
FE00FE00
FE00FE00
FE00FE00
FE00FE00
FE00FE00
FE00FE00
FE00FE00
FE00FE00
7F00FE00
7F01FE00
7FC7FE00
3FFFFE00
1FFFFE00
0FFFFE00
07FEFE00
01F87E00
ENDCHAR
STARTCHAR 0112
ENCODING 274
SWIDTH 583 0
DWIDTH 28 0
BBX 23 42 3 0
BITMAP
1FFFF0
1FFFF0
1FFFF0
1FFFF0
000000
000000
000000
000000
FFFFFE
FFFFFE
FFFFFE
FFFFFE
FFFFFE
FE0000
FE0000
FE0000
FE0000
FE0000
FE0000
FE0000
FE0000
FE0000
FFFFF8
FFFFF8
FFFFF8
FFFFF8
FFFFF8
FE0000
FE0000
FE0000
FE0000
FE0000
FE0000
FE0000
FE0000
FE0000
FE0000
FFFFFE
FFFFFE
FFFFFE
FFFFFE
FFFFFE
ENDCHAR
STARTCHAR 0113
ENCODING 275
SWIDTH 604 0
DWIDTH 29 0
BBX 24 34 3 0
BITMAP
1FFFF0
1FFFF0
1FFFF0
1FFFF0
000000
000000
000000
000000
007F00
03FFE0
07FFF0
0FFFF8
1FFFFC
3FE3FC
7F80FE
7F007E
7E007F
FE007F
FFFFFF
FFFFFF
FFFFFF
FFFFFF
FFFFFF
FE0000
FE0000
7F0000
7F0018
7F803C
3FF1FE
1FFFFE
0FFFFC
07FFF8
01FFF0
007F80
ENDCHAR
STARTCHAR 0114
ENCODING 276
SWIDTH 583 0
DWIDTH 28 0
BBX 23 44 3 0
BITMAP
1F01F0
1F01F0
1F83F0
0FFFE0
07FFC0
03FF80
00FE00
000000
000000
000000
FFFFFE
FFFFFE
FFFFFE
FFFFFE
FFFFFE
FE0000
FE0000
FE0000
FE0000
FE0000
FE0000
FE0000
FE0000
FE0000
FFFFF8
FFFFF8
FFFFF8
FFFFF8
FFFFF8
FE0000
FE0000
FE0000
FE0000
FE0000
FE0000
FE0000
FE0000
FE0000
FE0000
FFFFFE
FFFFFE
FFFFFE
FFFFFE
FFFFFE
ENDCHAR
STARTCHAR 0115
ENCODING 277
SWIDTH 604 0
DWIDTH 29 0
BBX 25 36 2 0
BITMAP
0F81F000
0FC3F000
07FFE000
07FFE000
03FFC000
00FF0000
00000000
00000000
00000000
00000000
007F8000
01FFE000
07FFF800
0FFFFC00
1FFFFC00
3FE1FE00
3F807E00
7F007F00
7F003F00
7F003F00
7FFFFF00
7FFFFF00
FFFFFF80
FFFFFF80
7FFFFF80
7E000000
7F000000
7F000000
7F800800
3FC01C00
3FF0FE00
1FFFFF00
0FFFFE00
07FFFC00
01FFF000
003FC000
ENDCHAR
STARTCHAR 0116
ENCODING 278
SWIDTH 583 0
DWIDTH 28 0
BBX 23 44 3 0
BITMAP
003C00
007E00
007E00
00FE00
007E00
007E00
003C00
000000
000000
000000
FFFFFE
FFFFFE
FFFFFE
FFFFFE
FFFFFE
FE0000
FE0000
FE0000
FE0000
FE0000
FE0000
FE0000
FE0000
FE0000
FFFFF8
FFFFF8
FFFFF8
FFFFF8
FFFFF8
FE0000
FE0000
FE0000
FE0000
FE0000
FE0000
FE0000
FE0000
FE0000
FE0000
FFFFFE
FFFFFE
FFFFFE
FFFFFE
FFFFFE
ENDCHAR
STARTCHAR 0117
ENCODING 279
SWIDTH 604 0
DWIDTH 29 0
BBX 24 37 3 0
BITMAP
007800
00FC00
00FC00
00FE00
00FC00
00FC00
007800
000000
000000
000000
000000
007F00
03FFE0
07FFF0
0FFFF8
1FFFFC
3FE3FC
7F80FE
7F007E
7E007F
FE007F
FFFFFF
FFFFFF
FFFFFF
FFFFFF
FFFFFF
FE0000
FE0000
7F0000
7F0008
7F803C
3FF1FE
1FFFFE
0FFFFC
07FFF8
01FFF0
007F80
ENDCHAR
STARTCHAR 0118
ENCODING 280
SWIDTH 583 0
DWIDTH 28 0
BBX 23 44 3 -10
BITMAP
FFFFFE
FFFFFE
FFFFFE
FFFFFE
FFFFFE
FE0000
FE0000
FE0000
FE0000
FE0000
FE0000
FE0000
FE0000
FE0000
FFFFF8
FFFFF8
FFFFF8
FFFFF8
FFFFF8
FE0000
FE0000
FE0000
FE0000
FE0000
FE0000
FE0000
FE0000
FE0000
FE0000
FFFFFE
FFFFFE
FFFFFE
FFFFFE
FFFFFE
0007E0
000F80
000F00
001F00
001F00
001F00
001FF0
000FF0
000FF8
0003F0
ENDCHAR
STARTCHAR 0119
ENCODING 281
SWIDTH 604 0
DWIDTH 29 0
BBX 24 35 3 -9
BITMAP
007F00
03FFC0
07FFF0
0FFFF8
1FFFFC
3FE3FC
7F80FE
7F007E
7F007E
FE007F
FE007F
FFFFFF
FFFFFF
FFFFFF
FFFFFF
FFFFFF
FE0000
FE0000
7F0000
7F8018
3FC03C
3FFFFE
1FFFFE
0FFFFC
03FFF8
00FFE0
000F80
001F00
003E00
003E00
003E00
003FE0
003FE0
001FE0
0007C0
ENDCHAR
STARTCHAR 011A
ENCODING 282
SWIDTH 583 0
DWIDTH 28 0
BBX 23 44 3 0
BITMAP
1F83F0
0FC7E0
07EFC0
03FF80
01FF00
00FE00
007C00
000000
000000
000000
FFFFFE
FFFFFE
FFFFFE
FFFFFE
FFFFFE
FE0000
FE0000
FE0000
FE0000
FE0000
FE0000
FE0000
FE0000
FE0000
FFFFF8
FFFFF8
FFFFF8
FFFFF8
FFFFF8
FE0000
FE0000
FE0000
FE0000
FE0000
FE0000
FE0000
FE0000
FE0000
FE0000
FFFFFE
FFFFFE
FFFFFE
FFFFFE
FFFFFE
ENDCHAR
STARTCHAR 011B
ENCODING 283
SWIDTH 604 0
DWIDTH 29 0
BBX 25 37 2 0
BITMAP
1F81F800
0FC3F000
07F7E000
03FFC000
00FF0000
007E0000
003C0000
00000000
00000000
00000000
00000000
007F8000
01FFE000
07FFF800
0FFFFC00
1FFFFC00
3FE3FE00
3F807E00
7F007F00
7F003F00
7E003F00
7FFFFF00
7FFFFF00
FFFFFF80
FFFFFF80
7FFFFF80
7E000000
7F000000
7F000000
7F800800
3FC01C00
3FF0FE00
1FFFFF00
0FFFFE00
07FFFC00
01FFF000
003FC000
ENDCHAR
STARTCHAR 011C
ENCODING 284
SWIDTH 604 0
DWIDTH 29 0
BBX 25 45 2 0
BITMAP
001E0000
003F0000
007FC000
00FFE000
01FBF000
03E1F800
07C0FC00
00000000
00000000
00000000
00000000
007F8000
03FFE000
07FFF800
0FFFFC00
1FFFFE00
3FE3FE00
3F807F00
7F007F00
7F003F00
7E003F00
FE000000
FE000000
FE000000
FE000000
FE000000
FE000000
FE0FFF80
FE0FFF80
FE0FFF80
FE0FFF80
FE0FFF80
FE003F80
FE003F80
FE003F80
7E003F80
7F003F80
7F003F80
3F803F80
3FE1FF80
1FFFFF80
0FFFFF00
07FFFC00
03FFF000
007F8000
ENDCHAR
STARTCHAR 011D
ENCODING 285
SWIDTH 604 0
DWIDTH 29 0
BBX 23 47 3 -10
BITMAP
007800
00FC00
01FF00
03FF80
07EFC0
0FC7E0
1F03F0
000000
000000
000000
000000
01FC7E
07FF7E
0FFFFE
1FFFFE
3FFFFE
3FC3FE
7F81FE
7F00FE
FE00FE
FE00FE
FE00FE
FE00FE
FE00FE
FE00FE
FE00FE
FE00FE
FE00FE
FE00FE
7F00FE
7F81FE
3FC3FE
3FFFFE
1FFFFE
0FFFFE
07FEFE
01F8FE
0000FE
0000FE
0800FE
1E01FC
1F87FC
3FFFF8
3FFFF0
1FFFE0
07FFC0
01FE00
ENDCHAR
STARTCHAR 011E
ENCODING 286
SWIDTH 604 0
DWIDTH 29 0
BBX 25 44 2 0
BITMAP
07C0F800
07C0F800
07E1F800
03FFF000
01FFE000
00FFC000
003F0000
00000000
00000000
00000000
007F8000
03FFE000
07FFF800
0FFFFC00
1FFFFE00
3FE3FE00
3F807F00
7F007F00
7F003F00
7E003F00
FE000000
FE000000
FE000000
FE000000
FE000000
FE000000
FE0FFF80
FE0FFF80
FE0FFF80
FE0FFF80
FE0FFF80
FE003F80
FE003F80
FE003F80
7E003F80
7F003F80
7F003F80
3F803F80
3FE1FF80
1FFFFF80
0FFFFF00
07FFFC00
03FFF000
007F8000
ENDCHAR
STARTCHAR 011F
ENCODING 287
SWIDTH 604 0
DWIDTH 29 0
BBX 23 46 3 -10
BITMAP
1F01F0
1F01F0
1F83F0
0FFFE0
07FFC0
03FF80
00FE00
000000
000000
000000
01FC7E
07FF7E
0FFFFE
1FFFFE
3FFFFE
3FC3FE
7F81FE
7F00FE
FE00FE
FE00FE
FE00FE
FE00FE
FE00FE
FE00FE
FE00FE
FE00FE
FE00FE
FE00FE
7F00FE
7F81FE
3FC3FE
3FFFFE
1FFFFE
0FFFFE
07FEFE
01F8FE
0000FE
0000FE
0801FE
1C01FC
3F8FFC
3FFFF8
3FFFF0
1FFFE0
07FFC0
01FE00
ENDCHAR
STARTCHAR 0120
ENCODING 288
SWIDTH 604 0
DWIDTH 29 0
BBX 25 45 2 0
BITMAP
001E0000
003F0000
003F0000
003F8000
003F0000
003F0000
001E0000
00000000
00000000
00000000
00000000
007F8000
03FFE000
07FFF800
0FFFFC00
1FFFFE00
3FE3FE00
3F807F00
7F007F00
7F003F00
7E003F00
FE000000
FE000000
FE000000
FE000000
FE000000
FE000000
FE0FFF80
FE0FFF80
FE0FFF80
FE0FFF80
FE0FFF80
FE003F80
FE003F80
FE003F80
7E003F80
7F003F80
7F003F80
3F803F80
3FE1FF80
1FFFFF80
0FFFFF00
07FFFC00
03FFF000
007F8000
ENDCHAR
STARTCHAR 0121
ENCODING 289
SWIDTH 604 0
DWIDTH 29 0
BBX 23 47 3 -10
BITMAP
007800
00FC00
00FC00
00FE00
00FC00
00FC00
007800
000000
000000
000000
000000
01FC7E
07FF7E
0FFFFE
1FFFFE
3FFFFE
3FC3FE
7F81FE
7F00FE
FE00FE
FE00FE
FE00FE
FE00FE
FE00FE
FE00FE
FE00FE
FE00FE
FE00FE
FE00FE
7F00FE
7F81FE
3FC3FE
3FFFFE
1FFFFE
0FFFFE
07FEFE
01F8FE
0000FE
0000FE
0800FE
1C01FC
3F87FC
3FFFF8
3FFFF0
1FFFE0
07FFC0
01FE00
ENDCHAR
STARTCHAR 0122
ENCODING 290
SWIDTH 604 0
DWIDTH 29 0
BBX 25 45 2 -11
BITMAP
007F8000
03FFE000
07FFF800
0FFFFC00
1FFFFE00
3FE3FE00
3F807F00
7F007F00
7F003F00
7E003F00
FE000000
FE000000
FE000000
FE000000
FE000000
FE000000
FE07FF80
FE07FF80
FE07FF80
FE07FF80
FE07FF80
FE003F80
FE003F80
FE003F80
7E003F80
7F003F80
7F003F80
3F803F80
3FE1FF80
1FFFFF80
0FFFFF00
07FFFC00
03FFF000
007F8000
00000000
000F0000
000F0000
000F0000
000F0000
000F0000
001E0000
001E0000
003E0000
001C0000
00080000
ENDCHAR
STARTCHAR 0123
ENCODING 291
SWIDTH 604 0
DWIDTH 29 0
BBX 23 50 3 -10
BITMAP
001C00
001E00
003E00
003E00
007C00
007C00
007C00
007C00
007C00
007C00
007C00
000000
000000
000000
01FC7E
07FF7E
0FFFFE
1FFFFE
3FFFFE
3FC3FE
7F81FE
7F00FE
FE00FE
FE00FE
FE00FE
FE00FE
FE00FE
FE00FE
FE00FE
FE00FE
FE00FE
FE00FE
7F00FE
7F81FE
3FC3FE
3FFFFE
1FFFFE
0FFFFE
07FEFE
01F8FE
0000FE
0000FE
0800FE
1C01FC
3F87FC
3FFFF8
3FFFF0
1FFFE0
07FFC0
01FE00
ENDCHAR
STARTCHAR 0124
ENCODING 292
SWIDTH 604 0
DWIDTH 29 0
BBX 23 44 3 0
BITMAP
007C00
00FE00
01FF00
07FF80
0FCFC0
1F83F0
1F01F0
000000
000000
000000
FE00FE
FE00FE
FE00FE
FE00FE
FE00FE
FE00FE
FE00FE
FE00FE
FE00FE
FE00FE
FE00FE
FE00FE
FE00FE
FE00FE
FFFFFE
FFFFFE
FFFFFE
FFFFFE
FFFFFE
FE00FE
FE00FE
FE00FE
FE00FE
FE00FE
FE00FE
FE00FE
FE00FE
FE00FE
FE00FE
FE00FE
FE00FE
FE00FE
FE00FE
FE00FE
ENDCHAR
STARTCHAR 0125
ENCODING 293
SWIDTH 604 0
DWIDTH 29 0
BBX 28 47 -2 0
BITMAP
01E00000
03F00000
0FF80000
1FFC0000
3F7E0000
7E3F0000
FC0F8000
00000000
00000000
00000000
00000000
07F00000
07F00000
07F00000
07F00000
07F00000
07F00000
07F00000
07F00000
07F00000
07F00000
07F0FC00
07F3FF00
07F7FFC0
07FFFFC0
07FFFFE0
07FE3FE0
07F80FF0
07F007F0
07F007F0
07F007F0
07F007F0
07F007F0
07F007F0
07F007F0
07F007F0
07F007F0
07F007F0
07F007F0
07F007F0
07F007F0
07F007F0
07F007F0
07F007F0
07F007F0
07F007F0
07F007F0
ENDCHAR
STARTCHAR 0126
ENCODING 294
SWIDTH 625 0
DWIDTH 30 0
BBX 29 34 1 0
BITMAP
7F007F00
7F007F00
7F007F00
7F007F00
7F007F00
FFFFFFF8
FFFFFFF8
FFFFFFF8
FFFFFFF8
7F007F00
7F007F00
7F007F00
7F007F00
7F007F00
7FFFFF00
7FFFFF00
7FFFFF00
7FFFFF00
7FFFFF00
7F007F00
7F007F00
7F007F00
7F007F00
7F007F00
7F007F00
7F007F00
7F007F00
7F007F00
7F007F00
7F007F00
7F007F00
7F007F00
7F007F00
7F007F00
ENDCHAR
STARTCHAR 0127
ENCODING 295
SWIDTH 604 0
DWIDTH 29 0
BBX 27 36 0 0
BITMAP
0FE00000
0FE00000
0FE00000
FFFF0000
FFFF0000
FFFF0000
FFFF0000
0FE00000
0FE00000
0FE00000
0FE1F800
0FE7FE00
0FEFFF00
0FFFFF80
0FFFFF80
0FFC7FC0
0FF01FC0
0FE01FC0
0FE00FC0
0FE00FC0
0FE00FE0
0FE00FE0
0FE00FE0
0FE00FE0
0FE00FE0
0FE00FE0
0FE00FE0
0FE00FE0
0FE00FE0
0FE00FE0
0FE00FE0
0FE00FE0
0FE00FE0
0FE00FE0
0FE00FE0
0FE00FE0
ENDCHAR
STARTCHAR 0128
ENCODING 296
SWIDTH 625 0
DWIDTH 30 0
BBX 20 45 5 0
BITMAP
020100
1F83C0
3FF7C0
3FFFC0
7FFF80
787F00
301E00
000000
000000
000000
000000
FFFFF0
FFFFF0
FFFFF0
FFFFF0
FFFFF0
03F800
03F800
03F800
03F800
03F800
03F800
03F800
03F800
03F800
03F800
03F800
03F800
03F800
03F800
03F800
03F800
03F800
03F800
03F800
03F800
03F800
03F800
03F800
03F800
FFFFF0
FFFFF0
FFFFF0
FFFFF0
FFFFF0
ENDCHAR
STARTCHAR 0129
ENCODING 297
SWIDTH 604 0
DWIDTH 29 0
BBX 21 37 5 0
BITMAP
010080
07E0E0
0FFBE0
1FFFE0
1FFFC0
3C3F80
1C0F00
000000
000000
000000
000000
FFFC00
FFFC00
FFFC00
FFFC00
FFFC00
01FC00
01FC00
01FC00
01FC00
01FC00
01FC00
01FC00
01FC00
01FC00
01FC00
01FC00
01FC00
01FC00
01FC00
01FC00
01FC00
FFFFF8
FFFFF8
FFFFF8
FFFFF8
FFFFF8
ENDCHAR
STARTCHAR 012A
ENCODING 298
SWIDTH 625 0
DWIDTH 30 0
BBX 20 42 5 0
BITMAP
7FFFC0
7FFFC0
7FFFC0
7FFFC0
000000
000000
000000
000000
FFFFF0
FFFFF0
FFFFF0
FFFFF0
FFFFF0
03F800
03F800
03F800
03F800
03F800
03F800
03F800
03F800
03F800
03F800
03F800
03F800
03F800
03F800
03F800
03F800
03F800
03F800
03F800
03F800
03F800
03F800
03F800
03F800
FFFFF0
FFFFF0
FFFFF0
FFFFF0
FFFFF0
ENDCHAR
STARTCHAR 012B
ENCODING 299
SWIDTH 604 0
DWIDTH 29 0
BBX 21 34 5 0
BITMAP
1FFFF0
1FFFF0
1FFFF0
1FFFF0
000000
000000
000000
000000
FFFC00
FFFC00
FFFC00
FFFC00
FFFC00
01FC00
01FC00
01FC00
01FC00
01FC00
01FC00
01FC00
01FC00
01FC00
01FC00
01FC00
01FC00
01FC00
01FC00
01FC00
01FC00
FFFFF8
FFFFF8
FFFFF8
FFFFF8
FFFFF8
ENDCHAR
STARTCHAR 012C
ENCODING 300
SWIDTH 625 0
DWIDTH 30 0
BBX 20 44 5 0
BITMAP
7C07C0
7C07C0
7E0FC0
3FFF80
1FFF00
0FFE00
03F800
000000
000000
000000
FFFFF0
FFFFF0
FFFFF0
FFFFF0
FFFFF0
03F800
03F800
03F800
03F800
03F800
03F800
03F800
03F800
03F800
03F800
03F800
03F800
03F800
03F800
03F800
03F800
03F800
03F800
03F800
03F800
03F800
03F800
03F800
03F800
FFFFF0
FFFFF0
FFFFF0
FFFFF0
FFFFF0
ENDCHAR
STARTCHAR 012D
ENCODING 301
SWIDTH 604 0
DWIDTH 29 0
BBX 21 36 5 0
BITMAP
1F03E0
1F03E0
1F87E0
0FFFC0
07FF80
03FF00
00FC00
000000
000000
000000
FFFC00
FFFC00
FFFC00
FFFC00
FFFC00
01FC00
01FC00
01FC00
01FC00
01FC00
01FC00
01FC00
01FC00
01FC00
01FC00
01FC00
01FC00
01FC00
01FC00
01FC00
01FC00
FFFFF8
FFFFF8
FFFFF8
FFFFF8
FFFFF8
ENDCHAR
STARTCHAR 012E
ENCODING 302
SWIDTH 625 0
DWIDTH 30 0
BBX 20 44 5 -10
BITMAP
FFFFF0
FFFFF0
FFFFF0
FFFFF0
FFFFF0
03F800
03F800
03F800
03F800
03F800
03F800
03F800
03F800
03F800
03F800
03F800
03F800
03F800
03F800
03F800
03F800
03F800
03F800
03F800
03F800
03F800
03F800
03F800
03F800
FFFFF0
FFFFF0
FFFFF0
FFFFF0
FFFFF0
01F800
03E000
03C000
07C000
07C000
07C000
07FC00
03FC00
03FC00
00F800
ENDCHAR
STARTCHAR 012F
ENCODING 303
SWIDTH 604 0
DWIDTH 29 0
BBX 21 46 5 -10
BITMAP
00F000
01F800
03FC00
03FC00
03FC00
01F800
00F000
000000
000000
000000
FFFC00
FFFC00
FFFC00
FFFC00
FFFC00
01FC00
01FC00
01FC00
01FC00
01FC00
01FC00
01FC00
01FC00
01FC00
01FC00
01FC00
01FC00
01FC00
01FC00
01FC00
01FC00
FFFFF8
FFFFF8
FFFFF8
FFFFF8
FFFFF8
03F000
07C000
078000
0F8000
0F8000
0F8000
0FF800
07FC00
07FC00
01F800
ENDCHAR
STARTCHAR 0130
ENCODING 304
SWIDTH 625 0
DWIDTH 30 0
BBX 20 44 5 0
BITMAP
00F000
01F800
01F800
03F800
01F800
01F800
00F000
000000
000000
000000
FFFFF0
FFFFF0
FFFFF0
FFFFF0
FFFFF0
03F800
03F800
03F800
03F800
03F800
03F800
03F800
03F800
03F800
03F800
03F800
03F800
03F800
03F800
03F800
03F800
03F800
03F800
03F800
03F800
03F800
03F800
03F800
03F800
FFFFF0
FFFFF0
FFFFF0
FFFFF0
FFFFF0
ENDCHAR
STARTCHAR 0131
ENCODING 305
SWIDTH 604 0
DWIDTH 29 0
BBX 21 26 5 0
BITMAP
FFFC00
FFFC00
FFFC00
FFFC00
FFFC00
01FC00
01FC00
01FC00
01FC00
01FC00
01FC00
01FC00
01FC00
01FC00
01FC00
01FC00
01FC00
01FC00
01FC00
01FC00
01FC00
FFFFF8
FFFFF8
FFFFF8
FFFFF8
FFFFF8
ENDCHAR
STARTCHAR 0132
ENCODING 306
SWIDTH 604 0
DWIDTH 29 0
BBX 23 34 3 0
BITMAP
F8003E
F8003E
F8003E
F8003E
F8003E
F8003E
F8003E
F8003E
F8003E
F8003E
F8003E
F8003E
F8003E
F8003E
F8003E
F8003E
F8003E
F8003E
F8003E
F8003E
F8003E
F8003E
F8003E
F8003E
F8003E
F8003E
F9F03E
F9F03E
F9F03E
F8F87E
F8FFFC
F87FF8
F83FF0
F80FC0
ENDCHAR
STARTCHAR 0133
ENCODING 307
SWIDTH 604 0
DWIDTH 29 0
BBX 24 45 2 -11
BITMAP
03800E
07C01F
07C01F
07C01F
03800E
000000
000000
000000
FFC3FF
FFC3FF
FFC3FF
FFC3FF
07C01F
07C01F
07C01F
07C01F
07C01F
07C01F
07C01F
07C01F
07C01F
07C01F
07C01F
07C01F
07C01F
07C01F
07C01F
07C01F
07C01F
07C01F
FFFE1F
FFFE1F
FFFE1F
FFFE1F
00001F
00001F
00001F
00003F
00003E
00007E
007FFC
007FFC
007FF8
007FE0
000E00
ENDCHAR
STARTCHAR 0134
ENCODING 308
SWIDTH 604 0
DWIDTH 29 0
BBX 29 44 3 0
BITMAP
00003E00
0000FF00
0001FF80
0003FFE0
0007C3F0
000F81F8
00000000
00000000
00000000
00000000
0000FE00
0000FE00
0000FE00
0000FE00
0000FE00
0000FE00
0000FE00
0000FE00
0000FE00
0000FE00
0000FE00
0000FE00
0000FE00
0000FE00
0000FE00
0000FE00
0000FE00
0000FE00
0000FE00
0000FE00
0000FE00
0000FE00
0000FE00
0000FE00
FE00FE00
FE00FE00
FE00FE00
7F01FC00
7FC7FC00
7FFFF800
3FFFF000
1FFFE000
07FFC000
01FE0000
ENDCHAR
STARTCHAR 0135
ENCODING 309
SWIDTH 604 0
DWIDTH 29 0
BBX 20 47 6 -11
BITMAP
007C00
00FE00
01FF00
03EF80
0FC7E0
1F83F0
000000
000000
000000
000000
7FFE00
7FFE00
7FFE00
7FFE00
7FFE00
00FE00
00FE00
00FE00
00FE00
00FE00
00FE00
00FE00
00FE00
00FE00
00FE00
00FE00
00FE00
00FE00
00FE00
00FE00
00FE00
00FE00
00FE00
00FE00
00FE00
00FE00
00FE00
00FE00
00FC00
01FC00
03FC00
FFFC00
FFF800
FFF000
FFE000
FFC000
300000
ENDCHAR
STARTCHAR 0136
ENCODING 310
SWIDTH 583 0
DWIDTH 28 0
BBX 25 46 3 -12
BITMAP
FE007F80
FE00FF00
FE00FE00
FE01FE00
FE03FC00
FE03F800
FE07F000
FE0FF000
FE1FE000
FE1FC000
FE3F8000
FE7F8000
FE7F0000
FEFE0000
FFFC0000
FFFC0000
FFFE0000
FFFE0000
FFFF0000
FFFF8000
FFFF8000
FF9FC000
FF1FE000
FE0FE000
FE07F000
FE07F000
FE03F800
FE03FC00
FE01FC00
FE01FE00
FE00FF00
FE007F00
FE007F80
FE003F80
00000000
00000000
00780000
00780000
00780000
00780000
00780000
00F00000
00F00000
00F00000
00E00000
00400000
ENDCHAR
STARTCHAR 0137
ENCODING 311
SWIDTH 604 0
DWIDTH 29 0
BBX 24 48 3 -12
BITMAP
FE0000
FE0000
FE0000
FE0000
FE0000
FE0000
FE0000
FE0000
FE0000
FE0000
FE01FE
FE03FC
FE07F8
FE0FF0
FE0FF0
FE1FE0
FE3FC0
FE7F80
FEFF00
FFFE00
FFFC00
FFFC00
FFFE00
FFFF00
FFFF80
FFBF80
FF3FC0
FE1FE0
FE0FE0
FE0FF0
FE07F8
FE03FC
FE03FC
FE01FE
FE00FF
FE00FF
000000
000000
007800
007800
007800
007800
007800
00F000
00F000
01F000
01E000
004000
ENDCHAR
STARTCHAR 0138
ENCODING 312
SWIDTH 604 0
DWIDTH 29 0
BBX 24 26 4 0
BITMAP
FE00FF
FE01FE
FE03FC
FE07F8
FE0FF0
FE1FF0
FE1FE0
FE3FC0
FE7F80
FEFF00
FFFE00
FFFF00
FFFF00
FFFF80
FFFF80
FFFFC0
FFDFE0
FF1FE0
FE0FF0
FE07F8
FE07F8
FE03FC
FE03FC
FE01FE
FE01FF
FE00FF
ENDCHAR
STARTCHAR 0139
ENCODING 313
SWIDTH 604 0
DWIDTH 29 0
BBX 23 43 4 0
BITMAP
07F000
0FE000
1FC000
1F8000
3F0000
3E0000
7C0000
000000
000000
FE0000
FE0000
FE0000
FE0000
FE0000
FE0000
FE0000
FE0000
FE0000
FE0000
FE0000
FE0000
FE0000
FE0000
FE0000
FE0000
FE0000
FE0000
FE0000
FE0000
FE0000
FE0000
FE0000
FE0000
FE0000
FE0000
FE0000
FE0000
FE0000
FFFFFE
FFFFFE
FFFFFE
FFFFFE
FFFFFE
ENDCHAR
STARTCHAR 013A
ENCODING 314
SWIDTH 604 0
DWIDTH 29 0
BBX 21 45 5 0
BITMAP
000FE0
001FC0
001F80
003F00
003E00
007C00
00F800
000000
000000
FFFC00
FFFC00
FFFC00
FFFC00
FFFC00
01FC00
01FC00
01FC00
01FC00
01FC00
01FC00
01FC00
01FC00
01FC00
01FC00
01FC00
01FC00
01FC00
01FC00
01FC00
01FC00
01FC00
01FC00
01FC00
01FC00
01FC00
01FC00
01FC00
01FC00
01FC00
01FC00
FFFFF8
FFFFF8
FFFFF8
FFFFF8
FFFFF8
ENDCHAR
STARTCHAR 013B
ENCODING 315
SWIDTH 604 0
DWIDTH 29 0
BBX 23 45 4 -11
BITMAP
FE0000
FE0000
FE0000
FE0000
FE0000
FE0000
FE0000
FE0000
FE0000
FE0000
FE0000
FE0000
FE0000
FE0000
FE0000
FE0000
FE0000
FE0000
FE0000
FE0000
FE0000
FE0000
FE0000
FE0000
FE0000
FE0000
FE0000
FE0000
FE0000
FFFFFE
FFFFFE
FFFFFE
FFFFFE
FFFFFE
000000
007800
007800
007800
007800
007800
007800
00F000
00F000
01E000
00E000
ENDCHAR
STARTCHAR 013C
ENCODING 316
SWIDTH 604 0
DWIDTH 29 0
BBX 21 47 5 -11
BITMAP
FFFC00
FFFC00
FFFC00
FFFC00
FFFC00
01FC00
01FC00
01FC00
01FC00
01FC00
01FC00
01FC00
01FC00
01FC00
01FC00
01FC00
01FC00
01FC00
01FC00
01FC00
01FC00
01FC00
01FC00
01FC00
01FC00
01FC00
01FC00
01FC00
01FC00
01FC00
01FC00
FFFFF8
FFFFF8
FFFFF8
FFFFF8
FFFFF8
000000
007800
007800
007800
007800
007800
007800
00F000
00F000
01E000
00E000
ENDCHAR
STARTCHAR 013D
ENCODING 317
SWIDTH 604 0
DWIDTH 29 0
BBX 23 34 4 0
BITMAP
FE00F8
FE00F8
FE00F8
FE00F8
FE00F8
FE00F8
FE00F8
FE00F0
FE01F0
FE01F0
FE03E0
FE03C0
FE00C0
FE0000
FE0000
FE0000
FE0000
FE0000
FE0000
FE0000
FE0000
FE0000
FE0000
FE0000
FE0000
FE0000
FE0000
FE0000
FE0000
FFFFFE
FFFFFE
FFFFFE
FFFFFE
FFFFFE
ENDCHAR
STARTCHAR 013E
ENCODING 318
SWIDTH 604 0
DWIDTH 29 0
BBX 25 36 3 0
BITMAP
FFFC0F80
FFFC0F80
FFFC0F80
FFFC0F80
FFFC0F80
01FC0F80
01FC0F80
01FC0F00
01FC1F00
01FC1E00
01FC3E00
01FC3C00
01FC0800
01FC0000
01FC0000
01FC0000
01FC0000
01FC0000
01FC0000
01FC0000
01FC0000
01FC0000
01FC0000
01FC0000
01FC0000
01FC0000
01FC0000
01FC0000
01FC0000
01FC0000
01FC0000
FFFFF800
FFFFF800
FFFFF800
FFFFF800
FFFFF800
ENDCHAR
STARTCHAR 013F
ENCODING 319
SWIDTH 604 0
DWIDTH 29 0
BBX 23 34 4 0
BITMAP
FE0000
FE0000
FE0000
FE0000
FE0000
FE0000
FE0000
FE0000
FE0000
FE0000
FE0000
FE0F00
FE1F80
FE1F80
FE1FC0
FE1F80
FE1F80
FE0F00
FE0000
FE0000
FE0000
FE0000
FE0000
FE0000
FE0000
FE0000
FE0000
FE0000
FE0000
FFFFFE
FFFFFE
FFFFFE
FFFFFE
FFFFFE
ENDCHAR
STARTCHAR 0140
ENCODING 320
SWIDTH 583 0
DWIDTH 28 0
BBX 23 36 3 0
BITMAP
FFFC00
FFFC00
FFFC00
FFFC00
FFFC00
01FC00
01FC00
01FC00
01FC00
01FC00
01FC00
01FC00
01FC00
01FC3C
01FC7E
01FC7E
01FCFE
01FC7E
01FC7E
01FC3C
01FC00
01FC00
01FC00
01FC00
01FC00
01FC00
01FC00
01FC00
01FC00
01FC00
01FC00
FFFFF8
FFFFF8
FFFFF8
FFFFF8
FFFFF8
ENDCHAR
STARTCHAR 0141
ENCODING 321
SWIDTH 604 0
DWIDTH 29 0
BBX 26 34 1 0
BITMAP
1FC00000
1FC00000
1FC00000
1FC00000
1FC00000
1FC00000
1FC00000
1FC00000
1FC00000
1FC00000
1FC00000
1FC00000
1FCE0000
1FFE0000
1FFE0000
3FFE0000
FFFC0000
FFE00000
FFC00000
FFC00000
9FC00000
1FC00000
1FC00000
1FC00000
1FC00000
1FC00000
1FC00000
1FC00000
1FC00000
1FFFFFC0
1FFFFFC0
1FFFFFC0
1FFFFFC0
1FFFFFC0
ENDCHAR
STARTCHAR 0142
ENCODING 322
SWIDTH 583 0
DWIDTH 28 0
BBX 21 36 5 0
BITMAP
FFFC00
FFFC00
FFFC00
FFFC00
FFFC00
01FC00
01FC00
01FC00
01FC00
01FC00
01FC70
01FDF0
01FFF0
01FFF0
01FFE0
03FF80
0FFC00
3FFC00
FFFC00
FFFC00
F9FC00
E1FC00
81FC00
01FC00
01FC00
01FC00
01FC00
01FC00
01FC00
01FC00
01FC00
FFFFF8
FFFFF8
FFFFF8
FFFFF8
FFFFF8
ENDCHAR
STARTCHAR 0143
ENCODING 323
SWIDTH 604 0
DWIDTH 29 0
BBX 23 43 3 0
BITMAP
0007F0
000FE0
001FC0
001F80
003F00
003E00
007C00
000000
000000
FE00FE
FE00FE
FF00FE
FF00FE
FF00FE
FF80FE
FF80FE
FFC0FE
FFC0FE
FFE0FE
FFE0FE
FFF0FE
FFF0FE
FFF0FE
FEF8FE
FEF8FE
FEFCFE
FE7CFE
FE7EFE
FE3EFE
FE3EFE
FE1FFE
FE1FFE
FE1FFE
FE0FFE
FE0FFE
FE07FE
FE07FE
FE03FE
FE03FE
FE01FE
FE01FE
FE01FE
FE00FE
ENDCHAR
STARTCHAR 0144
ENCODING 324
SWIDTH 583 0
DWIDTH 28 0
BBX 23 36 3 0
BITMAP
000FE0
000FC0
001F80
003F00
003E00
007E00
00FC00
000000
000000
000000
FC1F80
FC7FE0
FDFFF0
FFFFF8
FFFFF8
FF83FC
FE01FC
FE00FC
FE00FC
FE00FC
FE00FE
FE00FE
FE00FE
FE00FE
FE00FE
FE00FE
FE00FE
FE00FE
FE00FE
FE00FE
FE00FE
FE00FE
FE00FE
FE00FE
FE00FE
FE00FE
ENDCHAR
STARTCHAR 0145
ENCODING 325
SWIDTH 604 0
DWIDTH 29 0
BBX 23 45 3 -11
BITMAP
FE00FE
FE00FE
FF00FE
FF00FE
FF00FE
FF80FE
FF80FE
FFC0FE
FFC0FE
FFE0FE
FFE0FE
FFF0FE
FFF0FE
FFF0FE
FEF8FE
FEF8FE
FEFCFE
FE7CFE
FE7EFE
FE3EFE
FE3EFE
FE1FFE
FE1FFE
FE1FFE
FE0FFE
FE0FFE
FE07FE
FE07FE
FE03FE
FE03FE
FE01FE
FE01FE
FE01FE
FE00FE
000000
003C00
003C00
003C00
003C00
003C00
007C00
007800
007800
00F000
007000
ENDCHAR
STARTCHAR 0146
ENCODING 326
SWIDTH 583 0
DWIDTH 28 0
BBX 23 37 3 -11
BITMAP
FC1F80
FC7FE0
FDFFF0
FFFFF8
FFFFF8
FF83FC
FE01FC
FE00FC
FE00FC
FE00FC
FE00FE
FE00FE
FE00FE
FE00FE
FE00FE
FE00FE
FE00FE
FE00FE
FE00FE
FE00FE
FE00FE
FE00FE
FE00FE
FE00FE
FE00FE
FE00FE
000000
007800
007800
007800
007800
007800
007800
00F000
00F000
01E000
006000
ENDCHAR
STARTCHAR 0147
ENCODING 327
SWIDTH 604 0
DWIDTH 29 0
BBX 23 44 3 0
BITMAP
3F83F0
0FC7E0
07EFC0
03FF80
01FF00
00FE00
007800
000000
000000
000000
FE00FE
FE00FE
FF00FE
FF00FE
FF00FE
FF80FE
FF80FE
FFC0FE
FFC0FE
FFE0FE
FFE0FE
FFF0FE
FFF0FE
FFF0FE
FEF8FE
FEF8FE
FEFCFE
FE7CFE
FE7EFE
FE3EFE
FE3EFE
FE1FFE
FE1FFE
FE1FFE
FE0FFE
FE0FFE
FE07FE
FE07FE
FE03FE
FE03FE
FE01FE
FE01FE
FE01FE
FE00FE
ENDCHAR
STARTCHAR 0148
ENCODING 328
SWIDTH 583 0
DWIDTH 28 0
BBX 23 37 3 0
BITMAP
3E03F0
1F87E0
0FCFC0
07FF80
03FF00
01FE00
00F800
000000
000000
000000
000000
FC1F80
FC7FE0
FDFFF0
FFFFF8
FFFFF8
FF83FC
FE01FC
FE00FC
FE00FC
FE00FC
FE00FE
FE00FE
FE00FE
FE00FE
FE00FE
FE00FE
FE00FE
FE00FE
FE00FE
FE00FE
FE00FE
FE00FE
FE00FE
FE00FE
FE00FE
FE00FE
ENDCHAR
STARTCHAR 0149
ENCODING 329
SWIDTH 604 0
DWIDTH 29 0
BBX 30 37 -3 0
BITMAP
3E000000
3E000000
3E000000
3E000000
3E000000
3E000000
3E000000
3C000000
7C000000
7C000000
F8000000
F1F83F00
31F8FFC0
01FBFFE0
01FFFFF0
01FFFFF0
01FF07F8
01FC03F8
01FC01F8
01FC01F8
01FC01F8
01FC01FC
01FC01FC
01FC01FC
01FC01FC
01FC01FC
01FC01FC
01FC01FC
01FC01FC
01FC01FC
01FC01FC
01FC01FC
01FC01FC
01FC01FC
01FC01FC
01FC01FC
01FC01FC
ENDCHAR
STARTCHAR 014A
ENCODING 330
SWIDTH 583 0
DWIDTH 28 0
BBX 22 45 3 -11
BITMAP
FE01FC
FE01FC
FF01FC
FF01FC
FF81FC
FF81FC
FF81FC
FFC1FC
FFC1FC
FFE1FC
FFE1FC
FFF1FC
FFF1FC
FFF1FC
FFF9FC
FFF9FC
FEFDFC
FEFDFC
FE7FFC
FE7FFC
FE3FFC
FE3FFC
FE3FFC
FE1FFC
FE1FFC
FE0FFC
FE0FFC
FE07FC
FE07FC
FE03FC
FE03FC
FE03FC
FE01FC
FE01FC
0001FC
0001FC
0001FC
0001FC
0003FC
003FF8
003FF8
003FF0
003FE0
003FC0
000400
ENDCHAR
STARTCHAR 014B
ENCODING 331
SWIDTH 604 0
DWIDTH 29 0
BBX 22 37 3 -11
BITMAP
FC1F80
FC7FE0
FDFFF0
FFFFF0
FFFFF8
FF83F8
FE01FC
FE01FC
FE01FC
FE01FC
FE01FC
FE01FC
FE01FC
FE01FC
FE01FC
FE01FC
FE01FC
FE01FC
FE01FC
FE01FC
FE01FC
FE01FC
FE01FC
FE01FC
FE01FC
FE01FC
0001FC
0001FC
0001FC
0001FC
0003FC
003FF8
003FF8
003FF0
003FE0
003FC0
000C00
ENDCHAR
STARTCHAR 014C
ENCODING 332
SWIDTH 604 0
DWIDTH 29 0
BBX 25 43 2 0
BITMAP
0FFFF800
0FFFF800
0FFFF800
0FFFF800
00000000
00000000
00000000
00000000
00000000
007F0000
03FFC000
07FFF000
0FFFF800
1FFFFC00
3FE3FE00
3F80FE00
7F007F00
7E007F00
7E003F00
FE003F80
FE003F80
FE003F80
FE003F80
FE003F80
FE003F80
FE003F80
FE003F80
FE003F80
FE003F80
FE003F80
FE003F80
FE003F80
FE003F80
7E003F00
7E007F00
7F007F00
3F80FE00
3FE3FE00
1FFFFC00
0FFFF800
07FFF000
03FFC000
007F0000
ENDCHAR
STARTCHAR 014D
ENCODING 333
SWIDTH 583 0
DWIDTH 28 0
BBX 24 35 2 -1
BITMAP
0FFFF8
0FFFF8
0FFFF8
0FFFF8
000000
000000
000000
000000
00FF00
03FFC0
0FFFF0
1FFFF8
3FFFFC
3FC3FC
7F81FE
7F00FE
7E007E
FE007F
FE007F
FE007F
FE007F
FE007F
FE007F
FE007F
FE007F
FE007F
7F00FE
7F00FE
3F81FC
3FFFFC
1FFFF8
0FFFF0
07FFE0
01FF80
001800
ENDCHAR
STARTCHAR 014E
ENCODING 334
SWIDTH 604 0
DWIDTH 29 0
BBX 25 45 2 0
BITMAP
0F80F800
0F80F800
0FC1F800
07FFF000
03FFE000
01FFC000
007F0000
00000000
00000000
00000000
00000000
007F0000
03FFC000
07FFF000
0FFFF800
1FFFFC00
3FE3FE00
3F80FE00
7F007F00
7E007F00
7E003F00
FE003F80
FE003F80
FE003F80
FE003F80
FE003F80
FE003F80
FE003F80
FE003F80
FE003F80
FE003F80
FE003F80
FE003F80
FE003F80
FE003F80
7E003F00
7E007F00
7F007F00
3F80FE00
3FE3FE00
1FFFFC00
0FFFF800
07FFF000
03FFC000
007F0000
ENDCHAR
STARTCHAR 014F
ENCODING 335
SWIDTH 583 0
DWIDTH 28 0
BBX 24 37 2 -1
BITMAP
0F81F0
0F81F0
0FC3F0
07FFE0
03FFC0
01FF80
007E00
000000
000000
000000
00FF00
03FFC0
0FFFF0
1FFFF8
3FFFFC
3FC3FC
7F81FE
7F00FE
7E007E
FE007F
FE007F
FE007F
FE007F
FE007F
FE007F
FE007F
FE007F
FE007F
7F00FE
7F00FE
3F81FC
3FFFFC
1FFFF8
0FFFF0
07FFE0
01FF80
001800
ENDCHAR
STARTCHAR 0150
ENCODING 336
SWIDTH 604 0
DWIDTH 29 0
BBX 25 45 2 0
BITMAP
003F1F80
007E3F00
007C7E00
00F8FC00
01F1F000
03E3E000
00000000
00000000
00000000
00000000
00000000
007F0000
03FFC000
07FFF000
0FFFF800
1FFFFC00
3FE3FE00
3F80FE00
7F007F00
7E007F00
7E003F00
FE003F80
FE003F80
FE003F80
FE003F80
FE003F80
FE003F80
FE003F80
FE003F80
FE003F80
FE003F80
FE003F80
FE003F80
FE003F80
FE003F80
7E003F00
7E007F00
7F007F00
3F80FE00
3FE3FE00
1FFFFC00
0FFFF800
07FFF000
03FFC000
007F0000
ENDCHAR
STARTCHAR 0151
ENCODING 337
SWIDTH 583 0
DWIDTH 28 0
BBX 25 37 2 -1
BITMAP
003F3F80
007E3F00
00FC7C00
00F8F800
01F1F000
03E3E000
00000000
00000000
00000000
00000000
00FF0000
03FFC000
0FFFF000
1FFFF800
3FFFFC00
3FC3FC00
7F81FE00
7F00FE00
7E007E00
FE007F00
FE007F00
FE007F00
FE007F00
FE007F00
FE007F00
FE007F00
FE007F00
FE007F00
7F00FE00
7F00FE00
3F81FC00
3FFFFC00
1FFFF800
0FFFF000
07FFE000
01FF8000
00180000
ENDCHAR
STARTCHAR 0152
ENCODING 338
SWIDTH 604 0
DWIDTH 29 0
BBX 26 35 2 -1
BITMAP
01FFFFC0
0FFFFFC0
1FFFFFC0
3FFFFFC0
3FFFFFC0
7F8FC000
7E0FC000
FE0FC000
FC0FC000
FC0FC000
FC0FC000
FC0FC000
FC0FC000
FC0FC000
FC0FFF80
FC0FFF80
FC0FFF80
FC0FFF80
FC0FFF80
FC0FC000
FC0FC000
FC0FC000
FC0FC000
FC0FC000
FC0FC000
FC0FC000
FC0FC000
7E0FC000
7F0FC000
7FFFFFC0
3FFFFFC0
1FFFFFC0
0FFFFFC0
07FFFFC0
00600000
ENDCHAR
STARTCHAR 0153
ENCODING 339
SWIDTH 604 0
DWIDTH 29 0
BBX 27 26 1 0
BITMAP
03F0FC00
0FF9FF00
1FFFFF80
3FFFFF80
7FFFFFC0
7F3FCFC0
FE3FCFE0
FE1FCFE0
FE1FCFE0
FE1FCFE0
FE1FFFE0
FE1FFFE0
FE1FFFE0
FE1FFFE0
FE1FFFE0
FE1FC000
FE1FC000
FE1FC000
FE1FC000
FE1FC000
7F3FF180
7FFFFF80
3FFFFF80
1FFFFFC0
0FFDFF80
07F07F00
ENDCHAR
STARTCHAR 0154
ENCODING 340
SWIDTH 604 0
DWIDTH 29 0
BBX 25 43 3 0
BITMAP
000FE000
000FC000
001FC000
003F8000
003F0000
007E0000
00FC0000
00000000
00000000
FFFF0000
FFFFE000
FFFFF800
FFFFFC00
FFFFFC00
FE03FE00
FE00FE00
FE007F00
FE007F00
FE007F00
FE007F00
FE007F00
FE007F00
FE007F00
FE00FE00
FE07FE00
FFFFFC00
FFFFF800
FFFFF000
FFFFC000
FFFFE000
FE0FE000
FE0FF000
FE07F000
FE07F800
FE03F800
FE03FC00
FE01FC00
FE01FE00
FE00FE00
FE00FF00
FE007F00
FE007F80
FE003F80
ENDCHAR
STARTCHAR 0155
ENCODING 341
SWIDTH 604 0
DWIDTH 29 0
BBX 20 36 7 0
BITMAP
00FE00
00FC00
01F800
03F000
03F000
07E000
0FC000
000000
000000
000000
FC0FF0
FC3FE0
FCFFE0
FDFFE0
FDFFE0
FFFFE0
FFFFE0
FFC020
FF0000
FE0000
FE0000
FE0000
FE0000
FE0000
FE0000
FE0000
FE0000
FE0000
FE0000
FE0000
FE0000
FE0000
FE0000
FE0000
FE0000
FE0000
ENDCHAR
STARTCHAR 0156
ENCODING 342
SWIDTH 604 0
DWIDTH 29 0
BBX 25 45 3 -11
BITMAP
FFFF0000
FFFFE000
FFFFF800
FFFFFC00
FFFFFC00
FE03FE00
FE00FE00
FE007F00
FE007F00
FE007F00
FE007F00
FE007F00
FE007F00
FE007F00
FE00FE00
FE07FE00
FFFFFC00
FFFFF800
FFFFF000
FFFFC000
FFFFE000
FE0FE000
FE0FF000
FE07F000
FE07F800
FE03F800
FE03FC00
FE01FC00
FE01FE00
FE00FE00
FE00FF00
FE007F00
FE007F80
FE003F80
00000000
00780000
00780000
00780000
00780000
00780000
00780000
00F00000
00F00000
01E00000
00600000
ENDCHAR
STARTCHAR 0157
ENCODING 343
SWIDTH 604 0
DWIDTH 29 0
BBX 20 37 7 -11
BITMAP
FC0FF0
FC3FE0
FCFFE0
FDFFE0
FDFFE0
FFFFE0
FFFFE0
FFC020
FF0000
FE0000
FE0000
FE0000
FE0000
FE0000
FE0000
FE0000
FE0000
FE0000
FE0000
FE0000
FE0000
FE0000
FE0000
FE0000
FE0000
FE0000
000000
3C0000
3C0000
3C0000
3C0000
3C0000
7C0000
780000
F80000
F00000
700000
ENDCHAR
STARTCHAR 0158
ENCODING 344
SWIDTH 604 0
DWIDTH 29 0
BBX 25 44 3 0
BITMAP
3F03F000
1F87E000
0FDFC000
07FF8000
03FE0000
00FC0000
00780000
00000000
00000000
00000000
FFFF0000
FFFFE000
FFFFF800
FFFFFC00
FFFFFC00
FE03FE00
FE00FE00
FE007F00
FE007F00
FE007F00
FE007F00
FE007F00
FE007F00
FE007F00
FE00FE00
FE07FE00
FFFFFC00
FFFFF800
FFFFF000
FFFFC000
FFFFE000
FE0FE000
FE0FF000
FE07F000
FE07F800
FE03F800
FE03FC00
FE01FC00
FE01FE00
FE00FE00
FE00FF00
FE007F00
FE007F80
FE003F80
ENDCHAR
STARTCHAR 0159
ENCODING 345
SWIDTH 604 0
DWIDTH 29 0
BBX 22 37 5 0
BITMAP
F80FC0
7E1F80
3F3F00
1FFE00
0FFC00
07F800
03F000
000000
000000
000000
000000
3F03FC
3F0FF8
3F3FF8
3F7FF8
3F7FF8
3FFFF8
3FFFF8
3FF008
3FC000
3F8000
3F8000
3F8000
3F8000
3F8000
3F8000
3F8000
3F8000
3F8000
3F8000
3F8000
3F8000
3F8000
3F8000
3F8000
3F8000
3F8000
ENDCHAR
STARTCHAR 015A
ENCODING 346
SWIDTH 604 0
DWIDTH 29 0
BBX 25 44 2 0
BITMAP
0003F800
0003F000
0007E000
000FC000
000FC000
001F8000
001F0000
00000000
00000000
00000000
007F8000
03FFF000
0FFFF800
1FFFFC00
3FFFFE00
3FE1FF00
7F807F00
7F003F80
7F003F80
7F003F80
7F000000
7F000000
3FC00000
3FF00000
1FFE0000
0FFFC000
07FFF000
01FFF800
007FFC00
000FFE00
0001FF00
00007F00
00003F80
FE003F80
FE003F80
FE003F80
FE003F80
7F807F80
7FE1FF00
3FFFFF00
1FFFFE00
0FFFFC00
03FFF000
007FC000
ENDCHAR
STARTCHAR 015B
ENCODING 347
SWIDTH 604 0
DWIDTH 29 0
BBX 23 37 3 -1
BITMAP
000FE0
000FC0
001F80
003F00
003F00
007E00
00FC00
000000
000000
000000
01FF00
07FFC0
1FFFF0
3FFFF8
7FFFFC
7FC3FC
7F00FE
FE00FE
7E00FE
7F0000
7F8000
3FFC00
1FFFC0
07FFF0
01FFF8
001FFC
0001FE
0000FE
FE00FE
FE00FE
7F01FE
7FFFFC
3FFFFC
1FFFF8
0FFFF0
03FFC0
001000
ENDCHAR
STARTCHAR 015C
ENCODING 348
SWIDTH 604 0
DWIDTH 29 0
BBX 25 45 2 0
BITMAP
001E0000
003F8000
00FFC000
01FFE000
03F3F000
07E1FC00
0780FC00
00000000
00000000
00000000
00000000
007F8000
03FFF000
0FFFF800
1FFFFC00
3FFFFE00
3FE1FF00
7F807F00
7F003F80
7F003F80
7F003F80
7F000000
7F000000
3FC00000
3FF00000
1FFE0000
0FFFC000
07FFF000
01FFF800
007FFC00
000FFE00
0001FF00
00007F00
00003F80
FE003F80
FE003F80
FE003F80
FE003F80
7F807F80
7FE1FF00
3FFFFF00
1FFFFE00
0FFFFC00
03FFF000
007FC000
ENDCHAR
STARTCHAR 015D
ENCODING 349
SWIDTH 604 0
DWIDTH 29 0
BBX 23 38 3 -1
BITMAP
007800
00FC00
01FE00
03FF80
07CFC0
0F87E0
1F03F0
000000
000000
000000
000000
01FF00
07FFC0
1FFFF0
3FFFF8
7FFFFC
7FC3FC
7F00FE
FE00FE
7E00FE
7F0000
7F8000
3FFC00
1FFFC0
07FFF0
01FFF8
001FFC
0001FE
0000FE
FE00FE
FE00FE
7F01FE
7FFFFC
3FFFFC
1FFFF8
0FFFF0
03FFC0
001000
ENDCHAR
STARTCHAR 015E
ENCODING 350
SWIDTH 604 0
DWIDTH 29 0
BBX 25 45 2 -11
BITMAP
007F8000
03FFF000
0FFFF800
1FFFFC00
3FFFFE00
3FE1FF00
7F807F00
7F003F80
7F003F80
7F003F80
7F000000
7F000000
3FC00000
3FF00000
1FFE0000
0FFFC000
07FFF000
01FFF800
007FFC00
000FFE00
0001FF00
00007F00
00003F80
FE003F80
FE003F80
FE003F80
FE003F80
7F007F80
7FC0FF00
3FFFFF00
1FFFFE00
0FFFFC00
03FFF000
007FC000
001F0000
001F8000
001FC000
0007E000
0003E000
0003E000
0007E000
001FE000
001FC000
001F8000
001E0000
ENDCHAR
STARTCHAR 015F
ENCODING 351
SWIDTH 604 0
DWIDTH 29 0
BBX 23 37 3 -11
BITMAP
01FF00
07FFC0
1FFFF0
3FFFF8
7FFFFC
7FC3FC
7F00FE
FE00FE
FE00FE
7F0000
7F8000
3FFC00
1FFFC0
0FFFF0
03FFF8
007FFC
0003FE
0000FE
FE007E
FE007E
FF00FE
7F81FC
3FFFFC
1FFFF8
0FFFF0
03FFC0
007C00
00FC00
00FF00
003F80
000F80
000F80
001F80
007F80
007F00
007E00
007800
ENDCHAR
STARTCHAR 0160
ENCODING 352
SWIDTH 604 0
DWIDTH 29 0
BBX 25 45 2 0
BITMAP
0FC0FC00
07E1F800
03F7F000
01FFC000
007F8000
003F0000
001E0000
00000000
00000000
00000000
00000000
007F8000
03FFF000
0FFFF800
1FFFFC00
3FFFFE00
3FE1FF00
7F807F00
7F003F80
7F003F80
7F003F80
7F000000
7F000000
3FC00000
3FF00000
1FFE0000
0FFFC000
07FFF000
01FFF800
007FFC00
000FFE00
0001FF00
00007F00
00003F80
FE003F80
FE003F80
FE003F80
FE003F80
7F807F80
7FE1FF00
3FFFFF00
1FFFFE00
0FFFFC00
03FFF000
007FC000
ENDCHAR
STARTCHAR 0161
ENCODING 353
SWIDTH 604 0
DWIDTH 29 0
BBX 23 38 3 -1
BITMAP
3E03F0
3F87E0
0FCFC0
07FF80
03FF00
01FE00
00FC00
000000
000000
000000
000000
01FF00
07FFC0
1FFFF0
3FFFF8
7FFFFC
7FC3FC
7F00FE
FE00FE
7E00FE
7F0000
7F8000
3FFC00
1FFFC0
07FFF0
01FFF8
001FFC
0001FE
0000FE
FE00FE
FE00FE
7F01FE
7FFFFC
3FFFFC
1FFFF8
0FFFF0
03FFC0
001000
ENDCHAR
STARTCHAR 0162
ENCODING 354
SWIDTH 625 0
DWIDTH 30 0
BBX 28 45 1 -11
BITMAP
FFFFFFF0
FFFFFFF0
FFFFFFF0
FFFFFFF0
FFFFFFF0
003F8000
003F8000
003F8000
003F8000
003F8000
003F8000
003F8000
003F8000
003F8000
003F8000
003F8000
003F8000
003F8000
003F8000
003F8000
003F8000
003F8000
003F8000
003F8000
003F8000
003F8000
003F8000
003F8000
003F8000
003F8000
003F8000
003F8000
003F8000
003F8000
001F0000
001F8000
001FC000
0007E000
0003E000
0003E000
0007E000
001FE000
001FC000
001F8000
001E0000
ENDCHAR
STARTCHAR 0163
ENCODING 355
SWIDTH 604 0
DWIDTH 29 0
BBX 23 43 3 -11
BITMAP
03F800
03F800
03F800
03F800
03F800
03F800
FFFFFC
FFFFFC
FFFFFC
FFFFFC
FFFFFC
03F800
03F800
03F800
03F800
03F800
03F800
03F800
03F800
03F800
03F800
03F800
03F800
03F800
03F800
03F800
03FC00
01FFFE
01FFFE
00FFFE
007FFE
003FFC
001F00
003F00
003F80
000FC0
0007C0
0007C0
000FC0
001FC0
001F80
001F00
001C00
ENDCHAR
STARTCHAR 0164
ENCODING 356
SWIDTH 625 0
DWIDTH 30 0
BBX 28 44 1 0
BITMAP
07E07E00
03F0FC00
01FBF800
00FFE000
007FC000
001F8000
000F0000
00000000
00000000
00000000
FFFFFFF0
FFFFFFF0
FFFFFFF0
FFFFFFF0
FFFFFFF0
003F8000
003F8000
003F8000
003F8000
003F8000
003F8000
003F8000
003F8000
003F8000
003F8000
003F8000
003F8000
003F8000
003F8000
003F8000
003F8000
003F8000
003F8000
003F8000
003F8000
003F8000
003F8000
003F8000
003F8000
003F8000
003F8000
003F8000
003F8000
003F8000
ENDCHAR
STARTCHAR 0165
ENCODING 357
SWIDTH 604 0
DWIDTH 29 0
BBX 26 42 2 -1
BITMAP
000007C0
000007C0
000007C0
000007C0
000007C0
000007C0
000007C0
00000780
00000F80
03F80F80
03F81F00
03F81E00
03F80600
03F80000
03F80000
FFFFFC00
FFFFFC00
FFFFFC00
FFFFFC00
FFFFFC00
03F80000
03F80000
03F80000
03F80000
03F80000
03F80000
03F80000
03F80000
03F80000
03F80000
03F80000
03F80000
03F80000
03F80000
03F80000
03FC0000
01FFFE00
01FFFE00
00FFFE00
007FFE00
003FFC00
00030000
ENDCHAR
STARTCHAR 0166
ENCODING 358
SWIDTH 625 0
DWIDTH 30 0
BBX 28 34 1 0
BITMAP
FFFFFFF0
FFFFFFF0
FFFFFFF0
FFFFFFF0
FFFFFFF0
003F8000
003F8000
003F8000
003F8000
003F8000
003F8000
003F8000
07FFFC00
07FFFC00
07FFFC00
07FFFC00
003F8000
003F8000
003F8000
003F8000
003F8000
003F8000
003F8000
003F8000
003F8000
003F8000
003F8000
003F8000
003F8000
003F8000
003F8000
003F8000
003F8000
003F8000
ENDCHAR
STARTCHAR 0167
ENCODING 359
SWIDTH 604 0
DWIDTH 29 0
BBX 23 33 3 -1
BITMAP
03F800
03F800
03F800
03F800
03F800
03F800
FFFFFC
FFFFFC
FFFFFC
FFFFFC
FFFFFC
03F800
03F800
03F800
03F800
7FFF80
7FFF80
7FFF80
7FFF80
03F800
03F800
03F800
03F800
03F800
03F800
03F800
03FC00
01FFFE
01FFFE
00FFFE
007FFE
003FFC
000300
ENDCHAR
STARTCHAR 0168
ENCODING 360
SWIDTH 604 0
DWIDTH 29 0
BBX 23 45 3 0
BITMAP
008040
07F070
0FFFF0
0FFFF0
1FFFE0
1E1FC0
0C0780
000000
000000
000000
000000
FE00FE
FE00FE
FE00FE
FE00FE
FE00FE
FE00FE
FE00FE
FE00FE
FE00FE
FE00FE
FE00FE
FE00FE
FE00FE
FE00FE
FE00FE
FE00FE
FE00FE
FE00FE
FE00FE
FE00FE
FE00FE
FE00FE
FE00FE
FE00FE
FE00FE
FE00FE
7E01FC
7F01FC
7FC7FC
3FFFF8
1FFFF0
0FFFE0
07FFC0
00FE00
ENDCHAR
STARTCHAR 0169
ENCODING 361
SWIDTH 604 0
DWIDTH 29 0
BBX 22 38 4 -1
BITMAP
010080
07E0E0
0FFBE0
1FFFE0
1FFFC0
1C1F80
1C0700
000000
000000
000000
000000
FE01FC
FE01FC
FE01FC
FE01FC
FE01FC
FE01FC
FE01FC
FE01FC
FE01FC
FE01FC
FE01FC
FE01FC
FE01FC
FE01FC
FE01FC
FE01FC
FE01FC
FE01FC
FE01FC
FE01FC
7F03FC
7FFFFC
7FFFFC
3FFEFC
1FFCFC
0FF8FC
008000
ENDCHAR
STARTCHAR 016A
ENCODING 362
SWIDTH 604 0
DWIDTH 29 0
BBX 23 42 3 0
BITMAP
1FFFF0
1FFFF0
1FFFF0
1FFFF0
000000
000000
000000
000000
FE00FE
FE00FE
FE00FE
FE00FE
FE00FE
FE00FE
FE00FE
FE00FE
FE00FE
FE00FE
FE00FE
FE00FE
FE00FE
FE00FE
FE00FE
FE00FE
FE00FE
FE00FE
FE00FE
FE00FE
FE00FE
FE00FE
FE00FE
FE00FE
FE00FE
FE00FE
7E01FC
7F01FC
7FC7FC
3FFFF8
1FFFF0
0FFFE0
07FFC0
00FE00
ENDCHAR
STARTCHAR 016B
ENCODING 363
SWIDTH 604 0
DWIDTH 29 0
BBX 22 35 4 -1
BITMAP
1FFFF0
1FFFF0
1FFFF0
1FFFF0
000000
000000
000000
000000
FE01FC
FE01FC
FE01FC
FE01FC
FE01FC
FE01FC
FE01FC
FE01FC
FE01FC
FE01FC
FE01FC
FE01FC
FE01FC
FE01FC
FE01FC
FE01FC
FE01FC
FE01FC
FE01FC
FE01FC
7F03FC
7FFFFC
7FFFFC
3FFEFC
1FFCFC
0FF8FC
008000
ENDCHAR
STARTCHAR 016C
ENCODING 364
SWIDTH 604 0
DWIDTH 29 0
BBX 23 44 3 0
BITMAP
0F81F0
0F81F0
0FC3F0
07FFE0
03FFC0
01FF80
007E00
000000
000000
000000
FE00FE
FE00FE
FE00FE
FE00FE
FE00FE
FE00FE
FE00FE
FE00FE
FE00FE
FE00FE
FE00FE
FE00FE
FE00FE
FE00FE
FE00FE
FE00FE
FE00FE
FE00FE
FE00FE
FE00FE
FE00FE
FE00FE
FE00FE
FE00FE
FE00FE
FE00FE
7E01FC
7F01FC
7FC7FC
3FFFF8
1FFFF0
0FFFE0
07FFC0
00FE00
ENDCHAR
STARTCHAR 016D
ENCODING 365
SWIDTH 604 0
DWIDTH 29 0
BBX 22 37 4 -1
BITMAP
1F03E0
1F03E0
1F87E0
0FFFC0
07FF80
03FF00
00FC00
000000
000000
000000
FE01FC
FE01FC
FE01FC
FE01FC
FE01FC
FE01FC
FE01FC
FE01FC
FE01FC
FE01FC
FE01FC
FE01FC
FE01FC
FE01FC
FE01FC
FE01FC
FE01FC
FE01FC
FE01FC
FE01FC
7F03FC
7FFFFC
7FFFFC
3FFEFC
1FFCFC
0FF8FC
008000
ENDCHAR
STARTCHAR 016E
ENCODING 366
SWIDTH 604 0
DWIDTH 29 0
BBX 23 46 3 0
BITMAP
003C00
00FF00
00E700
01C380
01C380
01C380
01E700
00FF00
007E00
000000
000000
000000
FE00FE
FE00FE
FE00FE
FE00FE
FE00FE
FE00FE
FE00FE
FE00FE
FE00FE
FE00FE
FE00FE
FE00FE
FE00FE
FE00FE
FE00FE
FE00FE
FE00FE
FE00FE
FE00FE
FE00FE
FE00FE
FE00FE
FE00FE
FE00FE
FE00FE
FE00FE
7E01FC
7F01FC
7FC7FC
3FFFF8
1FFFF0
0FFFE0
07FFC0
00FE00
ENDCHAR
STARTCHAR 016F
ENCODING 367
SWIDTH 604 0
DWIDTH 29 0
BBX 22 38 4 -1
BITMAP
00FC00
01FE00
03CF00
038700
038700
038700
03CF00
01FE00
007800
000000
000000
FE01FC
FE01FC
FE01FC
FE01FC
FE01FC
FE01FC
FE01FC
FE01FC
FE01FC
FE01FC
FE01FC
FE01FC
FE01FC
FE01FC
FE01FC
FE01FC
FE01FC
FE01FC
FE01FC
FE01FC
7F03FC
7FFFFC
3FFFFC
3FFEFC
1FFCFC
0FF8FC
008000
ENDCHAR
STARTCHAR 0170
ENCODING 368
SWIDTH 604 0
DWIDTH 29 0
BBX 24 44 3 0
BITMAP
007F3F
007E7E
00FCFC
01F1F8
03E3F0
07C7C0
000000
000000
000000
000000
FE00FE
FE00FE
FE00FE
FE00FE
FE00FE
FE00FE
FE00FE
FE00FE
FE00FE
FE00FE
FE00FE
FE00FE
FE00FE
FE00FE
FE00FE
FE00FE
FE00FE
FE00FE
FE00FE
FE00FE
FE00FE
FE00FE
FE00FE
FE00FE
FE00FE
FE00FE
7E01FC
7F01FC
7FC7FC
3FFFF8
1FFFF0
0FFFE0
07FFC0
00FE00
ENDCHAR
STARTCHAR 0171
ENCODING 369
SWIDTH 604 0
DWIDTH 29 0
BBX 23 37 4 -1
BITMAP
007E7E
00FCFC
01F9F8
03F3F0
03E7E0
07CF80
000000
000000
000000
000000
FE01FC
FE01FC
FE01FC
FE01FC
FE01FC
FE01FC
FE01FC
FE01FC
FE01FC
FE01FC
FE01FC
FE01FC
FE01FC
FE01FC
FE01FC
FE01FC
FE01FC
FE01FC
FE01FC
FE01FC
7F03FC
7FFFFC
7FFFFC
3FFEFC
1FFCFC
0FF8FC
008000
ENDCHAR
STARTCHAR 0172
ENCODING 370
SWIDTH 604 0
DWIDTH 29 0
BBX 23 42 3 -8
BITMAP
FE00FE
FE00FE
FE00FE
FE00FE
FE00FE
FE00FE
FE00FE
FE00FE
FE00FE
FE00FE
FE00FE
FE00FE
FE00FE
FE00FE
FE00FE
FE00FE
FE00FE
FE00FE
FE00FE
FE00FE
FE00FE
FE00FE
FE00FE
FE00FE
FE00FE
FE00FE
7E00FE
7F01FC
7FC7FC
3FFFF8
1FFFF8
0FFFF0
07FFC0
01FF00
001F00
003E00
003E00
003E00
003FE0
001FE0
001FE0
0007C0
ENDCHAR
STARTCHAR 0173
ENCODING 371
SWIDTH 604 0
DWIDTH 29 0
BBX 23 36 4 -10
BITMAP
FE01FC
FE01FC
FE01FC
FE01FC
FE01FC
FE01FC
FE01FC
FE01FC
FE01FC
FE01FC
FE01FC
FE01FC
FE01FC
FE01FC
FE01FC
FE01FC
FE01FC
FE01FC
FE01FC
FE01FC
7F03FC
7FFFFC
7FFFFC
3FFEFC
1FFCFC
0FF8FC
0081F8
0003E0
0003C0
0007C0
0007C0
0007C0
0007FC
0003FC
0003FE
0000FC
ENDCHAR
STARTCHAR 0174
ENCODING 372
SWIDTH 604 0
DWIDTH 29 0
BBX 27 44 1 0
BITMAP
001F0000
003F8000
007FC000
00FFE000
03F1F000
07E0FC00
07C07C00
00000000
00000000
00000000
FC1F07E0
FC1F07E0
FC1F07E0
FC1F07E0
7E1F07E0
7E3F87C0
7E3F8FC0
7E3F8FC0
7E3F8FC0
7E3F8FC0
7E3F8FC0
3E3FCFC0
3E7FCFC0
3F7FCF80
3F7BCF80
3F7BDF80
3F7BDF80
3F7BDF80
1F7BFF80
1F7BFF80
1FF9FF00
1FF1FF00
1FF1FF00
1FF1FF00
1FF1FF00
0FF1FF00
0FF0FF00
0FF0FE00
0FE0FE00
0FE0FE00
0FE0FE00
0FE0FE00
0FE0FE00
07E07E00
ENDCHAR
STARTCHAR 0175
ENCODING 373
SWIDTH 583 0
DWIDTH 28 0
BBX 27 36 0 0
BITMAP
001F0000
003F8000
007FC000
01FBF000
03F1F800
07E0FC00
00000000
00000000
00000000
00000000
FC1F07E0
FC1F07E0
7C1F07C0
7E1F0FC0
7E1F0FC0
7E3F8FC0
7E3F8FC0
7E3F8F80
3E3F8F80
3E3F8F80
3E3B8F80
3E7BDF80
3F7BDF80
1F7BDF00
1F73DF00
1F71DF00
1FF1DF00
1FF1FF00
1FF1FF00
0FF1FE00
0FE0FE00
0FE0FE00
0FE0FE00
0FE0FE00
0FE0FC00
07C07C00
ENDCHAR
STARTCHAR 0176
ENCODING 374
SWIDTH 583 0
DWIDTH 28 0
BBX 27 44 1 0
BITMAP
001F0000
003F8000
007FC000
00FFE000
01F9F000
07F0FC00
07C07C00
00000000
00000000
00000000
FE000FE0
FF000FE0
7F001FC0
7F001FC0
3F803F80
3F803F80
1FC07F00
1FC07F00
0FE07E00
0FE0FE00
07E0FC00
07F1FC00
03F1F800
03F9F800
01FBF800
01FBF000
00FFF000
00FFE000
007FE000
007FC000
003FC000
003F8000
003F8000
003F8000
003F8000
003F8000
003F8000
003F8000
003F8000
003F8000
003F8000
003F8000
003F8000
003F8000
ENDCHAR
STARTCHAR 0177
ENCODING 375
SWIDTH 583 0
DWIDTH 28 0
BBX 27 47 1 -11
BITMAP
001F0000
003F8000
007FC000
01FBF000
03F1F800
07E0FC00
00000000
00000000
00000000
00000000
FE000FE0
FE001FC0
7F001FC0
7F003F80
3F803F80
3F803F80
3F807F00
1FC07F00
1FC07E00
0FC0FE00
0FE0FC00
07E0FC00
07E1FC00
07F1F800
03F3F800
03FBF000
01FBF000
01FFE000
00FFE000
00FFE000
00FFC000
007FC000
007F8000
003F8000
003F8000
003F0000
003F0000
007E0000
007E0000
00FC0000
01FC0000
1FF80000
1FF80000
1FF00000
1FE00000
1FC00000
04000000
ENDCHAR
STARTCHAR 0178
ENCODING 376
SWIDTH 604 0
DWIDTH 29 0
BBX 28 43 1 0
BITMAP
03C07800
07E0FC00
07F0FE00
07E0FC00
03E07C00
00000000
00000000
00000000
00000000
FE000FF0
7F000FE0
7F001FE0
3F801FC0
3F801FC0
1FC03F80
1FC03F80
0FC07F00
0FE07F00
07E07E00
07F0FE00
07F0FC00
03F1FC00
03F9F800
01FBF800
01FFF000
00FFF000
00FFE000
007FE000
007FC000
003FC000
003F8000
003F8000
003F8000
003F8000
003F8000
003F8000
003F8000
003F8000
003F8000
003F8000
003F8000
003F8000
003F8000
ENDCHAR
STARTCHAR 0179
ENCODING 377
SWIDTH 604 0
DWIDTH 29 0
BBX 25 43 2 0
BITMAP
0003F800
0007F000
000FE000
000FC000
001F8000
001F0000
003E0000
00000000
00000000
FFFFFF00
FFFFFF00
FFFFFF00
FFFFFF00
FFFFFF00
0000FE00
0001FC00
0001FC00
0003F800
0007F000
0007F000
000FE000
001FC000
001FC000
003F8000
007F0000
007F0000
00FE0000
00FC0000
01FC0000
03F80000
03F80000
07F00000
0FE00000
0FE00000
1FC00000
3F800000
3F800000
7F000000
FFFFFF80
FFFFFF80
FFFFFF80
FFFFFF80
FFFFFF80
ENDCHAR
STARTCHAR 017A
ENCODING 378
SWIDTH 604 0
DWIDTH 29 0
BBX 24 35 3 0
BITMAP
0003F8
0007F0
000FE0
000FC0
001F80
001F00
003E00
000000
000000
FFFFFE
FFFFFE
FFFFFE
FFFFFE
FFFFFE
0003FC
0007F8
000FF0
001FE0
003FC0
003F80
007F80
00FF00
01FE00
03FC00
07F800
07F000
0FE000
1FE000
3FC000
7F8000
FFFFFF
FFFFFF
FFFFFF
FFFFFF
FFFFFF
ENDCHAR
STARTCHAR 017B
ENCODING 379
SWIDTH 604 0
DWIDTH 29 0
BBX 25 44 2 0
BITMAP
001E0000
003F0000
003F0000
007F0000
003F0000
003F0000
001E0000
00000000
00000000
00000000
FFFFFF00
FFFFFF00
FFFFFF00
FFFFFF00
FFFFFF00
0000FE00
0000FC00
0001FC00
0003F800
0003F000
0007F000
000FE000
000FE000
001FC000
003F8000
003F8000
007F0000
00FE0000
00FE0000
01FC0000
03FC0000
03F80000
07F00000
0FF00000
0FE00000
1FC00000
3FC00000
3F800000
7F800000
FFFFFF80
FFFFFF80
FFFFFF80
FFFFFF80
FFFFFF80
ENDCHAR
STARTCHAR 017C
ENCODING 380
SWIDTH 604 0
DWIDTH 29 0
BBX 24 36 3 0
BITMAP
001E00
003F00
003F00
007F00
003F00
003F00
001E00
000000
000000
000000
FFFFFE
FFFFFE
FFFFFE
FFFFFE
FFFFFE
0003FC
0007F8
000FF0
001FE0
001FC0
003FC0
007F80
00FF00
01FE00
03FC00
07FC00
07F800
0FF000
1FE000
3FC000
7FC000
FFFFFF
FFFFFF
FFFFFF
FFFFFF
FFFFFF
ENDCHAR
STARTCHAR 017D
ENCODING 381
SWIDTH 604 0
DWIDTH 29 0
BBX 25 44 2 0
BITMAP
0FC1F800
07E3F000
03F7E000
01FFC000
00FF8000
007F0000
003C0000
00000000
00000000
00000000
FFFFFF00
FFFFFF00
FFFFFF00
FFFFFF00
FFFFFF00
0000FE00
0001FC00
0001FC00
0003F800
0007F000
0007F000
000FE000
001FC000
001FC000
003F8000
007F0000
007F0000
00FE0000
00FC0000
01FC0000
03F80000
03F80000
07F00000
0FE00000
0FE00000
1FC00000
3F800000
3F800000
7F000000
FFFFFF80
FFFFFF80
FFFFFF80
FFFFFF80
FFFFFF80
ENDCHAR
STARTCHAR 017E
ENCODING 382
SWIDTH 604 0
DWIDTH 29 0
BBX 24 36 3 0
BITMAP
1F81F8
07E3F0
03F7E0
01FFC0
00FF00
007E00
000000
000000
000000
000000
FFFFFE
FFFFFE
FFFFFE
FFFFFE
FFFFFE
0003FC
0007F8
000FF0
001FE0
003FC0
003F80
007F80
00FF00
01FE00
03FC00
07F800
07F000
0FE000
1FE000
3FC000
7F8000
FFFFFF
FFFFFF
FFFFFF
FFFFFF
FFFFFF
ENDCHAR
STARTCHAR 017F
ENCODING 383
SWIDTH 604 0
DWIDTH 29 0
BBX 15 37 10 0
BITMAP
01FE
0FFE
1FFE
3FFE
3FFE
7FC0
7F00
FE00
FE00
FE00
FE00
FE00
FE00
FE00
FE00
FE00
FE00
FE00
FE00
FE00
FE00
FE00
FE00
FE00
FE00
FE00
FE00
FE00
FE00
FE00
FE00
FE00
FE00
FE00
FE00
FE00
FE00
ENDCHAR
STARTCHAR 0192
ENCODING 402
SWIDTH 604 0
DWIDTH 29 0
BBX 23 48 3 -11
BITMAP
0001FC
000FFE
001FFE
003FFE
007FFE
007FC6
00FF00
00FE00
00FE00
00FE00
00FE00
0FFFE0
0FFFE0
0FFFE0
0FFFE0
0FFFE0
00FE00
00FE00
00FE00
00FE00
00FE00
00FE00
00FE00
00FE00
00FE00
00FE00
00FE00
00FE00
00FE00
00FE00
00FE00
00FE00
00FE00
00FE00
00FE00
00FE00
00FE00
00FE00
00FC00
00FC00
01FC00
81FC00
FFFC00
FFF800
FFF000
FFE000
FFC000
0C0000
ENDCHAR
STARTCHAR 01A0
ENCODING 416
SWIDTH 604 0
DWIDTH 29 0
BBX 27 36 2 0
BITMAP
000003E0
000003E0
00FF03E0
03FFC3E0
07FFF3C0
0FFFFFC0
1FFFFFC0
3FE3FF80
3F80FF00
7F007E00
7E007F00
7E003F00
FE003F80
FE003F80
FE003F80
FE003F80
FE003F80
FE003F80
FE003F80
FE003F80
FE003F80
FE003F80
FE003F80
FE003F80
FE003F80
FE003F80
7E003F00
7F007F00
7F007F00
3F80FE00
3FE3FE00
1FFFFC00
0FFFF800
07FFF000
03FFC000
00FF0000
ENDCHAR
STARTCHAR 01A1
ENCODING 417
SWIDTH 604 0
DWIDTH 29 0
BBX 26 29 2 -1
BITMAP
000007C0
000007C0
00FF07C0
03FFCF80
0FFFFF80
1FFFFF00
3FFFFF00
3FC3FC00
7F81FE00
7F00FE00
7E007E00
FE007F00
FE007F00
FE007F00
FE007F00
FE007F00
FE007F00
FE007F00
FE007F00
FE007F00
7F00FE00
7F00FE00
3F81FC00
3FFFFC00
1FFFF800
0FFFF000
07FFE000
01FF8000
00180000
ENDCHAR
STARTCHAR 01AF
ENCODING 431
SWIDTH 604 0
DWIDTH 29 0
BBX 31 36 3 0
BITMAP
0000003E
0000003E
FE00FE3E
FE00FE3E
FE00FE7E
FE00FE7C
FE00FFFC
FE00FFF8
FE00FFF0
FE00FFC0
FE00FE00
FE00FE00
FE00FE00
FE00FE00
FE00FE00
FE00FE00
FE00FE00
FE00FE00
FE00FE00
FE00FE00
FE00FE00
FE00FE00
FE00FE00
FE00FE00
FE00FE00
FE00FE00
FE00FE00
FE00FE00
7E00FC00
7F01FC00
7FC7FC00
3FFFF800
1FFFF000
0FFFE000
07FFC000
00FE0000
ENDCHAR
STARTCHAR 01B0
ENCODING 432
SWIDTH 625 0
DWIDTH 30 0
BBX 30 29 3 -1
BITMAP
0000007C
0000007C
FE01FC7C
FE01FCFC
FE01FCF8
FE01FFF8
FE01FFF0
FE01FFE0
FE01FFC0
FE01FE00
FE01FC00
FE01FC00
FE01FC00
FE01FC00
FE01FC00
FE01FC00
FE01FC00
FE01FC00
FE01FC00
FE01FC00
FE01FC00
FE01FC00
7F03FC00
7FFFFC00
7FFFFC00
3FFEFC00
1FFCFC00
0FF8FC00
00800000
ENDCHAR
STARTCHAR 01F0
ENCODING 496
SWIDTH 604 0
DWIDTH 29 0
BBX 20 47 6 -11
BITMAP
3F83F0
0FC7E0
07EFC0
03FF80
01FF00
00FE00
000000
000000
000000
000000
7FFE00
7FFE00
7FFE00
7FFE00
7FFE00
00FE00
00FE00
00FE00
00FE00
00FE00
00FE00
00FE00
00FE00
00FE00
00FE00
00FE00
00FE00
00FE00
00FE00
00FE00
00FE00
00FE00
00FE00
00FE00
00FE00
00FE00
00FE00
00FE00
00FC00
01FC00
03FC00
FFFC00
FFF800
FFF000
FFE000
FFC000
300000
ENDCHAR
STARTCHAR 01FA
ENCODING 506
SWIDTH 583 0
DWIDTH 28 0
BBX 27 51 1 0
BITMAP
0000FC00
0001F800
0003F000
0003C000
00078000
000F0000
00000000
001F0000
003F8000
0071C000
0071C000
0071C000
007BC000
003F8000
001F0000
00000000
00000000
001F0000
003F8000
003F8000
003F8000
007FC000
007FC000
007FC000
00FFE000
00FFE000
00FBE000
01FBF000
01FBF000
01FBF000
03F1F800
03F1F800
03F1F800
07F1FC00
07E0FC00
07E0FC00
0FE0FE00
0FC0FE00
0FC07E00
1FFFFF00
1FFFFF00
1FFFFF00
3FFFFF80
3FFFFF80
3F001F80
7F001FC0
7F001FC0
7E001FC0
FE000FE0
FE000FE0
FE000FE0
ENDCHAR
STARTCHAR 01FB
ENCODING 507
SWIDTH 604 0
DWIDTH 29 0
BBX 23 43 3 0
BITMAP
0007E0
000FC0
001F80
003E00
007C00
000000
007C00
01FE00
01CF00
018700
018700
01CF00
01FE00
007C00
000000
000000
000000
01FE00
07FFC0
1FFFE0
3FFFF0
7FFFF8
7F87F8
7E01FC
FE01FC
0001FC
0001FC
01FFFC
0FFFFC
1FFFFC
3FFFFC
7F81FC
FE01FC
FE01FC
FE01FC
FE01FC
FE03FC
FF8FFC
7FFFFC
7FFFFC
3FFFFC
1FFCFE
03F0FE
ENDCHAR
STARTCHAR 01FC
ENCODING 508
SWIDTH 604 0
DWIDTH 29 0
BBX 27 43 1 0
BITMAP
00003F80
00007F00
0000FE00
0000FC00
0001F800
0003F000
0003E000
00000000
00000000
001FFFC0
001FFFC0
003FFFC0
003FFFC0
003FFFC0
003FF800
007FF800
007FF800
007FF800
00FFF800
00FBF800
00FBF800
01FBF800
01F3F800
01F3FFC0
03F3FFC0
03F3FFC0
03E3FFC0
07E3FFC0
07E3F800
07E3F800
0FFFF800
0FFFF800
0FFFF800
1FFFF800
1FFFF800
1F83F800
3F03F800
3F03F800
3F03FFE0
7F03FFE0
7E03FFE0
7E03FFE0
FE03FFE0
ENDCHAR
STARTCHAR 01FD
ENCODING 509
SWIDTH 604 0
DWIDTH 29 0
BBX 27 36 1 0
BITMAP
0001FC00
0001F800
0003F800
0007F000
0007E000
000FC000
001F8000
00000000
00000000
00000000
07E0FC00
1FFBFF00
3FFFFF80
7FFFFFC0
7FFFFFC0
7E7F9FC0
7E3F0FE0
003F0FE0
003F0FE0
003F0FE0
03FFFFE0
1FFFFFE0
3FFFFFE0
7FFFFFE0
7FFFFFE0
FF3F0000
FE3F0000
FE3F0000
FE3F0000
FE3F8000
FE3FC380
FFFFFF80
7FFFFFC0
7FF7FFC0
3FE3FFC0
0FC0FE00
ENDCHAR
STARTCHAR 01FE
ENCODING 510
SWIDTH 604 0
DWIDTH 29 0
BBX 26 47 1 -2
BITMAP
0001FC00
0003F800
0007F000
0007E000
000FC000
000F8000
001F0000
00000000
00000000
000007C0
00000780
003F8780
01FFFF00
03FFFF00
07FFFE00
0FFFFE00
1FF1FF00
1FC07F00
3F807F80
3F00FF80
3F01FF80
7F01FFC0
7F03FFC0
7F03DFC0
7F079FC0
7F0F9FC0
7F0F1FC0
7F1F1FC0
7F1E1FC0
7F3C1FC0
7F7C1FC0
7F781FC0
7FF81FC0
7FF01FC0
7FE01FC0
3FE01F80
3FC03F80
3FC03F80
1FC07F00
1FF1FF00
0FFFFE00
1FFFFC00
1FFFF800
3DFFE000
7C7F8000
78000000
F8000000
ENDCHAR
STARTCHAR 01FF
ENCODING 511
SWIDTH 583 0
DWIDTH 28 0
BBX 24 41 2 -4
BITMAP
0007F0
000FE0
001FC0
001F80
003F00
007E00
007C00
000000
00003C
000038
000078
00FF70
03FFF0
0FFFF0
1FFFF8
3FFFFC
3FC3FC
7F83FE
7F07FE
7E077E
FE0F7F
FE0E7F
FE1E7F
FE1C7F
FE3C7F
FE387F
FE787F
FE787F
FEF07F
7FF0FE
7FE0FE
3FE1FC
3FFFFC
1FFFF8
0FFFF0
07FFE0
0FFF80
0F1800
1E0000
1E0000
1C0000
ENDCHAR
STARTCHAR 0218
ENCODING 536
SWIDTH 604 0
DWIDTH 29 0
BBX 25 45 2 -11
BITMAP
007F8000
03FFF000
0FFFF800
1FFFFC00
3FFFFE00
3FE1FF00
7F807F00
7F003F80
7F003F80
7F003F80
7F000000
7F000000
3FC00000
3FF00000
1FFE0000
0FFFC000
07FFF000
01FFF800
007FFC00
000FFE00
0001FF00
00007F00
00003F80
FE003F80
FE003F80
FE003F80
FE003F80
7F807F80
7FE1FF00
3FFFFF00
1FFFFE00
0FFFFC00
03FFF000
007FC000
00000000
001E0000
001E0000
001E0000
001E0000
001E0000
001E0000
003C0000
003C0000
00780000
00180000
ENDCHAR
STARTCHAR 0219
ENCODING 537
SWIDTH 604 0
DWIDTH 29 0
BBX 23 38 3 -12
BITMAP
01FF00
07FFC0
1FFFF0
3FFFF8
7FFFFC
7FC3FC
7F00FE
FE00FE
7E00FE
7F0000
7F8000
3FFC00
1FFFC0
07FFF0
01FFF8
001FFC
0001FE
0000FE
FE00FE
FE00FE
7F01FE
7FFFFC
3FFFFC
1FFFF8
0FFFF0
03FFC0
001000
000000
007800
007800
007800
007800
007800
00F000
00F000
01F000
00E000
004000
ENDCHAR
STARTCHAR 021A
ENCODING 538
SWIDTH 625 0
DWIDTH 30 0
BBX 28 45 1 -11
BITMAP
FFFFFFF0
FFFFFFF0
FFFFFFF0
FFFFFFF0
FFFFFFF0
003F8000
003F8000
003F8000
003F8000
003F8000
003F8000
003F8000
003F8000
003F8000
003F8000
003F8000
003F8000
003F8000
003F8000
003F8000
003F8000
003F8000
003F8000
003F8000
003F8000
003F8000
003F8000
003F8000
003F8000
003F8000
003F8000
003F8000
003F8000
003F8000
00000000
000F0000
000F0000
000F0000
000F0000
000F0000
001F0000
001E0000
001E0000
003C0000
001C0000
ENDCHAR
STARTCHAR 021B
ENCODING 539
SWIDTH 604 0
DWIDTH 29 0
BBX 23 43 3 -11
BITMAP
03F800
03F800
03F800
03F800
03F800
03F800
FFFFFC
FFFFFC
FFFFFC
FFFFFC
FFFFFC
03F800
03F800
03F800
03F800
03F800
03F800
03F800
03F800
03F800
03F800
03F800
03F800
03F800
03F800
03F800
03FC00
01FFFE
01FFFE
00FFFE
007FFE
003FFC
000300
001E00
001E00
001E00
001E00
001E00
001E00
003C00
003C00
007800
001800
ENDCHAR
STARTCHAR 0237
ENCODING 567
SWIDTH 604 0
DWIDTH 29 0
BBX 15 37 6 -11
BITMAP
7FFE
7FFE
7FFE
7FFE
7FFE
00FE
00FE
00FE
00FE
00FE
00FE
00FE
00FE
00FE
00FE
00FE
00FE
00FE
00FE
00FE
00FE
00FE
00FE
00FE
00FE
00FE
00FE
00FE
00FC
01FC
03FC
FFFC
FFF8
FFF0
FFE0
FFC0
3000
ENDCHAR
STARTCHAR 0259
ENCODING 601
SWIDTH 604 0
DWIDTH 29 0
BBX 23 26 4 0
BITMAP
03FC00
1FFF80
7FFFC0
7FFFF0
7FFFF0
3E0FF8
2003FC
0001FC
0000FC
0000FE
FFFFFE
FFFFFE
FFFFFE
FFFFFE
FFFFFE
FE00FE
FE00FE
FE00FC
7E01FC
7F03FC
7FC7F8
3FFFF0
1FFFF0
0FFFE0
07FF80
01FE00
ENDCHAR
STARTCHAR 02BC
ENCODING 700
SWIDTH 604 0
DWIDTH 29 0
BBX 7 13 11 24
BITMAP
3E
3E
3E
3E
3E
3E
3E
3C
7C
7C
F8
F0
30
ENDCHAR
STARTCHAR 02C6
ENCODING 710
SWIDTH 583 0
DWIDTH 28 0
BBX 17 7 3 29
BITMAP
01C000
07E000
0FF800
1FFC00
3F7E00
7E3F00
FC1F80
ENDCHAR
STARTCHAR 02C7
ENCODING 711
SWIDTH 604 0
DWIDTH 29 0
BBX 18 7 6 29
BITMAP
FC0FC0
7E1F80
3F3F00
1FFE00
0FFC00
07F800
03F000
ENDCHAR
STARTCHAR 02C9
ENCODING 713
SWIDTH 583 0
DWIDTH 28 0
BBX 17 4 6 30
BITMAP
FFFF80
FFFF80
FFFF80
FFFF80
ENDCHAR
STARTCHAR 02D8
ENCODING 728
SWIDTH 604 0
DWIDTH 29 0
BBX 16 7 7 27
BITMAP
F81F
F81F
FC3F
7FFE
3FFC
1FF8
07E0
ENDCHAR
STARTCHAR 02D9
ENCODING 729
SWIDTH 583 0
DWIDTH 28 0
BBX 7 7 11 29
BITMAP
78
FC
FC
FE
FC
FC
78
ENDCHAR
STARTCHAR 02DA
ENCODING 730
SWIDTH 604 0
DWIDTH 29 0
BBX 10 9 9 25
BITMAP
3F00
7F80
F3C0
E1C0
E1C0
E1C0
F3C0
7F80
1E00
ENDCHAR
STARTCHAR 02DB
ENCODING 731
SWIDTH 604 0
DWIDTH 29 0
BBX 9 11 9 -10
BITMAP
0E00
3F00
7C00
7C00
F800
F800
F800
FF80
7F80
7F80
1F00
ENDCHAR
STARTCHAR 02DC
ENCODING 732
SWIDTH 604 0
DWIDTH 29 0
BBX 17 6 3 30
BITMAP
1E0380
3FC780
7FFF80
FFFF00
F1FE00
E07C00
ENDCHAR
STARTCHAR 02DD
ENCODING 733
SWIDTH 604 0
DWIDTH 29 0
BBX 19 6 5 30
BITMAP
0FC7E0
1F8FC0
1F1F80
3E3F00
7C7C00
F8F800
ENDCHAR
STARTCHAR 02F3
ENCODING 755
SWIDTH 604 0
DWIDTH 29 0
BBX 8 7 10 -9
BITMAP
3C
7E
E7
E7
E7
7E
3C
ENDCHAR
STARTCHAR 0300
ENCODING 768
SWIDTH 604 0
DWIDTH 29 0
BBX 8 9 -20 29
BITMAP
F8
F8
7C
7C
3E
1E
1F
0F
0F
ENDCHAR
STARTCHAR 0301
ENCODING 769
SWIDTH 604 0
DWIDTH 29 0
BBX 8 8 -15 29
BITMAP
1F
3E
3E
3C
7C
78
F0
F0
ENDCHAR
STARTCHAR 0303
ENCODING 771
SWIDTH 604 0
DWIDTH 29 0
BBX 17 6 -21 30
BITMAP
1E0380
3FC780
7FFF80
FFFF00
F1FE00
E07C00
ENDCHAR
STARTCHAR 0309
ENCODING 777
SWIDTH 604 0
DWIDTH 29 0
BBX 9 10 -17 29
BITMAP
F800
FE00
FF00
1F80
1F80
1F80
FF00
FE00
FC00
FC00
ENDCHAR
STARTCHAR 030F
ENCODING 783
SWIDTH 604 0
DWIDTH 29 0
BBX 19 6 -24 30
BITMAP
FE7F00
7F3F00
1F9F80
0FCFC0
07E7E0
03F3E0
ENDCHAR
STARTCHAR 0323
ENCODING 803
SWIDTH 604 0
DWIDTH 29 0
BBX 8 7 -18 -9
BITMAP
3C
7E
FF
FF
FF
7E
3C
ENDCHAR
STARTCHAR 0384
ENCODING 900
SWIDTH 604 0
DWIDTH 29 0
BBX 8 9 14 30
BITMAP
7F
7E
7E
7C
78
F8
F0
F0
E0
ENDCHAR
STARTCHAR 0385
ENCODING 901
SWIDTH 604 0
DWIDTH 29 0
BBX 19 14 6 29
BITMAP
007E00
007E00
007C00
007C00
00F800
00F800
00F000
00F000
7803C0
FC07E0
FC07E0
FC07E0
FC07E0
7803C0
ENDCHAR
STARTCHAR 0386
ENCODING 902
SWIDTH 604 0
DWIDTH 29 0
BBX 28 39 1 0
BITMAP
3F000000
7E000000
7E000000
7C000000
7C000000
781F8000
F83F8000
F03FC000
E03FC000
007FC000
007FE000
007FE000
00FFE000
00FFF000
00FFF000
01FBF000
01F9F800
01F9F800
03F1F800
03F1FC00
03F0FC00
07F0FC00
07E0FC00
07E0FE00
0FE07E00
0FE07E00
0FC07F00
1FFFFF00
1FFFFF00
1FFFFF80
3FFFFF80
3FFFFF80
3F001FC0
7F001FC0
7F000FC0
7F000FE0
FE000FE0
FE000FE0
FE0007F0
ENDCHAR
STARTCHAR 0387
ENCODING 903
SWIDTH 583 0
DWIDTH 28 0
BBX 7 7 13 13
BITMAP
38
7C
FE
FE
FE
7C
38
ENDCHAR
STARTCHAR 0388
ENCODING 904
SWIDTH 604 0
DWIDTH 29 0
BBX 31 39 -3 0
BITMAP
3F000000
3F000000
3E000000
7E000000
7C000000
78FFFFFE
78FFFFFE
70FFFFFE
F0FFFFFE
00FFFFFE
00FE0000
00FE0000
00FE0000
00FE0000
00FE0000
00FE0000
00FE0000
00FE0000
00FE0000
00FFFFF8
00FFFFF8
00FFFFF8
00FFFFF8
00FFFFF8
00FE0000
00FE0000
00FE0000
00FE0000
00FE0000
00FE0000
00FE0000
00FE0000
00FE0000
00FE0000
00FFFFFE
00FFFFFE
00FFFFFE
00FFFFFE
00FFFFFE
ENDCHAR
STARTCHAR 0389
ENCODING 905
SWIDTH 604 0
DWIDTH 29 0
BBX 30 39 -2 0
BITMAP
3F000000
7E000000
7E000000
7C000000
7C000000
79FC01FC
F9FC01FC
F1FC01FC
F1FC01FC
01FC01FC
01FC01FC
01FC01FC
01FC01FC
01FC01FC
01FC01FC
01FC01FC
01FC01FC
01FC01FC
01FC01FC
01FFFFFC
01FFFFFC
01FFFFFC
01FFFFFC
01FFFFFC
01FC01FC
01FC01FC
01FC01FC
01FC01FC
01FC01FC
01FC01FC
01FC01FC
01FC01FC
01FC01FC
01FC01FC
01FC01FC
01FC01FC
01FC01FC
01FC01FC
01FC01FC
ENDCHAR
STARTCHAR 038A
ENCODING 906
SWIDTH 604 0
DWIDTH 29 0
BBX 27 39 -2 0
BITMAP
3F000000
7E000000
7E000000
7C000000
7C000000
79FFFFE0
F9FFFFE0
F1FFFFE0
E1FFFFE0
01FFFFE0
0007F000
0007F000
0007F000
0007F000
0007F000
0007F000
0007F000
0007F000
0007F000
0007F000
0007F000
0007F000
0007F000
0007F000
0007F000
0007F000
0007F000
0007F000
0007F000
0007F000
0007F000
0007F000
0007F000
0007F000
01FFFFE0
01FFFFE0
01FFFFE0
01FFFFE0
01FFFFE0
ENDCHAR
STARTCHAR 038C
ENCODING 908
SWIDTH 604 0
DWIDTH 29 0
BBX 30 40 -3 0
BITMAP
3F000000
3F000000
3E000000
7E000000
7C000000
78000000
7803F800
701FFE00
F03FFF80
007FFFC0
00FFFFE0
01FF1FF0
01FC07F0
03F803F8
03F003F8
03F001F8
07F001FC
07F001FC
07F001FC
07F001FC
07F001FC
07F001FC
07F001FC
07F001FC
07F001FC
07F001FC
07F001FC
07F001FC
07F001FC
07F001FC
03F001F8
03F003F8
03F803F8
01FC07F0
01FF1FF0
00FFFFE0
007FFFC0
003FFF80
001FFE00
0003F800
ENDCHAR
STARTCHAR 038E
ENCODING 910
SWIDTH 604 0
DWIDTH 29 0
BBX 34 39 -3 0
BITMAP
3F00000000
3F00000000
7E00000000
7C00000000
7C00000000
79FC001FC0
79FC003FC0
F0FE003F80
F0FE003F80
007F007F00
007F007F00
003F00FE00
003F80FE00
001F81FC00
001FC1FC00
000FC1F800
000FE3F800
000FE3F000
0007E7F000
0007F7E000
0003FFE000
0003FFC000
0001FFC000
0001FF8000
0000FF8000
0000FF0000
00007F0000
00007F0000
00007F0000
00007F0000
00007F0000
00007F0000
00007F0000
00007F0000
00007F0000
00007F0000
00007F0000
00007F0000
00007F0000
ENDCHAR
STARTCHAR 038F
ENCODING 911
SWIDTH 604 0
DWIDTH 29 0
BBX 29 39 -2 0
BITMAP
3F000000
7E000000
7E000000
7C000000
78000000
F807F000
F03FFC00
F07FFF00
E0FFFF80
01FFFFC0
03FE3FE0
03F80FE0
07F807F0
07F007F0
07F003F0
0FE003F8
0FE003F8
0FE003F8
0FE003F8
0FE003F8
0FE003F8
0FE003F8
0FE003F8
0FE003F8
0FE003F8
07E003F0
07E003F0
07F003F0
03F007E0
01F007E0
01F80FC0
00F80F80
007E3F00
003E3E00
0FFE3FF8
0FFE3FF8
0FFE3FF8
0FFE3FF8
0FFE3FF8
ENDCHAR
STARTCHAR 0390
ENCODING 912
SWIDTH 604 0
DWIDTH 29 0
BBX 21 41 4 0
BITMAP
003F00
003F00
003E00
003E00
007C00
007C00
007800
3C79E0
7E03F0
7E03F0
7E03F0
7E03F0
3C01E0
000000
000000
FFFC00
FFFC00
FFFC00
FFFC00
FFFC00
01FC00
01FC00
01FC00
01FC00
01FC00
01FC00
01FC00
01FC00
01FC00
01FC00
01FC00
01FC00
01FC00
01FC00
01FC00
01FE38
00FFF8
00FFF8
007FF8
003FF8
000FE0
ENDCHAR
STARTCHAR 0391
ENCODING 913
SWIDTH 604 0
DWIDTH 29 0
BBX 28 34 1 0
BITMAP
001F8000
003F8000
003FC000
003FC000
007FC000
007FE000
007FE000
00FFE000
00FFF000
00FFF000
01FBF000
01FBF800
01F9F800
03F9F800
03F1FC00
03F0FC00
07F0FC00
07E0FC00
07E0FE00
0FE07E00
0FE07E00
0FC07F00
1FFFFF00
1FFFFF00
1FFFFF80
3FFFFF80
3FFFFF80
3F001FC0
7F001FC0
7F000FC0
7F000FE0
FE000FE0
FE000FE0
FE0007F0
ENDCHAR
STARTCHAR 0392
ENCODING 914
SWIDTH 604 0
DWIDTH 29 0
BBX 25 34 3 0
BITMAP
FFFF0000
FFFFE000
FFFFF800
FFFFFC00
FFFFFE00
FE03FE00
FE00FF00
FE007F00
FE007F00
FE007F00
FE007F00
FE007F00
FE00FE00
FE03FE00
FFFFFC00
FFFFF000
FFFFF000
FFFFFC00
FFFFFE00
FE01FE00
FE007F00
FE003F00
FE003F00
FE003F00
FE003F80
FE003F00
FE007F00
FE00FF00
FE03FF00
FFFFFE00
FFFFFC00
FFFFF800
FFFFF000
FFFF8000
ENDCHAR
STARTCHAR 0393
ENCODING 915
SWIDTH 583 0
DWIDTH 28 0
BBX 22 34 3 0
BITMAP
FFFFFC
FFFFFC
FFFFFC
FFFFFC
FFFFFC
FE0000
FE0000
FE0000
FE0000
FE0000
FE0000
FE0000
FE0000
FE0000
FE0000
FE0000
FE0000
FE0000
FE0000
FE0000
FE0000
FE0000
FE0000
FE0000
FE0000
FE0000
FE0000
FE0000
FE0000
FE0000
FE0000
FE0000
FE0000
FE0000
ENDCHAR
STARTCHAR 0394
ENCODING 916
SWIDTH 604 0
DWIDTH 29 0
BBX 29 34 1 0
BITMAP
001FC000
001FC000
003FE000
003FE000
003FE000
007FF000
007FF000
007FF000
00FFF800
00FDF800
00FDF800
01FDFC00
01F8FC00
01F8FC00
03F8FE00
03F07E00
03F07E00
07F07F00
07F07F00
07E03F00
0FE03F80
0FE03F80
0FC01F80
1FC01FC0
1FC01FC0
1F800FC0
3F800FE0
3F800FE0
3F000FE0
7FFFFFF0
7FFFFFF0
7FFFFFF0
FFFFFFF8
FFFFFFF8
ENDCHAR
STARTCHAR 0395
ENCODING 917
SWIDTH 583 0
DWIDTH 28 0
BBX 23 34 3 0
BITMAP
FFFFFE
FFFFFE
FFFFFE
FFFFFE
FFFFFE
FE0000
FE0000
FE0000
FE0000
FE0000
FE0000
FE0000
FE0000
FE0000
FFFFF8
FFFFF8
FFFFF8
FFFFF8
FFFFF8
FE0000
FE0000
FE0000
FE0000
FE0000
FE0000
FE0000
FE0000
FE0000
FE0000
FFFFFE
FFFFFE
FFFFFE
FFFFFE
FFFFFE
ENDCHAR
STARTCHAR 0396
ENCODING 918
SWIDTH 604 0
DWIDTH 29 0
BBX 25 34 2 0
BITMAP
FFFFFF00
FFFFFF00
FFFFFF00
FFFFFF00
FFFFFF00
0000FE00
0001FC00
0001FC00
0003F800
0007F000
0007F000
000FE000
001FC000
001FC000
003F8000
007F0000
007F0000
00FE0000
00FC0000
01FC0000
03F80000
03F80000
07F00000
0FE00000
0FE00000
1FC00000
3F800000
3F800000
7F000000
FFFFFF80
FFFFFF80
FFFFFF80
FFFFFF80
FFFFFF80
ENDCHAR
STARTCHAR 0397
ENCODING 919
SWIDTH 604 0
DWIDTH 29 0
BBX 23 34 3 0
BITMAP
FE00FE
FE00FE
FE00FE
FE00FE
FE00FE
FE00FE
FE00FE
FE00FE
FE00FE
FE00FE
FE00FE
FE00FE
FE00FE
FE00FE
FFFFFE
FFFFFE
FFFFFE
FFFFFE
FFFFFE
FE00FE
FE00FE
FE00FE
FE00FE
FE00FE
FE00FE
FE00FE
FE00FE
FE00FE
FE00FE
FE00FE
FE00FE
FE00FE
FE00FE
FE00FE
ENDCHAR
STARTCHAR 0398
ENCODING 920
SWIDTH 604 0
DWIDTH 29 0
BBX 25 34 2 0
BITMAP
007F0000
03FFC000
07FFF000
0FFFF800
1FFFFC00
3FE3FE00
3F80FE00
7F007F00
7E007F00
7E003F00
FE003F80
FE003F80
FE003F80
FE003F80
FEFFBF80
FEFFBF80
FEFFBF80
FEFFBF80
FEFFBF80
FE003F80
FE003F80
FE003F80
FE003F80
FE003F80
7E003F00
7F007F00
7F007F00
3F80FE00
3FE3FE00
1FFFFC00
0FFFF800
07FFF000
03FFC000
00FF0000
ENDCHAR
STARTCHAR 0399
ENCODING 921
SWIDTH 625 0
DWIDTH 30 0
BBX 20 34 5 0
BITMAP
FFFFF0
FFFFF0
FFFFF0
FFFFF0
FFFFF0
03F800
03F800
03F800
03F800
03F800
03F800
03F800
03F800
03F800
03F800
03F800
03F800
03F800
03F800
03F800
03F800
03F800
03F800
03F800
03F800
03F800
03F800
03F800
03F800
FFFFF0
FFFFF0
FFFFF0
FFFFF0
FFFFF0
ENDCHAR
STARTCHAR 039A
ENCODING 922
SWIDTH 604 0
DWIDTH 29 0
BBX 26 34 3 0
BITMAP
FE003FC0
FE007F80
FE00FF00
FE01FE00
FE01FE00
FE03FC00
FE07F800
FE0FF000
FE0FE000
FE1FE000
FE3FC000
FE3F8000
FE7F0000
FEFF0000
FFFE0000
FFFE0000
FFFE0000
FFFF0000
FFFF8000
FFFF8000
FFFFC000
FF9FE000
FF0FE000
FE0FF000
FE07F000
FE07F800
FE03FC00
FE01FC00
FE01FE00
FE00FF00
FE00FF00
FE007F80
FE003F80
FE003FC0
ENDCHAR
STARTCHAR 039B
ENCODING 923
SWIDTH 604 0
DWIDTH 29 0
BBX 27 34 1 0
BITMAP
003F8000
003F8000
007F8000
007FC000
007FC000
00FFC000
00FFE000
00FFE000
01FFE000
01FBF000
01FBF000
03FBF000
03F3F800
03F1F800
03F1F800
07E1FC00
07E0FC00
07E0FC00
0FE0FC00
0FC0FE00
0FC07E00
1FC07E00
1FC07F00
1F807F00
3F803F00
3F803F80
3F003F80
3F001F80
7F001FC0
7F001FC0
7E001FC0
FE000FC0
FE000FE0
FE000FE0
ENDCHAR
STARTCHAR 039C
ENCODING 924
SWIDTH 604 0
DWIDTH 29 0
BBX 24 34 3 0
BITMAP
FF81FF
FF81FF
FF83FF
FF83FF
FFC3FF
FFC7FF
FFC7FF
FFC7FF
FFE7FF
FFEFFF
FFEF7F
FFEF7F
FFEF7F
FEFF7F
FEFE7F
FEFE7F
FEFE7F
FE7C7F
FE7C7F
FE7C7F
FE7C7F
FE387F
FE387F
FE007F
FE007F
FE007F
FE007F
FE007F
FE007F
FE007F
FE007F
FE007F
FE007F
FE007F
ENDCHAR
STARTCHAR 039D
ENCODING 925
SWIDTH 604 0
DWIDTH 29 0
BBX 23 34 3 0
BITMAP
FE00FE
FE00FE
FF00FE
FF00FE
FF00FE
FF80FE
FF80FE
FFC0FE
FFC0FE
FFE0FE
FFE0FE
FFF0FE
FFF0FE
FFF0FE
FEF8FE
FEF8FE
FEFCFE
FE7CFE
FE7EFE
FE3EFE
FE3EFE
FE1FFE
FE1FFE
FE1FFE
FE0FFE
FE0FFE
FE07FE
FE07FE
FE03FE
FE03FE
FE01FE
FE01FE
FE01FE
FE00FE
ENDCHAR
STARTCHAR 039E
ENCODING 926
SWIDTH 604 0
DWIDTH 29 0
BBX 23 34 3 0
BITMAP
FFFFFC
FFFFFC
FFFFFC
FFFFFC
FFFFFC
000000
000000
000000
000000
000000
000000
000000
000000
000000
3FFFF0
3FFFF0
3FFFF0
3FFFF0
3FFFF0
000000
000000
000000
000000
000000
000000
000000
000000
000000
000000
FFFFFE
FFFFFE
FFFFFE
FFFFFE
FFFFFE
ENDCHAR
STARTCHAR 039F
ENCODING 927
SWIDTH 604 0
DWIDTH 29 0
BBX 25 34 2 0
BITMAP
007F0000
03FFC000
07FFF000
0FFFF800
1FFFFC00
3FE3FE00
3F80FE00
7F007F00
7E007F00
7E003F00
FE003F80
FE003F80
FE003F80
FE003F80
FE003F80
FE003F80
FE003F80
FE003F80
FE003F80
FE003F80
FE003F80
FE003F80
FE003F80
FE003F80
7E003F00
7E007F00
7F007F00
3F80FE00
3FE3FE00
1FFFFC00
0FFFF800
07FFF000
03FFC000
007F0000
ENDCHAR
STARTCHAR 03A0
ENCODING 928
SWIDTH 604 0
DWIDTH 29 0
BBX 23 34 3 0
BITMAP
FFFFFE
FFFFFE
FFFFFE
FFFFFE
FFFFFE
FE00FE
FE00FE
FE00FE
FE00FE
FE00FE
FE00FE
FE00FE
FE00FE
FE00FE
FE00FE
FE00FE
FE00FE
FE00FE
FE00FE
FE00FE
FE00FE
FE00FE
FE00FE
FE00FE
FE00FE
FE00FE
FE00FE
FE00FE
FE00FE
FE00FE
FE00FE
FE00FE
FE00FE
FE00FE
ENDCHAR
STARTCHAR 03A1
ENCODING 929
SWIDTH 583 0
DWIDTH 28 0
BBX 24 34 3 0
BITMAP
FFFF00
FFFFC0
FFFFF0
FFFFF8
FFFFFC
FE07FE
FE00FE
FE007F
FE007F
FE007F
FE007F
FE007F
FE007F
FE007F
FE00FE
FE03FE
FFFFFC
FFFFFC
FFFFF0
FFFFE0
FFFF80
FE0000
FE0000
FE0000
FE0000
FE0000
FE0000
FE0000
FE0000
FE0000
FE0000
FE0000
FE0000
FE0000
ENDCHAR
STARTCHAR 03A3
ENCODING 931
SWIDTH 604 0
DWIDTH 29 0
BBX 24 34 3 0
BITMAP
FFFFFF
FFFFFF
FFFFFF
FFFFFF
7FFFFF
3F8000
3FC000
1FE000
0FF000
07F000
03F800
03FC00
01FE00
00FE00
007F00
003F80
003FC0
003F80
007F80
007F00
00FE00
01FC00
03FC00
07F800
07F000
0FE000
1FE000
3FC000
3F8000
7FFFFF
FFFFFF
FFFFFF
FFFFFF
FFFFFF
ENDCHAR
STARTCHAR 03A4
ENCODING 932
SWIDTH 625 0
DWIDTH 30 0
BBX 28 34 1 0
BITMAP
FFFFFFF0
FFFFFFF0
FFFFFFF0
FFFFFFF0
FFFFFFF0
003F8000
003F8000
003F8000
003F8000
003F8000
003F8000
003F8000
003F8000
003F8000
003F8000
003F8000
003F8000
003F8000
003F8000
003F8000
003F8000
003F8000
003F8000
003F8000
003F8000
003F8000
003F8000
003F8000
003F8000
003F8000
003F8000
003F8000
003F8000
003F8000
ENDCHAR
STARTCHAR 03A5
ENCODING 933
SWIDTH 583 0
DWIDTH 28 0
BBX 27 34 1 0
BITMAP
FE000FE0
FE001FE0
7F001FC0
7F001FC0
3F803F80
3F803F80
1F807F00
1FC07F00
0FC0FE00
0FE0FE00
0FE0FC00
07F1FC00
07F1F800
03F3F800
03FBF000
01FFF000
01FFE000
00FFE000
00FFC000
007FC000
007F8000
003F8000
003F8000
003F8000
003F8000
003F8000
003F8000
003F8000
003F8000
003F8000
003F8000
003F8000
003F8000
003F8000
ENDCHAR
STARTCHAR 03A6
ENCODING 934
SWIDTH 625 0
DWIDTH 30 0
BBX 29 34 2 0
BITMAP
001FC000
001FC000
001FC000
001FC000
001FC000
01FFF800
07FFFE00
0FFFFF00
1FFFFF80
3FFFFFC0
3FDFFFE0
7F9FCFE0
7F1FC7F0
FE1FC7F0
FE1FC3F0
FE1FC3F0
FE1FC3F0
FE1FC3F8
FE1FC3F0
FE1FC3F0
FE1FC7F0
7F1FC7F0
7F1FCFF0
7FDFDFE0
3FFFFFC0
1FFFFFC0
0FFFFF80
07FFFE00
01FFFC00
003FC000
001FC000
001FC000
001FC000
001FC000
ENDCHAR
STARTCHAR 03A7
ENCODING 935
SWIDTH 604 0
DWIDTH 29 0
BBX 27 34 1 0
BITMAP
FF001FE0
7F001FE0
7F803FC0
3F803F80
1FC07F80
1FC07F00
0FE0FF00
0FE0FE00
07F0FE00
07F1FC00
03F9F800
03FBF800
01FFF000
00FFF000
00FFE000
007FE000
007FC000
007FC000
007FE000
00FFE000
01FFF000
01FFF800
03FBF800
03F9FC00
07F1FC00
07F0FE00
0FE0FE00
1FE07F00
1FC07F80
3FC03F80
3F803FC0
7F801FC0
7F001FE0
FF000FE0
ENDCHAR
STARTCHAR 03A8
ENCODING 936
SWIDTH 604 0
DWIDTH 29 0
BBX 28 34 2 0
BITMAP
FE1FC7F0
FE1FC7F0
FE1FC7F0
FE1FC7F0
FE1FC7F0
FE1FC7F0
FE1FC7F0
FE1FC7F0
FE1FC7F0
FE1FC7F0
FE1FC7F0
FE1FC7F0
FE1FC7F0
FE1FC7F0
FE1FC7E0
FE1FC7E0
FE1FC7E0
FE1FCFE0
7F1FCFE0
7F9FDFC0
3FFFFFC0
3FFFFF80
1FFFFF80
0FFFFF00
03FFFC00
00FFF000
001FC000
001FC000
001FC000
001FC000
001FC000
001FC000
001FC000
001FC000
ENDCHAR
STARTCHAR 03A9
ENCODING 937
SWIDTH 604 0
DWIDTH 29 0
BBX 25 34 2 0
BITMAP
007F0000
03FFC000
07FFF000
0FFFF800
1FFFFC00
3FE3FE00
3F80FE00
7F807F00
7F007F00
7F003F00
FE003F80
FE003F80
FE003F80
FE003F80
FE003F80
FE003F80
FE003F80
FE003F80
FE003F80
FE003F80
7E003F00
7E003F00
7F003F00
3F007E00
1F007E00
1F80FC00
0F80F800
07E3F000
03E3E000
FFE3FF80
FFE3FF80
FFE3FF80
FFE3FF80
FFE3FF80
ENDCHAR
STARTCHAR 03AA
ENCODING 938
SWIDTH 625 0
DWIDTH 30 0
BBX 20 43 5 0
BITMAP
3C0780
7E0FC0
FE0FE0
7E0FC0
7C07C0
000000
000000
000000
000000
FFFFF0
FFFFF0
FFFFF0
FFFFF0
FFFFF0
03F800
03F800
03F800
03F800
03F800
03F800
03F800
03F800
03F800
03F800
03F800
03F800
03F800
03F800
03F800
03F800
03F800
03F800
03F800
03F800
03F800
03F800
03F800
03F800
FFFFF0
FFFFF0
FFFFF0
FFFFF0
FFFFF0
ENDCHAR
STARTCHAR 03AB
ENCODING 939
SWIDTH 604 0
DWIDTH 29 0
BBX 28 43 1 0
BITMAP
03C07800
07E0FC00
07F0FE00
07E0FC00
03E07C00
00000000
00000000
00000000
00000000
FE000FF0
7F000FE0
7F001FE0
3F801FC0
3F801FC0
1FC03F80
1FC03F80
0FC07F00
0FE07F00
07E07E00
07F0FE00
07F0FC00
03F1FC00
03F9F800
01FBF800
01FFF000
00FFF000
00FFE000
007FE000
007FC000
003FC000
003F8000
003F8000
003F8000
003F8000
003F8000
003F8000
003F8000
003F8000
003F8000
003F8000
003F8000
003F8000
003F8000
ENDCHAR
STARTCHAR 03AC
ENCODING 940
SWIDTH 583 0
DWIDTH 28 0
BBX 25 40 2 0
BITMAP
000FC000
000F8000
001F8000
001F0000
001F0000
001E0000
001E0000
003C0000
003C0000
00000000
00000000
00000000
00000000
00000000
03F07C00
07FCFC00
1FFEFC00
1FFFFC00
3FFFFC00
7FC7FC00
7F01FC00
7F01FC00
FE01FC00
FE01FC00
FE01FC00
FE01FC00
FE01FC00
FE01FC00
FE01FC00
FE01FC00
FE01FC00
FE01FC00
7E01FC00
7F01FC00
7FC7FC00
3FFFFF00
3FFFFF00
1FFEFF80
0FFC7F80
03F01F80
ENDCHAR
STARTCHAR 03AD
ENCODING 941
SWIDTH 604 0
DWIDTH 29 0
BBX 25 40 3 0
BITMAP
000FC000
000FC000
000F8000
001F8000
001F0000
001E0000
001E0000
001C0000
003C0000
00000000
00000000
00000000
00000000
00000000
01FF8000
0FFFF000
1FFFF800
3FFFFC00
7FFFFE00
7FC1FF00
FF007F00
7E003F00
7E000000
7F000000
3FFFC000
0FFFC000
0FFFC000
3FFFC000
7F800000
FE000000
FE000000
FE003F80
FE003F00
FF007F00
FFC3FF00
7FFFFE00
3FFFFE00
1FFFF800
07FFF000
00FF8000
ENDCHAR
STARTCHAR 03AE
ENCODING 942
SWIDTH 604 0
DWIDTH 29 0
BBX 23 49 3 -10
BITMAP
000FC0
001F80
001F80
001F00
001F00
001E00
003C00
003C00
003800
000000
000000
000000
000000
FC1F80
FC7FE0
FCFFF0
FDFFF8
FFFFFC
FFC7FC
FE01FC
FE00FC
FE00FC
FE00FE
FE00FE
FE00FE
FE00FE
FE00FE
FE00FE
FE00FE
FE00FE
FE00FE
FE00FE
FE00FE
FE00FE
FE00FE
FE00FE
FE00FE
FE00FE
FE00FE
0000FE
0000FE
0000FE
0000FE
0000FE
0000FE
0000FE
0000FE
0000FE
0000FE
ENDCHAR
STARTCHAR 03AF
ENCODING 943
SWIDTH 604 0
DWIDTH 29 0
BBX 21 39 4 0
BITMAP
001F80
003F00
003F00
003E00
003E00
003C00
007800
007800
007000
000000
000000
000000
000000
FFFC00
FFFC00
FFFC00
FFFC00
FFFC00
01FC00
01FC00
01FC00
01FC00
01FC00
01FC00
01FC00
01FC00
01FC00
01FC00
01FC00
01FC00
01FC00
01FC00
01FC00
01FE38
00FFF8
00FFF8
007FF8
003FF8
000FE0
ENDCHAR
STARTCHAR 03B0
ENCODING 944
SWIDTH 604 0
DWIDTH 29 0
BBX 23 42 3 0
BITMAP
003F80
003F00
003F00
003E00
003E00
003C00
003C00
003800
1E00F0
3F01F8
3F03F8
3F01F8
3F01F8
1E00F0
000000
000000
FE03F8
FE01F8
FE01F8
FE01FC
FE01FC
FE00FC
FE00FC
FE00FE
FE00FE
FE00FE
FE00FE
FE00FE
FE00FE
FE00FE
FE00FE
FE00FE
FE00FE
FE01FC
FE01FC
7F03FC
7FC7F8
3FFFF8
3FFFF0
1FFFE0
07FFC0
01FE00
ENDCHAR
STARTCHAR 03B1
ENCODING 945
SWIDTH 583 0
DWIDTH 28 0
BBX 25 26 2 0
BITMAP
03F07C00
07FCFC00
1FFEFC00
1FFFFC00
3FFFFC00
7FC7FC00
7F01FC00
7F01FC00
FE01FC00
FE01FC00
FE01FC00
FE01FC00
FE01FC00
FE01FC00
FE01FC00
FE01FC00
FE01FC00
FE01FC00
7E01FC00
7F01FC00
7FC7FC00
3FFFFF00
3FFFFF00
1FFEFF80
0FFC7F80
03F01F80
ENDCHAR
STARTCHAR 03B2
ENCODING 946
SWIDTH 604 0
DWIDTH 29 0
BBX 24 44 4 -9
BITMAP
03FF80
0FFFC0
1FFFF0
3FFFF0
7FFFF8
7F83F8
7F01FC
FE01FC
FE01FC
FE01FC
FE01FC
FE01FC
FE01F8
FE07F8
FE3FF0
FE3FE0
FE3FC0
FE3FF0
FE3FF8
FE03FC
FE00FE
FE00FE
FE007E
FE007E
FE007F
FE007E
FE00FE
FE01FE
FF87FE
FFFFFC
FFFFFC
FFFFF8
FFFFE0
FE3F80
FE0000
FE0000
FE0000
FE0000
FE0000
FE0000
FE0000
FE0000
FE0000
FE0000
ENDCHAR
STARTCHAR 03B3
ENCODING 947
SWIDTH 583 0
DWIDTH 28 0
BBX 27 36 1 -10
BITMAP
FE000FE0
FE000FC0
7E001FC0
7F001FC0
7F001F80
3F003F80
3F803F00
1F803F00
1F807E00
1FC07E00
0FC07E00
0FE0FC00
07E0FC00
07E1F800
03F1F800
03F1F800
03F3F000
01FBF000
01FBE000
00FBE000
00FFE000
00FFC000
007FC000
007F8000
003F8000
003F8000
003F8000
003F8000
003F8000
003F8000
003F8000
003F8000
003F8000
003F8000
003F8000
003F8000
ENDCHAR
STARTCHAR 03B4
ENCODING 948
SWIDTH 604 0
DWIDTH 29 0
BBX 25 38 2 0
BITMAP
007F0000
03FFE000
07FFF000
0FFFF000
0FFFF000
1FF1E000
1FC00000
1FC00000
1FC00000
1FC00000
0FF00000
0FFE0000
07FF8000
03FFE000
00FFF000
07FFF800
0FFFFC00
1FC1FE00
3F00FF00
7F007F00
7E007F00
7E003F80
FE003F80
FE003F80
FE003F80
FE003F80
FE003F80
FE003F80
FE003F80
7E003F00
7F007F00
7F80FF00
3FE3FE00
1FFFFC00
1FFFFC00
0FFFF000
03FFE000
00FF8000
ENDCHAR
STARTCHAR 03B5
ENCODING 949
SWIDTH 604 0
DWIDTH 29 0
BBX 25 26 3 0
BITMAP
01FF8000
0FFFF000
1FFFF800
3FFFFC00
7FFFFE00
7FC1FF00
FF007F00
7E003F00
7E000000
7F000000
3FFFC000
0FFFC000
0FFFC000
3FFFC000
7F800000
FE000000
FE000000
FE003F80
FE003F00
FF007F00
FFC3FF00
7FFFFE00
3FFFFE00
1FFFF800
07FFF000
00FF8000
ENDCHAR
STARTCHAR 03B6
ENCODING 950
SWIDTH 604 0
DWIDTH 29 0
BBX 23 43 2 -10
BITMAP
FFFFFE
FFFFFE
FFFFFE
FFFFFE
FFFFFC
0003F8
0007F0
000FE0
001FC0
003F80
007F80
00FF00
01FE00
03FC00
07F800
0FF000
0FE000
1FC000
3F8000
3F0000
7F0000
7E0000
7E0000
7E0000
FE0000
FE0000
7E0000
7F0000
7FC000
7FFE00
3FFFC0
1FFFF0
07FFF8
01FFFC
000FFC
0001FC
0000FC
0000FC
0001F8
0001F8
0003F0
0003E0
0000C0
ENDCHAR
STARTCHAR 03B7
ENCODING 951
SWIDTH 604 0
DWIDTH 29 0
BBX 23 36 3 -10
BITMAP
FC1F80
FC7FE0
FCFFF0
FDFFF8
FFFFFC
FFC7FC
FE01FC
FE00FC
FE00FC
FE00FE
FE00FE
FE00FE
FE00FE
FE00FE
FE00FE
FE00FE
FE00FE
FE00FE
FE00FE
FE00FE
FE00FE
FE00FE
FE00FE
FE00FE
FE00FE
FE00FE
0000FE
0000FE
0000FE
0000FE
0000FE
0000FE
0000FE
0000FE
0000FE
0000FE
ENDCHAR
STARTCHAR 03B8
ENCODING 952
SWIDTH 604 0
DWIDTH 29 0
BBX 22 34 4 1
BITMAP
03FF00
0FFF80
1FFFC0
3FFFE0
3FFFF0
7F07F0
7E03F8
7E01F8
FE01F8
FE01F8
FE01F8
FE01FC
FE01FC
FE01FC
FFFFFC
FFFFFC
FFFFFC
FFFFFC
FFFFFC
FE01FC
FE01FC
FE01FC
FE01F8
FE01F8
FE01F8
FE01F8
7E03F8
7F03F8
7F8FF0
3FFFF0
1FFFE0
0FFFC0
07FF80
01FC00
ENDCHAR
STARTCHAR 03B9
ENCODING 953
SWIDTH 604 0
DWIDTH 29 0
BBX 21 26 4 0
BITMAP
FFFC00
FFFC00
FFFC00
FFFC00
FFFC00
01FC00
01FC00
01FC00
01FC00
01FC00
01FC00
01FC00
01FC00
01FC00
01FC00
01FC00
01FC00
01FC00
01FC00
01FC00
01FE38
00FFF8
00FFF8
007FF8
003FF8
000FE0
ENDCHAR
STARTCHAR 03BA
ENCODING 954
SWIDTH 604 0
DWIDTH 29 0
BBX 24 26 4 0
BITMAP
FE00FF
FE01FE
FE03FC
FE07F8
FE0FF0
FE1FF0
FE1FE0
FE3FC0
FE7F80
FEFF00
FFFE00
FFFF00
FFFF00
FFFF80
FFFF80
FFFFC0
FFDFE0
FF1FE0
FE0FF0
FE07F8
FE07F8
FE03FC
FE03FC
FE01FE
FE01FF
FE00FF
ENDCHAR
STARTCHAR 03BB
ENCODING 955
SWIDTH 604 0
DWIDTH 29 0
BBX 26 36 1 0
BITMAP
3F000000
3FC00000
3FE00000
3FF00000
3FF80000
07F80000
03FC0000
01FC0000
00FC0000
00FE0000
007E0000
007F0000
007F0000
00FF0000
00FF8000
00FF8000
01FFC000
01FFC000
03FFC000
03FFE000
03FFE000
07F7E000
07E7F000
07E7F000
0FE3F800
0FC3F800
0FC1F800
1FC1FC00
1F81FC00
3F80FE00
3F80FF00
3F807FC0
7F007FC0
7F003FC0
7F001FC0
FE0007C0
ENDCHAR
STARTCHAR 03BC
ENCODING 956
SWIDTH 604 0
DWIDTH 29 0
BBX 23 36 4 -10
BITMAP
FE00FE
FE00FE
FE00FE
FE00FE
FE00FE
FE00FE
FE00FE
FE00FE
FE00FE
FE00FE
FE00FE
FE00FE
FE00FE
FE00FE
FE00FE
FE00FE
FE00FE
FE00FE
FE00FE
FF01FE
FF87FE
FFFFFE
FFFFFE
FFFFFE
FFFFFE
FFFCFE
FE0000
FE0000
FE0000
FE0000
FE0000
FE0000
FE0000
FE0000
FE0000
FE0000
ENDCHAR
STARTCHAR 03BD
ENCODING 957
SWIDTH 604 0
DWIDTH 29 0
BBX 25 26 2 0
BITMAP
FE003F80
FE003F80
7E003F00
7F007F00
7F007E00
3F007E00
3F00FE00
3F80FC00
1F80FC00
1F81FC00
0FC1F800
0FC1F800
0FC1F000
07E3F000
07E3F000
07E3E000
03F7E000
03F7E000
01F7C000
01F7C000
01FFC000
00FF8000
00FF8000
00FF0000
007F0000
007F0000
ENDCHAR
STARTCHAR 03BE
ENCODING 958
SWIDTH 583 0
DWIDTH 28 0
BBX 22 44 4 -10
BITMAP
003FE0
01FFF8
07FFF8
0FFFF8
1FFFF8
1FF030
3FC000
3F8000
3F8000
3F8000
3F8000
1FC000
1FF800
0FFFE0
03FFE0
01FFE0
07FFE0
1FFFE0
3FE000
7F8000
7F0000
FE0000
FE0000
FE0000
FE0000
FE0000
FE0000
FF0000
7F8000
7FF800
3FFF80
1FFFF0
07FFF8
01FFFC
001FFC
0003FC
0000FC
0000FC
0000FC
0000FC
0001F8
0003F0
0000E0
000040
ENDCHAR
STARTCHAR 03BF
ENCODING 959
SWIDTH 583 0
DWIDTH 28 0
BBX 24 26 2 0
BITMAP
00FF00
03FFC0
0FFFF0
1FFFF8
3FFFFC
3FC3FC
7F81FE
7F00FE
7E007E
FE007F
FE007F
FE007F
FE007F
FE007F
FE007F
FE007F
FE007F
7E007E
7F00FE
7F81FE
3FC3FC
3FFFFC
1FFFF8
0FFFF0
03FFC0
00FF00
ENDCHAR
STARTCHAR 03C0
ENCODING 960
SWIDTH 604 0
DWIDTH 29 0
BBX 28 26 2 0
BITMAP
FFFFFFC0
FFFFFFC0
FFFFFFC0
FFFFFFC0
FFFFFFC0
1FC1FC00
1FC1FC00
1FC1FC00
1FC1FC00
1FC1FC00
1FC1FC00
1FC1FC00
1FC1FC00
1FC1FC00
1FC1FC00
1FC1FC00
1FC1FC00
1FC1FC00
1FC1FC00
1FC0FC00
1FC0FE00
1FC0FFE0
1FC0FFE0
1FC07FE0
1FC07FF0
1FC01FE0
ENDCHAR
STARTCHAR 03C1
ENCODING 961
SWIDTH 604 0
DWIDTH 29 0
BBX 23 36 3 -10
BITMAP
00FE00
03FFC0
0FFFE0
1FFFF0
3FFFF8
3FC7F8
7F81FC
7F01FC
FE00FC
FE00FE
FE00FE
FE00FE
FE00FE
FE00FE
FE00FE
FE00FE
FE00FE
FE00FE
FE01FC
FF01FC
FFC7FC
FFFFF8
FFFFF8
FFFFF0
FEFFC0
FE3F80
FE0000
FE0000
FE0000
FE0000
FE0000
FE0000
FE0000
FE0000
FE0000
FE0000
ENDCHAR
STARTCHAR 03C2
ENCODING 962
SWIDTH 604 0
DWIDTH 29 0
BBX 24 36 2 -10
BITMAP
00FF00
03FFE0
0FFFF0
1FFFF8
3FFFFC
3FC3FE
7F80FE
7F00FE
7E007E
FE007F
FE0000
FE0000
FE0000
FE0000
FE0000
FE0000
FE0000
FE0000
7F0000
7F8000
3FE000
1FFF80
0FFFE0
07FFF8
01FFFC
003FFC
0001FC
0000FE
0000FC
0000FC
0001FC
0003F8
000FF0
0007E0
0003C0
000100
ENDCHAR
STARTCHAR 03C3
ENCODING 963
SWIDTH 604 0
DWIDTH 29 0
BBX 26 26 2 0
BITMAP
00FFFFC0
03FFFFC0
0FFFFFC0
1FFFFFC0
3FFFFFC0
3FC3F000
7F81F800
7F00FC00
FE00FC00
FE007E00
FE007E00
FE007E00
FE007E00
FE007F00
FE007F00
FE007E00
FE007E00
7E00FE00
7F00FE00
7F81FC00
3FC7FC00
3FFFF800
1FFFF800
0FFFE000
03FFC000
00FF0000
ENDCHAR
STARTCHAR 03C4
ENCODING 964
SWIDTH 625 0
DWIDTH 30 0
BBX 23 26 2 0
BITMAP
FFFFFE
FFFFFE
FFFFFE
FFFFFE
FFFFFE
00FE00
00FE00
00FE00
00FE00
00FE00
00FE00
00FE00
00FE00
00FE00
00FE00
00FE00
00FE00
00FE00
00FE00
00FE00
00FF0C
007FFC
007FFE
003FFE
001FFE
0007F8
ENDCHAR
STARTCHAR 03C5
ENCODING 965
SWIDTH 604 0
DWIDTH 29 0
BBX 23 26 3 0
BITMAP
FE03F8
FE01F8
FE01F8
FE01FC
FE01FC
FE00FC
FE00FC
FE00FE
FE00FE
FE00FE
FE00FE
FE00FE
FE00FE
FE00FE
FE00FE
FE00FE
FE00FE
FE01FC
FE01FC
7F03FC
7FC7F8
3FFFF8
3FFFF0
1FFFE0
07FFC0
01FE00
ENDCHAR
STARTCHAR 03C6
ENCODING 966
SWIDTH 604 0
DWIDTH 29 0
BBX 27 37 2 -11
BITMAP
0403F000
0E07FC00
1F1FFE00
3FDFFF00
3FBFFF80
7F3FBF80
7F3F9FC0
7E3F8FC0
FE3F8FC0
FE3F8FE0
FE3F8FE0
FE3F8FE0
FE3F8FE0
FE3F8FE0
FE3F8FE0
FE3F8FE0
FE3F8FE0
7E3F8FC0
7F3F9FC0
7FBFBFC0
3FFFFF80
3FFFFF80
1FFFFF00
0FFFFE00
03FFF800
00FFE000
003F8000
003F8000
003F8000
003F8000
003F8000
003F8000
003F8000
003F8000
003F8000
003F8000
003F8000
ENDCHAR
STARTCHAR 03C7
ENCODING 967
SWIDTH 604 0
DWIDTH 29 0
BBX 25 26 2 0
BITMAP
7F003F80
7F007F80
3F807F00
1FC0FE00
1FE1FE00
0FE1FC00
07F3F800
07FFF800
03FFF000
01FFE000
01FFE000
00FFC000
007F8000
00FF8000
00FFC000
01FFE000
03FFE000
03FFF000
07F3F800
0FF3F800
0FE1FC00
1FC0FE00
3FC0FE00
3F807F00
7F003F80
FE003F80
ENDCHAR
STARTCHAR 03C8
ENCODING 968
SWIDTH 604 0
DWIDTH 29 0
BBX 28 37 2 -11
BITMAP
FE3F9FC0
FE3F8FC0
FE3F8FC0
FE3F8FE0
FE3F8FE0
FE3F8FE0
FE3F87E0
FE3F87E0
FE3F87E0
FE3F87E0
FE3F87E0
FE3F87F0
FE3F87F0
FE3F87E0
FE3F87E0
FE3F87E0
FE3F8FE0
7F3F8FE0
7F3F9FC0
7FBFBFC0
3FFFFF80
1FFFFF80
1FFFFF00
07FFFE00
03FFF800
00FFE000
003F8000
003F8000
003F8000
003F8000
003F8000
003F8000
003F8000
003F8000
003F8000
003F8000
003F8000
ENDCHAR
STARTCHAR 03C9
ENCODING 969
SWIDTH 604 0
DWIDTH 29 0
BBX 27 26 1 0
BITMAP
3F803F80
3F001F80
7F001F80
7F001FC0
7F000FC0
7E000FC0
FE3F8FE0
FE3F8FE0
FE3F8FE0
FE3F8FE0
FE3F8FE0
FE3F8FE0
FE3F8FE0
FE3F8FE0
FE3F8FE0
FE3F8FE0
FE3F8FE0
FE3F8FE0
7E3F8FC0
7E3FCFC0
7F7FDFC0
7FFFFFC0
3FFBFF80
1FF9FF00
0FF0FF00
07C07C00
ENDCHAR
STARTCHAR 03CA
ENCODING 970
SWIDTH 604 0
DWIDTH 29 0
BBX 22 35 4 0
BITMAP
040080
1F03E0
3F07E0
3F87E0
3F07E0
0E01C0
000000
000000
000000
FFFC00
FFFC00
FFFC00
FFFC00
FFFC00
01FC00
01FC00
01FC00
01FC00
01FC00
01FC00
01FC00
01FC00
01FC00
01FC00
01FC00
01FC00
01FC00
01FC00
01FC00
01FE18
00FFF8
00FFF8
007FFC
003FF8
000FE0
ENDCHAR
STARTCHAR 03CB
ENCODING 971
SWIDTH 604 0
DWIDTH 29 0
BBX 23 36 3 0
BITMAP
1E01E0
3F03F0
3F87F0
3F03F0
1F03E0
000000
000000
000000
000000
000000
FE03F8
FE01F8
FE01F8
FE01FC
FE01FC
FE00FC
FE00FE
FE00FE
FE00FE
FE00FE
FE00FE
FE00FE
FE00FE
FE00FE
FE00FE
FE00FE
FE00FE
FE01FC
FE01FC
7F03FC
7FC7F8
3FFFF8
3FFFF0
1FFFE0
07FFC0
01FE00
ENDCHAR
STARTCHAR 03CC
ENCODING 972
SWIDTH 583 0
DWIDTH 28 0
BBX 24 40 2 0
BITMAP
000FC0
000FC0
000F80
001F80
001F00
001E00
001E00
003C00
003C00
000000
000000
000000
000000
000000
00FF00
03FFC0
0FFFF0
1FFFF8
3FFFFC
3FC3FC
7F81FE
7F00FE
7E007E
FE007F
FE007F
FE007F
FE007F
FE007F
FE007F
FE007F
FE007F
7E007E
7F00FE
7F81FE
3FC3FC
3FFFFC
1FFFF8
0FFFF0
03FFC0
00FF00
ENDCHAR
STARTCHAR 03CD
ENCODING 973
SWIDTH 604 0
DWIDTH 29 0
BBX 23 40 3 0
BITMAP
001F80
001F80
003F00
003F00
003E00
003C00
003C00
007800
007800
000000
000000
000000
000000
000000
FE03F8
FE01F8
FE01F8
FE01FC
FE01FC
FE00FC
FE00FC
FE00FE
FE00FE
FE00FE
FE00FE
FE00FE
FE00FE
FE00FE
FE00FE
FE00FE
FE00FE
FE01FC
FE01FC
7F03FC
7FC7F8
3FFFF8
3FFFF0
1FFFE0
07FFC0
01FE00
ENDCHAR
STARTCHAR 03CE
ENCODING 974
SWIDTH 604 0
DWIDTH 29 0
BBX 27 40 1 0
BITMAP
0003F000
0007E000
0007E000
0007C000
00078000
00078000
000F0000
000F0000
000E0000
00000000
00000000
00000000
00000000
00000000
3F803F80
3F001F80
7F001F80
7F001FC0
7F000FC0
7E000FC0
FE3F8FE0
FE3F8FE0
FE3F8FE0
FE3F8FE0
FE3F8FE0
FE3F8FE0
FE3F8FE0
FE3F8FE0
FE3F8FE0
FE3F8FE0
FE3F8FE0
FE3F8FE0
7E3F8FC0
7E3FCFC0
7F7FDFC0
7FFFFFC0
3FFBFF80
1FF9FF00
0FF0FF00
07C07C00
ENDCHAR
STARTCHAR 03D1
ENCODING 977
SWIDTH 604 0
DWIDTH 29 0
BBX 26 34 3 0
BITMAP
001F8000
007FE000
01FFF000
01FFF800
03FFFC00
03F9FC00
07F0FC00
07F0FC00
07F0FE00
07F0FE00
07F0FE00
07F0FE00
07F8FE00
03F8FE00
03FEFE00
01FFFFC0
00FFFFC0
FE7FFFC0
FE3FFFC0
FE0FFFC0
FE03FF00
FE00FE00
FE00FE00
FE00FE00
FE00FC00
FE00FC00
FE01FC00
7F01FC00
7FC7F800
3FFFF800
1FFFF000
0FFFE000
07FF8000
01FE0000
ENDCHAR
STARTCHAR 03D2
ENCODING 978
SWIDTH 583 0
DWIDTH 28 0
BBX 29 34 1 1
BITMAP
FE0003F8
FF0007F0
FF800FF0
FF801FF0
7FC01FF0
1FC03F80
0FE03F80
07E03F00
07E07F00
07F07E00
03F0FE00
03F8FC00
01F8FC00
01F9F800
00FDF800
00FDF800
00FFF000
007FF000
007FE000
003FE000
003FC000
001FC000
001FC000
001FC000
001FC000
001FC000
001FC000
001FC000
001FC000
001FC000
001FC000
001FC000
001FC000
001FC000
ENDCHAR
STARTCHAR 03D6
ENCODING 982
SWIDTH 604 0
DWIDTH 29 0
BBX 30 26 0 0
BITMAP
FFFFFFFC
FFFFFFFC
FFFFFFFC
FFFFFFFC
FFFFFFFC
3F800FE0
3F8007E0
3F8007F0
3F0007F0
3F0007F0
7F1FC3F0
7F1FC3F0
7F1FC3F0
7F1FC3F0
7F1FC3F0
7F1FC3F8
7F1FC3F8
7F1FC3F0
7F1FC3F0
7F1FE3F0
3FBFF7F0
3FFFFFF0
3FFDFFE0
1FFCFFE0
0FF87FC0
03E03F00
ENDCHAR
STARTCHAR 0400
ENCODING 1024
SWIDTH 583 0
DWIDTH 28 0
BBX 23 43 3 0
BITMAP
1FC000
0FE000
07E000
03F000
01F800
00F800
007C00
000000
000000
FFFFFE
FFFFFE
FFFFFE
FFFFFE
FFFFFE
FE0000
FE0000
FE0000
FE0000
FE0000
FE0000
FE0000
FE0000
FE0000
FFFFF8
FFFFF8
FFFFF8
FFFFF8
FFFFF8
FE0000
FE0000
FE0000
FE0000
FE0000
FE0000
FE0000
FE0000
FE0000
FE0000
FFFFFE
FFFFFE
FFFFFE
FFFFFE
FFFFFE
ENDCHAR
STARTCHAR 0401
ENCODING 1025
SWIDTH 583 0
DWIDTH 28 0
BBX 23 43 3 0
BITMAP
0F01E0
1F83F0
3F83F8
1F83F0
1F01F0
000000
000000
000000
000000
FFFFFE
FFFFFE
FFFFFE
FFFFFE
FFFFFE
FE0000
FE0000
FE0000
FE0000
FE0000
FE0000
FE0000
FE0000
FE0000
FFFFF8
FFFFF8
FFFFF8
FFFFF8
FFFFF8
FE0000
FE0000
FE0000
FE0000
FE0000
FE0000
FE0000
FE0000
FE0000
FE0000
FFFFFE
FFFFFE
FFFFFE
FFFFFE
FFFFFE
ENDCHAR
STARTCHAR 0402
ENCODING 1026
SWIDTH 604 0
DWIDTH 29 0
BBX 27 34 1 0
BITMAP
FFFFFF80
FFFFFF80
FFFFFF80
FFFFFF80
FFFFFF80
01FC0000
01FC0000
01FC0000
01FC0000
01FC0000
01FC0000
01FC0000
01FC0000
01FC0000
01FFF000
01FFFE00
01FFFF00
01FFFF80
01FFFFC0
01FC3FC0
01FC1FC0
01FC0FE0
01FC0FE0
01FC0FE0
01FC0FE0
01FC0FE0
01FC0FE0
01FC0FE0
01FC3FC0
01FCFFC0
01FCFF80
01FCFF00
01FCFE00
01FCF000
ENDCHAR
STARTCHAR 0403
ENCODING 1027
SWIDTH 583 0
DWIDTH 28 0
BBX 22 43 3 0
BITMAP
000FE0
000FE0
001FC0
001F80
003F00
007E00
007C00
000000
000000
FFFFFC
FFFFFC
FFFFFC
FFFFFC
FFFFFC
FE0000
FE0000
FE0000
FE0000
FE0000
FE0000
FE0000
FE0000
FE0000
FE0000
FE0000
FE0000
FE0000
FE0000
FE0000
FE0000
FE0000
FE0000
FE0000
FE0000
FE0000
FE0000
FE0000
FE0000
FE0000
FE0000
FE0000
FE0000
FE0000
ENDCHAR
STARTCHAR 0404
ENCODING 1028
SWIDTH 583 0
DWIDTH 28 0
BBX 25 34 2 1
BITMAP
01FFC000
07FFF000
0FFFF800
1FFFFC00
3FFFFE00
3F81FE00
7F007F00
7F007F00
7E003F00
FE003F00
FE003F80
FE000000
FE000000
FE000000
FFFF8000
FFFF8000
FFFF8000
FFFF8000
FFFF8000
FE000000
FE000000
FE000000
FE000000
FE003F80
FE003F00
7E003F00
7F007F00
7F80FF00
3FE3FE00
1FFFFC00
0FFFFC00
07FFF000
03FFE000
007F0000
ENDCHAR
STARTCHAR 0405
ENCODING 1029
SWIDTH 604 0
DWIDTH 29 0
BBX 25 34 2 1
BITMAP
01FFC000
07FFF000
0FFFFC00
1FFFFE00
3FFFFE00
3FC0FF00
7F007F00
7F003F80
7F003F80
7F003F80
7F000000
7F800000
3FC00000
3FF80000
1FFF0000
0FFFC000
07FFF000
01FFFC00
003FFE00
0007FE00
0000FF00
00007F00
00003F80
FE003F80
FE003F80
FE003F80
7E003F80
7F807F80
7FE1FF00
3FFFFF00
1FFFFE00
0FFFFC00
03FFF000
007F8000
ENDCHAR
STARTCHAR 0406
ENCODING 1030
SWIDTH 625 0
DWIDTH 30 0
BBX 20 34 5 0
BITMAP
FFFFF0
FFFFF0
FFFFF0
FFFFF0
FFFFF0
03F800
03F800
03F800
03F800
03F800
03F800
03F800
03F800
03F800
03F800
03F800
03F800
03F800
03F800
03F800
03F800
03F800
03F800
03F800
03F800
03F800
03F800
03F800
03F800
FFFFF0
FFFFF0
FFFFF0
FFFFF0
FFFFF0
ENDCHAR
STARTCHAR 0407
ENCODING 1031
SWIDTH 625 0
DWIDTH 30 0
BBX 20 43 5 0
BITMAP
3C0780
7E0FC0
FE0FE0
7E0FC0
7C07C0
000000
000000
000000
000000
FFFFF0
FFFFF0
FFFFF0
FFFFF0
FFFFF0
03F800
03F800
03F800
03F800
03F800
03F800
03F800
03F800
03F800
03F800
03F800
03F800
03F800
03F800
03F800
03F800
03F800
03F800
03F800
03F800
03F800
03F800
03F800
03F800
FFFFF0
FFFFF0
FFFFF0
FFFFF0
FFFFF0
ENDCHAR
STARTCHAR 0408
ENCODING 1032
SWIDTH 604 0
DWIDTH 29 0
BBX 23 34 3 0
BITMAP
0000FE
0000FE
0000FE
0000FE
0000FE
0000FE
0000FE
0000FE
0000FE
0000FE
0000FE
0000FE
0000FE
0000FE
0000FE
0000FE
0000FE
0000FE
0000FE
0000FE
0000FE
0000FE
0000FE
0000FE
FE00FE
FE00FE
FE00FE
7F01FC
7FC7FC
7FFFF8
3FFFF0
1FFFE0
07FFC0
01FE00
ENDCHAR
STARTCHAR 0409
ENCODING 1033
SWIDTH 583 0
DWIDTH 28 0
BBX 26 34 1 0
BITMAP
1FFF8000
1FFF8000
1FFF8000
1FFF8000
1FFF8000
1F8F8000
1F8F8000
1F8F8000
1F8F8000
1F8F8000
1F8F8000
1F8F8000
1F8FF800
1F8FFC00
1F8FFE00
1F8FFF00
1F8FFF80
1F8F9F80
1F8F8F80
1F8F8FC0
1F8F87C0
1F8F87C0
1F8F87C0
1F8F87C0
1F8F87C0
1F8F87C0
1F8F8FC0
3F0F8F80
7F0F9F80
FF0FFF80
FE0FFF00
FC0FFE00
F80FFC00
F00FF000
ENDCHAR
STARTCHAR 040A
ENCODING 1034
SWIDTH 604 0
DWIDTH 29 0
BBX 25 34 2 0
BITMAP
FE3F0000
FE3F0000
FE3F0000
FE3F0000
FE3F0000
FE3F0000
FE3F0000
FE3F0000
FE3F0000
FE3F0000
FE3F0000
FE3F0000
FE3FE000
FE3FF800
FFFFFC00
FFFFFE00
FFFFFE00
FFFF7F00
FFFF1F00
FE3F1F80
FE3F0F80
FE3F0F80
FE3F0F80
FE3F0F80
FE3F0F80
FE3F0F80
FE3F1F80
FE3F1F00
FE3F7F00
FE3FFE00
FE3FFE00
FE3FFC00
FE3FF800
FE3FE000
ENDCHAR
STARTCHAR 040B
ENCODING 1035
SWIDTH 604 0
DWIDTH 29 0
BBX 25 34 1 0
BITMAP
FFFFFF00
FFFFFF00
FFFFFF00
FFFFFF00
FFFFFF00
01FC0000
01FC0000
01FC0000
01FC0000
01FC0000
01FC0000
01FC0000
01FC0000
01FC0000
01FFE000
01FFF800
01FFFC00
01FFFE00
01FFFF00
01FCFF00
01FC3F80
01FC3F80
01FC3F80
01FC3F80
01FC3F80
01FC3F80
01FC3F80
01FC3F80
01FC3F80
01FC3F80
01FC3F80
01FC3F80
01FC3F80
01FC3F80
ENDCHAR
STARTCHAR 040C
ENCODING 1036
SWIDTH 604 0
DWIDTH 29 0
BBX 26 43 3 0
BITMAP
000FE000
001FC000
001F8000
003F0000
003E0000
007E0000
00FC0000
00000000
00000000
FE003FC0
FE007F80
FE00FF00
FE01FE00
FE01FE00
FE03FC00
FE07F800
FE0FF000
FE0FE000
FE1FE000
FE3FC000
FE3F8000
FE7F0000
FEFF0000
FFFE0000
FFFE0000
FFFE0000
FFFF0000
FFFF8000
FFFF8000
FFFFC000
FF9FE000
FF0FE000
FE0FF000
FE07F000
FE07F800
FE03FC00
FE01FC00
FE01FE00
FE00FF00
FE00FF00
FE007F80
FE003F80
FE003FC0
ENDCHAR
STARTCHAR 040D
ENCODING 1037
SWIDTH 604 0
DWIDTH 29 0
BBX 23 43 3 0
BITMAP
1FC000
0FE000
07E000
03F000
01F800
01F800
00FC00
000000
000000
FE00FE
FE00FE
FE01FE
FE01FE
FE03FE
FE03FE
FE07FE
FE07FE
FE07FE
FE0FFE
FE0FFE
FE1FFE
FE1FFE
FE3FFE
FE3EFE
FE7EFE
FE7EFE
FEFCFE
FEFCFE
FEF8FE
FFF8FE
FFF0FE
FFF0FE
FFE0FE
FFE0FE
FFC0FE
FFC0FE
FFC0FE
FF80FE
FF80FE
FF00FE
FF00FE
FE00FE
FE00FE
ENDCHAR
STARTCHAR 040E
ENCODING 1038
SWIDTH 604 0
DWIDTH 29 0
BBX 28 44 1 0
BITMAP
01F03E00
01F03E00
01F87E00
00FFFC00
007FF800
003FF000
000FC000
00000000
00000000
00000000
FE0007F0
FE0007F0
7F000FE0
7F000FE0
3F801FC0
3F801FC0
1FC01FC0
1FC03F80
0FC03F80
0FE07F00
07E07F00
07F07E00
03F0FE00
03F8FC00
01F9FC00
01F9F800
00FDF800
00FFF800
007FF000
007FF000
003FE000
003FE000
001FC000
001FC000
001F8000
001F8000
003F8000
003F0000
30FF0000
3FFE0000
3FFC0000
3FF80000
3FF00000
1FC00000
ENDCHAR
STARTCHAR 040F
ENCODING 1039
SWIDTH 604 0
DWIDTH 29 0
BBX 23 43 3 -9
BITMAP
FE00FE
FE00FE
FE00FE
FE00FE
FE00FE
FE00FE
FE00FE
FE00FE
FE00FE
FE00FE
FE00FE
FE00FE
FE00FE
FE00FE
FE00FE
FE00FE
FE00FE
FE00FE
FE00FE
FE00FE
FE00FE
FE00FE
FE00FE
FE00FE
FE00FE
FE00FE
FE00FE
FE00FE
FE00FE
FFFFFE
FFFFFE
FFFFFE
FFFFFE
FFFFFE
00FE00
00FE00
00FE00
00FE00
00FE00
00FE00
00FE00
00FE00
00FE00
ENDCHAR
STARTCHAR 0410
ENCODING 1040
SWIDTH 604 0
DWIDTH 29 0
BBX 28 34 1 0
BITMAP
001F8000
003F8000
003FC000
003FC000
007FC000
007FE000
007FE000
00FFE000
00FFF000
00FFF000
01FBF000
01FBF800
01F9F800
03F9F800
03F1FC00
03F0FC00
07F0FC00
07E0FC00
07E0FE00
0FE07E00
0FE07E00
0FC07F00
1FFFFF00
1FFFFF00
1FFFFF80
3FFFFF80
3FFFFF80
3F001FC0
7F001FC0
7F000FC0
7F000FE0
FE000FE0
FE000FE0
FE0007F0
ENDCHAR
STARTCHAR 0411
ENCODING 1041
SWIDTH 604 0
DWIDTH 29 0
BBX 23 34 3 0
BITMAP
FFFFFC
FFFFFC
FFFFFC
FFFFFC
FFFFFC
FE0000
FE0000
FE0000
FE0000
FE0000
FE0000
FE0000
FE0000
FFFF00
FFFFC0
FFFFF0
FFFFF8
FFFFF8
FE07FC
FE01FC
FE00FE
FE00FE
FE00FE
FE00FE
FE00FE
FE00FE
FE01FE
FE03FC
FE0FFC
FFFFF8
FFFFF0
FFFFE0
FFFF80
FFFE00
ENDCHAR
STARTCHAR 0412
ENCODING 1042
SWIDTH 604 0
DWIDTH 29 0
BBX 25 34 3 0
BITMAP
FFFF0000
FFFFE000
FFFFF800
FFFFFC00
FFFFFE00
FE03FE00
FE00FF00
FE007F00
FE007F00
FE007F00
FE007F00
FE007F00
FE00FE00
FE03FE00
FFFFFC00
FFFFF000
FFFFF000
FFFFFC00
FFFFFE00
FE01FE00
FE007F00
FE003F00
FE003F00
FE003F00
FE003F80
FE003F00
FE007F00
FE00FF00
FE03FF00
FFFFFE00
FFFFFC00
FFFFF800
FFFFF000
FFFF8000
ENDCHAR
STARTCHAR 0413
ENCODING 1043
SWIDTH 583 0
DWIDTH 28 0
BBX 22 34 3 0
BITMAP
FFFFFC
FFFFFC
FFFFFC
FFFFFC
FFFFFC
FE0000
FE0000
FE0000
FE0000
FE0000
FE0000
FE0000
FE0000
FE0000
FE0000
FE0000
FE0000
FE0000
FE0000
FE0000
FE0000
FE0000
FE0000
FE0000
FE0000
FE0000
FE0000
FE0000
FE0000
FE0000
FE0000
FE0000
FE0000
FE0000
ENDCHAR
STARTCHAR 0414
ENCODING 1044
SWIDTH 604 0
DWIDTH 29 0
BBX 26 43 1 -9
BITMAP
01FFFF00
01FFFF00
01FFFF00
03FFFF00
03FFFF00
03F87F00
03F87F00
03F87F00
03F87F00
03F87F00
03F87F00
03F87F00
03F87F00
03F87F00
03F87F00
03F87F00
03F87F00
03F87F00
07F07F00
07F07F00
07F07F00
07F07F00
07F07F00
07F07F00
0FE07F00
0FE07F00
1FE07F00
1FC07F00
3FC07F00
FFFFFFC0
FFFFFFC0
FFFFFFC0
FFFFFFC0
FFFFFFC0
FE001FC0
FE001FC0
FE001FC0
7E001FC0
7E001FC0
7E001FC0
7E001FC0
7E001FC0
7E001FC0
ENDCHAR
STARTCHAR 0415
ENCODING 1045
SWIDTH 583 0
DWIDTH 28 0
BBX 23 34 3 0
BITMAP
FFFFFE
FFFFFE
FFFFFE
FFFFFE
FFFFFE
FE0000
FE0000
FE0000
FE0000
FE0000
FE0000
FE0000
FE0000
FE0000
FFFFF8
FFFFF8
FFFFF8
FFFFF8
FFFFF8
FE0000
FE0000
FE0000
FE0000
FE0000
FE0000
FE0000
FE0000
FE0000
FE0000
FFFFFE
FFFFFE
FFFFFE
FFFFFE
FFFFFE
ENDCHAR
STARTCHAR 0416
ENCODING 1046
SWIDTH 604 0
DWIDTH 29 0
BBX 28 34 0 0
BITMAP
FE1F87F0
FE1F87E0
7E1F8FE0
7F1F8FE0
7F1F8FC0
3F1F8FC0
3F1F8FC0
3F1F9F80
1F9F9F80
1F9F9F80
1F9F9F00
0F9F9F00
0FDFBF00
0FDFBE00
07FFFE00
07FFFE00
07FFFE00
07FFFE00
0FFFFF00
0FFFFF00
0FDFBF00
1F9F9F80
1F9F9F80
1F9F9F80
3F9F9F80
3F1F9FC0
3F1F8FC0
7F1F8FC0
7F1F8FE0
7E1F8FE0
FE1F87E0
FE1F87F0
FE1F87F0
FC1F87F0
ENDCHAR
STARTCHAR 0417
ENCODING 1047
SWIDTH 604 0
DWIDTH 29 0
BBX 26 34 2 1
BITMAP
01FFE000
07FFF800
1FFFFC00
3FFFFE00
3FFFFF00
7F80FF00
7F007F80
7E003F80
FE003F80
00003F80
00003F80
00003F80
00007F00
0001FE00
00FFFC00
00FFF800
00FFF800
00FFFC00
00FFFE00
0000FF00
00003F80
00001F80
00001F80
00001F80
FE001FC0
FE001F80
FE003F80
7F007F80
7FE1FF00
3FFFFF00
1FFFFE00
0FFFFC00
07FFF000
00FF8000
ENDCHAR
STARTCHAR 0418
ENCODING 1048
SWIDTH 604 0
DWIDTH 29 0
BBX 23 34 3 0
BITMAP
FE00FE
FE00FE
FE01FE
FE01FE
FE03FE
FE03FE
FE07FE
FE07FE
FE07FE
FE0FFE
FE0FFE
FE1FFE
FE1FFE
FE3FFE
FE3EFE
FE7EFE
FE7EFE
FEFCFE
FEFCFE
FEF8FE
FFF8FE
FFF0FE
FFF0FE
FFE0FE
FFE0FE
FFC0FE
FFC0FE
FFC0FE
FF80FE
FF80FE
FF00FE
FF00FE
FE00FE
FE00FE
ENDCHAR
STARTCHAR 0419
ENCODING 1049
SWIDTH 604 0
DWIDTH 29 0
BBX 23 44 3 0
BITMAP
1F03E0
1F03E0
1F03E0
0F87C0
0FFFC0
07FF80
03FF00
00FC00
000000
000000
FE00FE
FE00FE
FE01FE
FE01FE
FE03FE
FE03FE
FE07FE
FE07FE
FE07FE
FE0FFE
FE0FFE
FE1FFE
FE1FFE
FE3FFE
FE3EFE
FE7EFE
FE7EFE
FEFCFE
FEFCFE
FEF8FE
FFF8FE
FFF0FE
FFF0FE
FFE0FE
FFE0FE
FFC0FE
FFC0FE
FFC0FE
FF80FE
FF80FE
FF00FE
FF00FE
FE00FE
FE00FE
ENDCHAR
STARTCHAR 041A
ENCODING 1050
SWIDTH 604 0
DWIDTH 29 0
BBX 25 34 4 0
BITMAP
FE007F00
FE00FF00
FE00FE00
FE01FC00
FE03FC00
FE03F800
FE07F800
FE07F000
FE0FE000
FE1FE000
FE1FC000
FE3F8000
FE7F8000
FE7F0000
FEFF0000
FFFE0000
FFFE0000
FFFE0000
FFFF0000
FFFF8000
FE3F8000
FE3FC000
FE1FC000
FE1FE000
FE0FE000
FE0FF000
FE07F800
FE03F800
FE03FC00
FE01FC00
FE01FE00
FE00FF00
FE007F00
FE007F80
ENDCHAR
STARTCHAR 041B
ENCODING 1051
SWIDTH 583 0
DWIDTH 28 0
BBX 26 34 0 0
BITMAP
07FFFFC0
07FFFFC0
07FFFFC0
07FFFFC0
07FFFFC0
07F01FC0
07F01FC0
07F01FC0
07F01FC0
07F01FC0
07F01FC0
07F01FC0
07F01FC0
07F01FC0
07F01FC0
07F01FC0
07F01FC0
07F01FC0
07F01FC0
07F01FC0
07F01FC0
07E01FC0
07E01FC0
07E01FC0
07E01FC0
07E01FC0
0FE01FC0
0FC01FC0
1FC01FC0
FFC01FC0
FF801FC0
FF001FC0
FE001FC0
F8001FC0
ENDCHAR
STARTCHAR 041C
ENCODING 1052
SWIDTH 604 0
DWIDTH 29 0
BBX 24 34 3 0
BITMAP
FF81FF
FF81FF
FF83FF
FF83FF
FFC3FF
FFC7FF
FFC7FF
FFC7FF
FFE7FF
FFEFFF
FFEF7F
FFEF7F
FFEF7F
FEFF7F
FEFE7F
FEFE7F
FEFE7F
FE7C7F
FE7C7F
FE7C7F
FE7C7F
FE387F
FE387F
FE007F
FE007F
FE007F
FE007F
FE007F
FE007F
FE007F
FE007F
FE007F
FE007F
FE007F
ENDCHAR
STARTCHAR 041D
ENCODING 1053
SWIDTH 604 0
DWIDTH 29 0
BBX 23 34 3 0
BITMAP
FE00FE
FE00FE
FE00FE
FE00FE
FE00FE
FE00FE
FE00FE
FE00FE
FE00FE
FE00FE
FE00FE
FE00FE
FE00FE
FE00FE
FFFFFE
FFFFFE
FFFFFE
FFFFFE
FFFFFE
FE00FE
FE00FE
FE00FE
FE00FE
FE00FE
FE00FE
FE00FE
FE00FE
FE00FE
FE00FE
FE00FE
FE00FE
FE00FE
FE00FE
FE00FE
ENDCHAR
STARTCHAR 041E
ENCODING 1054
SWIDTH 604 0
DWIDTH 29 0
BBX 25 35 2 0
BITMAP
00080000
01FF8000
07FFE000
0FFFF000
1FFFF800
1FFFFC00
3FC1FE00
3F00FE00
7F007F00
7E003F00
7E003F00
FE003F80
FE003F80
FE003F80
FE003F80
FE003F80
FE003F80
FE003F80
FE003F80
FE003F80
FE003F80
FE003F80
FE003F80
FE003F80
FE003F80
7E003F00
7F007F00
7F007F00
3F80FE00
3FE3FE00
1FFFFC00
0FFFF800
07FFF000
03FFC000
007F0000
ENDCHAR
STARTCHAR 041F
ENCODING 1055
SWIDTH 604 0
DWIDTH 29 0
BBX 23 34 3 0
BITMAP
FFFFFE
FFFFFE
FFFFFE
FFFFFE
FFFFFE
FE00FE
FE00FE
FE00FE
FE00FE
FE00FE
FE00FE
FE00FE
FE00FE
FE00FE
FE00FE
FE00FE
FE00FE
FE00FE
FE00FE
FE00FE
FE00FE
FE00FE
FE00FE
FE00FE
FE00FE
FE00FE
FE00FE
FE00FE
FE00FE
FE00FE
FE00FE
FE00FE
FE00FE
FE00FE
ENDCHAR
STARTCHAR 0420
ENCODING 1056
SWIDTH 583 0
DWIDTH 28 0
BBX 24 34 3 0
BITMAP
FFFF00
FFFFC0
FFFFF0
FFFFF8
FFFFFC
FE07FE
FE00FE
FE007F
FE007F
FE007F
FE007F
FE007F
FE007F
FE007F
FE00FE
FE03FE
FFFFFC
FFFFFC
FFFFF0
FFFFE0
FFFF80
FE0000
FE0000
FE0000
FE0000
FE0000
FE0000
FE0000
FE0000
FE0000
FE0000
FE0000
FE0000
FE0000
ENDCHAR
STARTCHAR 0421
ENCODING 1057
SWIDTH 604 0
DWIDTH 29 0
BBX 25 34 2 1
BITMAP
00FFC000
03FFF000
07FFFC00
0FFFFC00
1FFFFE00
3FC0FF00
3F807F00
7F003F00
7E003F80
7E003F80
FE003F80
FE000000
FE000000
FE000000
FE000000
FE000000
FE000000
FE000000
FE000000
FE000000
FE000000
FE000000
FE000000
FE003F80
7E003F80
7F003F80
7F003F00
3F807F00
3FE1FF00
1FFFFE00
0FFFFC00
07FFF800
03FFE000
007F8000
ENDCHAR
STARTCHAR 0422
ENCODING 1058
SWIDTH 625 0
DWIDTH 30 0
BBX 28 34 1 0
BITMAP
FFFFFFF0
FFFFFFF0
FFFFFFF0
FFFFFFF0
FFFFFFF0
003F8000
003F8000
003F8000
003F8000
003F8000
003F8000
003F8000
003F8000
003F8000
003F8000
003F8000
003F8000
003F8000
003F8000
003F8000
003F8000
003F8000
003F8000
003F8000
003F8000
003F8000
003F8000
003F8000
003F8000
003F8000
003F8000
003F8000
003F8000
003F8000
ENDCHAR
STARTCHAR 0423
ENCODING 1059
SWIDTH 604 0
DWIDTH 29 0
BBX 29 34 0 0
BITMAP
FE0003F8
7F0007F0
7F0007F0
3F800FE0
3F800FE0
1FC00FE0
1FC01FC0
0FE01FC0
0FE03F80
07F03F80
07F03F00
03F07F00
03F87E00
01F8FE00
01FCFE00
00FCFC00
00FDFC00
007FF800
007FF800
003FF000
003FF000
001FE000
001FE000
000FE000
000FC000
001FC000
001F8000
003F8000
10FF0000
1FFF0000
3FFE0000
3FFC0000
3FF80000
1FE00000
ENDCHAR
STARTCHAR 0424
ENCODING 1060
SWIDTH 625 0
DWIDTH 30 0
BBX 29 34 2 0
BITMAP
001FC000
001FC000
001FC000
001FC000
001FC000
01FFF800
07FFFE00
0FFFFF00
1FFFFF80
3FFFFFC0
3FDFFFE0
7F9FCFE0
7F1FC7F0
FE1FC7F0
FE1FC3F0
FE1FC3F0
FE1FC3F0
FE1FC3F8
FE1FC3F0
FE1FC3F0
FE1FC7F0
7F1FC7F0
7F1FCFF0
7FDFDFE0
3FFFFFC0
1FFFFFC0
0FFFFF80
07FFFE00
01FFFC00
003FC000
001FC000
001FC000
001FC000
001FC000
ENDCHAR
STARTCHAR 0425
ENCODING 1061
SWIDTH 604 0
DWIDTH 29 0
BBX 27 34 1 0
BITMAP
FF001FE0
7F001FE0
7F803FC0
3F803F80
1FC07F80
1FC07F00
0FE0FF00
0FE0FE00
07F0FE00
07F1FC00
03F9F800
03FBF800
01FFF000
00FFF000
00FFE000
007FE000
007FC000
007FC000
007FE000
00FFE000
01FFF000
01FFF800
03FBF800
03F9FC00
07F1FC00
07F0FE00
0FE0FE00
1FE07F00
1FC07F80
3FC03F80
3F803FC0
7F801FC0
7F001FE0
FF000FE0
ENDCHAR
STARTCHAR 0426
ENCODING 1062
SWIDTH 625 0
DWIDTH 30 0
BBX 27 43 3 -9
BITMAP
FE00FE00
FE00FE00
FE00FE00
FE00FE00
FE00FE00
FE00FE00
FE00FE00
FE00FE00
FE00FE00
FE00FE00
FE00FE00
FE00FE00
FE00FE00
FE00FE00
FE00FE00
FE00FE00
FE00FE00
FE00FE00
FE00FE00
FE00FE00
FE00FE00
FE00FE00
FE00FE00
FE00FE00
FE00FE00
FE00FE00
FE00FE00
FE00FE00
FE00FE00
FFFFFFE0
FFFFFFE0
FFFFFFE0
FFFFFFE0
FFFFFFE0
00000FE0
00000FE0
00000FE0
00000FE0
00000FE0
00000FE0
00000FE0
00000FE0
00000FE0
ENDCHAR
STARTCHAR 0427
ENCODING 1063
SWIDTH 604 0
DWIDTH 29 0
BBX 23 34 4 0
BITMAP
FE00FE
FE00FE
FE00FE
FE00FE
FE00FE
FE00FE
FE00FE
FE00FE
FE00FE
FE00FE
FE00FE
FE00FE
FE00FE
FE00FE
FE00FE
7F01FE
7FFFFE
3FFFFE
1FFFFE
0FFFFE
03FFFE
0000FE
0000FE
0000FE
0000FE
0000FE
0000FE
0000FE
0000FE
0000FE
0000FE
0000FE
0000FE
0000FE
ENDCHAR
STARTCHAR 0428
ENCODING 1064
SWIDTH 604 0
DWIDTH 29 0
BBX 26 34 2 0
BITMAP
FE7F1FC0
FE7F1FC0
FE7F1FC0
FE7F1FC0
FE7F1FC0
FE7F1FC0
FE7F1FC0
FE7F1FC0
FE7F1FC0
FE7F1FC0
FE7F1FC0
FE7F1FC0
FE7F1FC0
FE7F1FC0
FE7F1FC0
FE7F1FC0
FE7F1FC0
FE7F1FC0
FE7F1FC0
FE7F1FC0
FE7F1FC0
FE7F1FC0
FE7F1FC0
FE7F1FC0
FE7F1FC0
FE7F1FC0
FE7F1FC0
FE7F1FC0
FE7F1FC0
FFFFFFC0
FFFFFFC0
FFFFFFC0
FFFFFFC0
FFFFFFC0
ENDCHAR
STARTCHAR 0429
ENCODING 1065
SWIDTH 604 0
DWIDTH 29 0
BBX 29 43 2 -9
BITMAP
FE7F1FC0
FE7F1FC0
FE7F1FC0
FE7F1FC0
FE7F1FC0
FE7F1FC0
FE7F1FC0
FE7F1FC0
FE7F1FC0
FE7F1FC0
FE7F1FC0
FE7F1FC0
FE7F1FC0
FE7F1FC0
FE7F1FC0
FE7F1FC0
FE7F1FC0
FE7F1FC0
FE7F1FC0
FE7F1FC0
FE7F1FC0
FE7F1FC0
FE7F1FC0
FE7F1FC0
FE7F1FC0
FE7F1FC0
FE7F1FC0
FE7F1FC0
FE7F1FC0
FFFFFFF8
FFFFFFF8
FFFFFFF8
FFFFFFF8
FFFFFFF8
000003F8
000003F8
000003F8
000003F8
000003F8
000003F8
000003F8
000003F8
000003F8
ENDCHAR
STARTCHAR 042A
ENCODING 1066
SWIDTH 604 0
DWIDTH 29 0
BBX 26 34 1 0
BITMAP
FFF80000
FFF80000
FFF80000
FFF80000
FFF80000
03F80000
03F80000
03F80000
03F80000
03F80000
03F80000
03F80000
03F80000
03F80000
03FFF000
03FFFC00
03FFFE00
03FFFF00
03FFFF80
03F87F80
03F83FC0
03F81FC0
03F81FC0
03F81FC0
03F81FC0
03F81FC0
03F81FC0
03F83F80
03F8FF80
03FFFF00
03FFFF00
03FFFE00
03FFF800
03FFE000
ENDCHAR
STARTCHAR 042B
ENCODING 1067
SWIDTH 604 0
DWIDTH 29 0
BBX 25 34 2 0
BITMAP
FE003F80
FE003F80
FE003F80
FE003F80
FE003F80
FE003F80
FE003F80
FE003F80
FE003F80
FE003F80
FE003F80
FE003F80
FE003F80
FE003F80
FFF03F80
FFFC3F80
FFFE3F80
FFFE3F80
FFFF3F80
FE7F3F80
FE3FBF80
FE3FBF80
FE3FBF80
FE3FBF80
FE3FBF80
FE3FBF80
FE3FBF80
FE3F3F80
FE7F3F80
FFFF3F80
FFFE3F80
FFFC3F80
FFF83F80
FFE03F80
ENDCHAR
STARTCHAR 042C
ENCODING 1068
SWIDTH 604 0
DWIDTH 29 0
BBX 23 34 3 0
BITMAP
FE0000
FE0000
FE0000
FE0000
FE0000
FE0000
FE0000
FE0000
FE0000
FE0000
FE0000
FE0000
FE0000
FFFF00
FFFFC0
FFFFF0
FFFFF8
FFFFF8
FE07FC
FE01FC
FE00FE
FE00FE
FE00FE
FE00FE
FE00FE
FE00FE
FE01FE
FE03FC
FE0FFC
FFFFF8
FFFFF0
FFFFE0
FFFF80
FFFE00
ENDCHAR
STARTCHAR 042D
ENCODING 1069
SWIDTH 604 0
DWIDTH 29 0
BBX 25 35 1 0
BITMAP
00080000
01FF8000
07FFE000
0FFFF000
1FFFF800
3FFFFC00
7F81FE00
7F00FE00
FE007F00
FE007F00
FE003F00
FE003F00
00003F00
00003F00
00003F80
007FFF80
007FFF80
007FFF80
007FFF80
007FFF80
00003F80
00003F80
00003F00
FE003F00
FE003F00
FE007F00
FE007F00
7F00FE00
7F00FE00
3FC3FE00
3FFFFC00
1FFFF800
0FFFF000
07FFC000
00FF0000
ENDCHAR
STARTCHAR 042E
ENCODING 1070
SWIDTH 604 0
DWIDTH 29 0
BBX 25 35 2 0
BITMAP
00008000
FC0FF000
FC1FFC00
FC3FFE00
FC7FFE00
FC7FFF00
FC7E3F00
FCFC3F00
FCFC3F80
FCFC3F80
FCFC3F80
FCFC3F80
FCFC3F80
FCFC3F80
FCFC3F80
FFFC3F80
FFFC3F80
FFFC3F80
FFFC3F80
FFFC3F80
FCFC3F80
FCFC3F80
FCFC3F80
FCFC3F80
FCFC3F80
FCFC3F80
FCFC3F80
FCFC3F80
FC7E3F00
FC7E7F00
FC7FFF00
FC3FFE00
FC1FFC00
FC0FF800
FC07E000
ENDCHAR
STARTCHAR 042F
ENCODING 1071
SWIDTH 604 0
DWIDTH 29 0
BBX 26 34 -1 0
BITMAP
003FFFC0
01FFFFC0
07FFFFC0
0FFFFFC0
1FFFFFC0
1FF01FC0
3FC01FC0
3F801FC0
3F801FC0
3F801FC0
3F801FC0
3F801FC0
3F801FC0
1FC01FC0
1FE01FC0
0FFFFFC0
07FFFFC0
03FFFFC0
01FFFFC0
01FFFFC0
03FC1FC0
03F81FC0
07F81FC0
07F01FC0
07F01FC0
0FE01FC0
0FE01FC0
1FC01FC0
1FC01FC0
3F801FC0
3F801FC0
7F001FC0
7F001FC0
FE001FC0
ENDCHAR
STARTCHAR 0430
ENCODING 1072
SWIDTH 604 0
DWIDTH 29 0
BBX 23 26 3 0
BITMAP
01FE00
07FFC0
1FFFE0
3FFFF0
7FFFF8
7F87F8
7E01FC
FE01FC
0001FC
0001FC
01FFFC
0FFFFC
1FFFFC
3FFFFC
7F81FC
FE01FC
FE01FC
FE01FC
FE01FC
FE03FC
FF8FFC
7FFFFC
7FFFFC
3FFEFC
1FFCFE
07F0FE
ENDCHAR
STARTCHAR 0431
ENCODING 1073
SWIDTH 604 0
DWIDTH 29 0
BBX 24 37 3 0
BITMAP
0000F8
0001F8
0003F8
003FF0
00FFF0
03FFE0
07FFC0
0FFF00
1FF000
1F8000
3F0000
3E0000
7E0000
7C7F80
7DFFE0
7BFFF8
FFFFFC
FFFFFC
FF83FE
FF00FE
FE007E
FE007F
FE007F
FE007F
FE007F
FE007F
FE007F
FE007F
7E007F
7F00FE
7F00FE
3FC3FC
3FFFFC
1FFFF8
0FFFF0
03FFC0
00FF00
ENDCHAR
STARTCHAR 0432
ENCODING 1074
SWIDTH 604 0
DWIDTH 29 0
BBX 23 26 3 0
BITMAP
FFFE00
FFFFC0
FFFFE0
FFFFF0
FFFFF0
FE0FF8
FE03F8
FE03F8
FE03F8
FE03F8
FE07F0
FFFFE0
FFFF80
FFFFE0
FFFFF0
FE01FC
FE00FC
FE00FC
FE00FE
FE00FC
FE03FC
FFFFFC
FFFFF8
FFFFF8
FFFFE0
FFFF80
ENDCHAR
STARTCHAR 0433
ENCODING 1075
SWIDTH 604 0
DWIDTH 29 0
BBX 22 26 3 0
BITMAP
FFFFFC
FFFFFC
FFFFFC
FFFFFC
FFFFFC
FE0000
FE0000
FE0000
FE0000
FE0000
FE0000
FE0000
FE0000
FE0000
FE0000
FE0000
FE0000
FE0000
FE0000
FE0000
FE0000
FE0000
FE0000
FE0000
FE0000
FE0000
ENDCHAR
STARTCHAR 0434
ENCODING 1076
SWIDTH 604 0
DWIDTH 29 0
BBX 28 34 1 -8
BITMAP
03FFFF80
03FFFF80
03FFFF80
03FFFF80
03FFFF80
03F83F80
03F83F80
03F83F80
03F83F80
03F83F80
03F03F80
03F03F80
03F03F80
03F03F80
03F03F80
03F03F80
03F03F80
07F03F80
07E03F80
0FE03F80
1FE03F80
FFFFFFF0
FFFFFFF0
FFFFFFF0
FFFFFFF0
FFFFFFF0
FE0007F0
FE0007F0
FE0007F0
FE0007F0
FE0007F0
FE0007F0
FE0007F0
FE0007F0
ENDCHAR
STARTCHAR 0435
ENCODING 1077
SWIDTH 604 0
DWIDTH 29 0
BBX 25 26 2 0
BITMAP
007F8000
01FFE000
07FFF800
0FFFFC00
1FFFFC00
3FE3FE00
3F807E00
7F007F00
7F003F00
7E003F00
7FFFFF00
7FFFFF00
FFFFFF80
FFFFFF80
7FFFFF80
7E000000
7F000000
7F000000
7F800800
3FC01C00
3FF0FE00
1FFFFF00
0FFFFE00
07FFFC00
01FFF000
003FC000
ENDCHAR
STARTCHAR 0436
ENCODING 1078
SWIDTH 604 0
DWIDTH 29 0
BBX 27 26 1 0
BITMAP
FC3F0FC0
FE3F1FC0
7E3F1F80
7E3F1F80
7E3F1F80
3F3F3F00
3F3F3F00
1F3F3E00
1FBF7E00
0FBF7E00
0FFFFC00
0FFFFC00
07FFFC00
0FFFFC00
0FFFFC00
1FFFFE00
1FBF7E00
1F3F3F00
3F3F3F00
3F3F3F00
7E3F1F80
7E3F1F80
7E3F1F80
FE3F1FC0
FC3F0FC0
FC3F0FE0
ENDCHAR
STARTCHAR 0437
ENCODING 1079
SWIDTH 604 0
DWIDTH 29 0
BBX 24 26 3 0
BITMAP
01FF00
07FFE0
1FFFF8
3FFFFC
7FFFFE
7FC3FE
7F00FE
FE00FE
0000FE
0001FC
01FFF8
01FFF0
01FFF0
01FFFC
0001FC
0000FE
00007E
FE007E
FE007F
FF00FE
7FC3FE
7FFFFE
3FFFFC
1FFFF8
07FFE0
01FF00
ENDCHAR
STARTCHAR 0438
ENCODING 1080
SWIDTH 604 0
DWIDTH 29 0
BBX 23 26 3 0
BITMAP
FE00FE
FE01FE
FE01FE
FE03FE
FE07FE
FE07FE
FE0FFE
FE0FFE
FE1FFE
FE1FFE
FE3EFE
FE7EFE
FE7CFE
FEFCFE
FEF8FE
FFF8FE
FFF0FE
FFE0FE
FFE0FE
FFC0FE
FFC0FE
FF80FE
FF80FE
FF00FE
FE00FE
FE00FE
ENDCHAR
STARTCHAR 0439
ENCODING 1081
SWIDTH 604 0
DWIDTH 29 0
BBX 23 36 3 0
BITMAP
1F03E0
1F03E0
1F87E0
0FFFC0
07FF80
03FF00
00FC00
000000
000000
000000
FE00FE
FE01FE
FE01FE
FE03FE
FE07FE
FE07FE
FE0FFE
FE0FFE
FE1FFE
FE1FFE
FE3EFE
FE7EFE
FE7CFE
FEFCFE
FEF8FE
FFF8FE
FFF0FE
FFE0FE
FFE0FE
FFC0FE
FFC0FE
FF80FE
FF80FE
FF00FE
FE00FE
FE00FE
ENDCHAR
STARTCHAR 043A
ENCODING 1082
SWIDTH 604 0
DWIDTH 29 0
BBX 25 26 3 0
BITMAP
FE00FF80
FE00FF00
FE01FE00
FE03FC00
FE03FC00
FE07F800
FE0FF000
FE0FE000
FE1FE000
FE3FC000
FFFF8000
FFFF0000
FFFF0000
FFFF0000
FFFF8000
FFFFC000
FE1FE000
FE1FE000
FE0FF000
FE07F800
FE07FC00
FE03FC00
FE01FE00
FE01FF00
FE00FF80
FE007F80
ENDCHAR
STARTCHAR 043B
ENCODING 1083
SWIDTH 583 0
DWIDTH 28 0
BBX 25 26 0 0
BITMAP
07FFFF80
07FFFF80
07FFFF80
07FFFF80
07FFFF80
07F03F80
07F03F80
07F03F80
07F03F80
07F03F80
07F03F80
07F03F80
07F03F80
07F03F80
07F03F80
07E03F80
07E03F80
07E03F80
07E03F80
0FE03F80
1FC03F80
FFC03F80
FF803F80
FF003F80
FE003F80
F8003F80
ENDCHAR
STARTCHAR 043C
ENCODING 1084
SWIDTH 604 0
DWIDTH 29 0
BBX 23 26 3 0
BITMAP
FF01FE
FF03FE
FF83FE
FF83FE
FF83FE
FF83FE
FF83FE
FFC7FE
FFC7FE
FFC7FE
FFC7FE
FFC7FE
FFEFFE
FFEFFE
FDEF7E
FDEF7E
FDEF7E
FDEF7E
FCFE7E
FCFE7E
FCFE7E
FCFE7E
FC7C7E
FC7C7E
FC7C7E
FC7C7E
ENDCHAR
STARTCHAR 043D
ENCODING 1085
SWIDTH 604 0
DWIDTH 29 0
BBX 23 26 3 0
BITMAP
FE00FE
FE00FE
FE00FE
FE00FE
FE00FE
FE00FE
FE00FE
FE00FE
FE00FE
FE00FE
FE00FE
FFFFFE
FFFFFE
FFFFFE
FFFFFE
FFFFFE
FE00FE
FE00FE
FE00FE
FE00FE
FE00FE
FE00FE
FE00FE
FE00FE
FE00FE
FE00FE
ENDCHAR
STARTCHAR 043E
ENCODING 1086
SWIDTH 583 0
DWIDTH 28 0
BBX 24 26 2 0
BITMAP
00FF00
03FFC0
0FFFF0
1FFFF8
3FFFFC
3FC3FC
7F81FE
7F00FE
7E007E
FE007F
FE007F
FE007F
FE007F
FE007F
FE007F
FE007F
FE007F
7E007E
7F00FE
7F81FE
3FC3FC
3FFFFC
1FFFF8
0FFFF0
03FFC0
00FF00
ENDCHAR
STARTCHAR 043F
ENCODING 1087
SWIDTH 604 0
DWIDTH 29 0
BBX 23 26 3 0
BITMAP
FFFFFE
FFFFFE
FFFFFE
FFFFFE
FFFFFE
FE00FE
FE00FE
FE00FE
FE00FE
FE00FE
FE00FE
FE00FE
FE00FE
FE00FE
FE00FE
FE00FE
FE00FE
FE00FE
FE00FE
FE00FE
FE00FE
FE00FE
FE00FE
FE00FE
FE00FE
FE00FE
ENDCHAR
STARTCHAR 0440
ENCODING 1088
SWIDTH 583 0
DWIDTH 28 0
BBX 23 36 3 -10
BITMAP
FC3F00
FCFFC0
FFFFE0
FFFFF0
FFFFF8
FF8FF8
FE03FC
FE01FC
FE01FC
FE00FC
FE00FC
FE00FC
FE00FE
FE00FE
FE00FC
FE00FC
FE00FC
FE01FC
FE01FC
FE03F8
FF8FF8
FFFFF8
FFFFF0
FFFFE0
FEFFC0
FE3F00
FE0000
FE0000
FE0000
FE0000
FE0000
FE0000
FE0000
FE0000
FE0000
FE0000
ENDCHAR
STARTCHAR 0441
ENCODING 1089
SWIDTH 604 0
DWIDTH 29 0
BBX 23 26 3 0
BITMAP
00FF00
03FFC0
0FFFF0
1FFFF8
3FFFFC
3FC7FC
7F01FC
7F00FE
FE00FE
FE00FE
FE0000
FE0000
FE0000
FE0000
FE0000
FE0000
FE0000
7E00FE
7F00FE
7F01FE
3FC7FC
3FFFFC
1FFFF8
0FFFF0
03FFC0
00FF00
ENDCHAR
STARTCHAR 0442
ENCODING 1090
SWIDTH 604 0
DWIDTH 29 0
BBX 26 26 2 0
BITMAP
FFFFFFC0
FFFFFFC0
FFFFFFC0
FFFFFFC0
FFFFFFC0
007F0000
007F0000
007F0000
007F0000
007F0000
007F0000
007F0000
007F0000
007F0000
007F0000
007F0000
007F0000
007F0000
007F0000
007F0000
007F0000
007F0000
007F0000
007F0000
007F0000
007F0000
ENDCHAR
STARTCHAR 0443
ENCODING 1091
SWIDTH 604 0
DWIDTH 29 0
BBX 28 37 1 -11
BITMAP
FF000FF0
7F000FE0
7F000FE0
3F801FC0
3F801FC0
1F801F80
1FC03F80
1FC03F80
0FE07F00
0FE07F00
07E07E00
07F0FE00
03F0FC00
03F0FC00
03F9FC00
01F9F800
01FBF800
00FFF000
00FFF000
007FE000
007FE000
007FE000
003FC000
003FC000
001F8000
001F8000
003F0000
003F0000
007F0000
00FE0000
00FE0000
0FFC0000
0FFC0000
0FF80000
1FF00000
1FC00000
06000000
ENDCHAR
STARTCHAR 0444
ENCODING 1092
SWIDTH 604 0
DWIDTH 29 0
BBX 27 46 1 -10
BITMAP
003F8000
003F8000
003F8000
003F8000
003F8000
003F8000
003F8000
003F8000
003F8000
003F8000
003F8000
01FFF000
07FFF800
0FFFFE00
1FFFFE00
3FFFFF00
3FFFFF80
7F3FBF80
7F3F9FC0
FE3F9FC0
FE3F8FC0
FE3F8FC0
FE3F8FC0
FE3F8FE0
FE3F8FE0
FE3F8FC0
FE3F8FC0
FE3F9FC0
7F3F9FC0
7F3FBF80
3FFFFF80
3FFFFF00
1FFFFE00
0FFFFC00
07FFF800
01FFE000
003F8000
003F8000
003F8000
003F8000
003F8000
003F8000
003F8000
003F8000
003F8000
003F8000
ENDCHAR
STARTCHAR 0445
ENCODING 1093
SWIDTH 604 0
DWIDTH 29 0
BBX 25 26 2 0
BITMAP
7F003F80
7F007F80
3F807F00
1FC0FE00
1FE1FE00
0FE1FC00
07F3F800
07FFF800
03FFF000
01FFE000
01FFE000
00FFC000
007F8000
00FF8000
00FFC000
01FFE000
03FFE000
03FFF000
07F3F800
0FF3F800
0FE1FC00
1FC0FE00
3FC0FE00
3F807F00
7F003F80
FE003F80
ENDCHAR
STARTCHAR 0446
ENCODING 1094
SWIDTH 604 0
DWIDTH 29 0
BBX 26 34 3 -8
BITMAP
FE01FC00
FE01FC00
FE01FC00
FE01FC00
FE01FC00
FE01FC00
FE01FC00
FE01FC00
FE01FC00
FE01FC00
FE01FC00
FE01FC00
FE01FC00
FE01FC00
FE01FC00
FE01FC00
FE01FC00
FE01FC00
FE01FC00
FE01FC00
FE01FC00
FFFFFFC0
FFFFFFC0
FFFFFFC0
FFFFFFC0
FFFFFFC0
00001FC0
00001FC0
00001FC0
00001FC0
00001FC0
00001FC0
00001FC0
00001FC0
ENDCHAR
STARTCHAR 0447
ENCODING 1095
SWIDTH 604 0
DWIDTH 29 0
BBX 24 26 3 0
BITMAP
FE007F
FE007F
FE007F
FE007F
FE007F
FE007F
FE007F
FE007F
FE007F
FE007F
FE007F
FE007F
7F807F
7FFFFF
3FFFFF
1FFFFF
0FFFFF
03FFFF
00007F
00007F
00007F
00007F
00007F
00007F
00007F
00007F
ENDCHAR
STARTCHAR 0448
ENCODING 1096
SWIDTH 604 0
DWIDTH 29 0
BBX 25 26 2 0
BITMAP
FE7F3F80
FE7F3F80
FE7F3F80
FE7F3F80
FE7F3F80
FE7F3F80
FE7F3F80
FE7F3F80
FE7F3F80
FE7F3F80
FE7F3F80
FE7F3F80
FE7F3F80
FE7F3F80
FE7F3F80
FE7F3F80
FE7F3F80
FE7F3F80
FE7F3F80
FE7F3F80
FE7F3F80
FFFFFF80
FFFFFF80
FFFFFF80
FFFFFF80
FFFFFF80
ENDCHAR
STARTCHAR 0449
ENCODING 1097
SWIDTH 625 0
DWIDTH 30 0
BBX 28 34 2 -8
BITMAP
FE7F3F80
FE7F3F80
FE7F3F80
FE7F3F80
FE7F3F80
FE7F3F80
FE7F3F80
FE7F3F80
FE7F3F80
FE7F3F80
FE7F3F80
FE7F3F80
FE7F3F80
FE7F3F80
FE7F3F80
FE7F3F80
FE7F3F80
FE7F3F80
FE7F3F80
FE7F3F80
FE7F3F80
FFFFFFF0
FFFFFFF0
FFFFFFF0
FFFFFFF0
FFFFFFF0
000003F0
000003F0
000003F0
000003F0
000003F0
000003F0
000003F0
000003F0
ENDCHAR
STARTCHAR 044A
ENCODING 1098
SWIDTH 583 0
DWIDTH 28 0
BBX 26 26 1 0
BITMAP
FFF80000
FFF80000
FFF80000
FFF80000
FFF80000
03F80000
03F80000
03F80000
03F80000
03F80000
03FFF800
03FFFE00
03FFFF00
03FFFF80
03FFFF80
03F83FC0
03F81FC0
03F81FC0
03F81FC0
03F81FC0
03F87F80
03FFFF80
03FFFF00
03FFFE00
03FFFC00
03FFF000
ENDCHAR
STARTCHAR 044B
ENCODING 1099
SWIDTH 583 0
DWIDTH 28 0
BBX 25 26 2 0
BITMAP
FE003F80
FE003F80
FE003F80
FE003F80
FE003F80
FE003F80
FE003F80
FE003F80
FE003F80
FFE03F80
FFF83F80
FFFC3F80
FFFE3F80
FFFE3F80
FE7F3F80
FE3F3F80
FE3F3F80
FE3F3F80
FE3F3F80
FE3F3F80
FE7F3F80
FFFE3F80
FFFE3F80
FFFC3F80
FFF83F80
FFE03F80
ENDCHAR
STARTCHAR 044C
ENCODING 1100
SWIDTH 583 0
DWIDTH 28 0
BBX 24 26 3 0
BITMAP
FE0000
FE0000
FE0000
FE0000
FE0000
FE0000
FE0000
FE0000
FE0000
FFFF80
FFFFE0
FFFFF8
FFFFFC
FFFFFC
FE03FE
FE00FE
FE007E
FE007F
FE007E
FE00FE
FE01FE
FFFFFE
FFFFFC
FFFFF8
FFFFE0
FFFF80
ENDCHAR
STARTCHAR 044D
ENCODING 1101
SWIDTH 604 0
DWIDTH 29 0
BBX 23 26 3 0
BITMAP
01FE00
07FF80
1FFFE0
3FFFF0
7FFFF8
7FC7F8
FF01FC
FE01FC
FE00FC
0000FE
0000FE
007FFE
007FFE
007FFE
007FFE
0000FE
FE00FE
FE00FE
FE01FC
FF01FC
7FC7F8
7FFFF8
3FFFF0
1FFFE0
07FF80
01FE00
ENDCHAR
STARTCHAR 044E
ENCODING 1102
SWIDTH 604 0
DWIDTH 29 0
BBX 27 26 1 0
BITMAP
FE03F800
FE0FFC00
FE1FFF00
FE1FFF00
FE3FFF80
FE7FBF80
FE7F1FC0
FE7E0FC0
FE7E0FC0
FE7E0FC0
FEFE0FC0
FFFE0FE0
FFFE0FE0
FFFE0FE0
FFFE0FE0
FFFE0FC0
FEFE0FC0
FE7E0FC0
FE7E0FC0
FE7F1FC0
FE7FBF80
FE3FFF80
FE3FFF00
FE1FFF00
FE0FFC00
FE03F800
ENDCHAR
STARTCHAR 044F
ENCODING 1103
SWIDTH 604 0
DWIDTH 29 0
BBX 24 26 2 0
BITMAP
00FFFF
07FFFF
0FFFFF
1FFFFF
3FFFFF
3FC07F
7F007F
7F007F
7F007F
7F007F
7F007F
3F807F
3FFFFF
1FFFFF
0FFFFF
07FFFF
07FFFF
07E07F
0FE07F
0FC07F
1FC07F
1F807F
3F807F
3F007F
7F007F
FE007F
ENDCHAR
STARTCHAR 0450
ENCODING 1104
SWIDTH 604 0
DWIDTH 29 0
BBX 25 36 2 0
BITMAP
0FE00000
07E00000
03F00000
03F80000
01F80000
00FC0000
007C0000
00000000
00000000
00000000
007F8000
01FFE000
07FFF800
0FFFFC00
1FFFFC00
3FE3FE00
3F807E00
7F007F00
7F003F00
7E003F00
7FFFFF00
7FFFFF00
FFFFFF80
FFFFFF80
7FFFFF80
7E000000
7F000000
7F000000
7F800800
3FC01C00
3FF0FE00
1FFFFF00
0FFFFE00
07FFFC00
01FFF000
003FC000
ENDCHAR
STARTCHAR 0451
ENCODING 1105
SWIDTH 604 0
DWIDTH 29 0
BBX 25 36 2 0
BITMAP
0F01E000
1F83F000
1FC3F800
1F83F000
0F81F000
00000000
00000000
00000000
00000000
00000000
007F8000
01FFE000
07FFF800
0FFFFC00
1FFFFC00
3FE3FE00
3F807E00
7F007F00
7F003F00
7E003F00
7FFFFF00
7FFFFF00
FFFFFF80
FFFFFF80
7FFFFF80
7E000000
7F000000
7F000000
7F800800
3FC03C00
3FF0FE00
1FFFFF00
0FFFFE00
07FFFC00
01FFF000
003FC000
ENDCHAR
STARTCHAR 0452
ENCODING 1106
SWIDTH 604 0
DWIDTH 29 0
BBX 27 47 -1 -11
BITMAP
0FE00000
0FE00000
0FE00000
0FE00000
FFFF0000
FFFF0000
FFFF0000
FFFF0000
0FE00000
0FE00000
0FE1F800
0FE7FE00
0FEFFF80
0FFFFF80
0FFFFFC0
0FFC7FC0
0FF01FE0
0FE00FE0
0FE00FE0
0FE00FE0
0FE00FE0
0FE00FE0
0FE00FE0
0FE00FE0
0FE00FE0
0FE00FE0
0FE00FE0
0FE00FE0
0FE00FE0
0FE00FE0
0FE00FE0
0FE00FE0
0FE00FE0
0FE00FE0
0FE00FE0
0FE00FE0
00000FE0
00000FE0
00000FE0
00000FE0
00001FE0
0001FFC0
0001FFC0
0001FF80
0001FF00
0001FE00
00006000
ENDCHAR
STARTCHAR 0453
ENCODING 1107
SWIDTH 604 0
DWIDTH 29 0
BBX 22 35 3 0
BITMAP
000FF0
000FE0
001FC0
001F80
003F00
007E00
007C00
000000
000000
FFFFFC
FFFFFC
FFFFFC
FFFFFC
FFFFFC
FE0000
FE0000
FE0000
FE0000
FE0000
FE0000
FE0000
FE0000
FE0000
FE0000
FE0000
FE0000
FE0000
FE0000
FE0000
FE0000
FE0000
FE0000
FE0000
FE0000
FE0000
ENDCHAR
STARTCHAR 0454
ENCODING 1108
SWIDTH 625 0
DWIDTH 30 0
BBX 23 26 3 0
BITMAP
00FF00
03FFC0
0FFFF0
1FFFF8
3FFFFC
3FC7FC
7F01FE
7F00FE
FE00FE
FE00FE
FE0000
FFFC00
FFFC00
FFFC00
FFFC00
FE0000
FE0000
7E00FE
7F00FE
7F01FE
3FC7FC
3FFFF8
1FFFF8
0FFFF0
03FFC0
00FF00
ENDCHAR
STARTCHAR 0455
ENCODING 1109
SWIDTH 604 0
DWIDTH 29 0
BBX 23 26 3 0
BITMAP
01FF00
07FFE0
1FFFF0
3FFFF8
7FFFFC
7FC3FC
7F00FE
FE00FE
7E0000
7F0000
7FC000
3FFE00
0FFFC0
07FFF0
00FFF8
0007FC
0000FE
FE00FE
FE00FE
FF00FE
7FC3FE
7FFFFC
3FFFFC
1FFFF8
07FFE0
00FF00
ENDCHAR
STARTCHAR 0456
ENCODING 1110
SWIDTH 604 0
DWIDTH 29 0
BBX 21 36 5 0
BITMAP
00F000
01F800
03FC00
03FC00
03FC00
01F800
00F000
000000
000000
000000
FFFC00
FFFC00
FFFC00
FFFC00
FFFC00
01FC00
01FC00
01FC00
01FC00
01FC00
01FC00
01FC00
01FC00
01FC00
01FC00
01FC00
01FC00
01FC00
01FC00
01FC00
01FC00
FFFFF8
FFFFF8
FFFFF8
FFFFF8
FFFFF8
ENDCHAR
STARTCHAR 0457
ENCODING 1111
SWIDTH 604 0
DWIDTH 29 0
BBX 21 35 5 0
BITMAP
040080
1F03E0
3F07E0
3F87E0
3F07E0
0E01C0
000000
000000
000000
FFFC00
FFFC00
FFFC00
FFFC00
FFFC00
01FC00
01FC00
01FC00
01FC00
01FC00
01FC00
01FC00
01FC00
01FC00
01FC00
01FC00
01FC00
01FC00
01FC00
01FC00
01FC00
FFFFF8
FFFFF8
FFFFF8
FFFFF8
FFFFF8
ENDCHAR
STARTCHAR 0458
ENCODING 1112
SWIDTH 604 0
DWIDTH 29 0
BBX 16 46 5 -11
BITMAP
003C
007E
00FF
00FF
00FF
007E
003C
0000
0000
3FFE
3FFE
3FFE
3FFE
3FFE
00FE
00FE
00FE
00FE
00FE
00FE
00FE
00FE
00FE
00FE
00FE
00FE
00FE
00FE
00FE
00FE
00FE
00FE
00FE
00FE
00FE
00FE
00FE
00FE
00FE
01FC
FFFC
FFFC
FFF8
FFF0
FFC0
3800
ENDCHAR
STARTCHAR 0459
ENCODING 1113
SWIDTH 604 0
DWIDTH 29 0
BBX 29 26 0 0
BITMAP
0FFFF000
0FFFF000
0FFFF000
0FFFF000
0FFFF000
0FE7F000
0FE7F000
0FE7F000
0FE7F000
0FE7FF00
0FE7FFC0
0FE7FFE0
0FE7FFF0
0FE7FFF0
0FE7F7F8
0FC7F3F8
0FC7F3F8
0FC7F3F8
1FC7F3F8
1FC7F3F8
3F87F7F0
FF87FFF0
FF07FFE0
FF07FFE0
FE07FF80
F807FE00
ENDCHAR
STARTCHAR 045A
ENCODING 1114
SWIDTH 604 0
DWIDTH 29 0
BBX 26 26 2 0
BITMAP
FE7F0000
FE7F0000
FE7F0000
FE7F0000
FE7F0000
FE7F0000
FE7F0000
FE7F0000
FE7F0000
FE7FF000
FFFFFC00
FFFFFE00
FFFFFF00
FFFFFF80
FFFF3F80
FE7F1F80
FE7F1F80
FE7F1FC0
FE7F1F80
FE7F3F80
FE7F7F80
FE7FFF80
FE7FFF00
FE7FFE00
FE7FFC00
FE7FF000
ENDCHAR
STARTCHAR 045B
ENCODING 1115
SWIDTH 604 0
DWIDTH 29 0
BBX 26 36 0 0
BITMAP
1FC00000
1FC00000
1FC00000
1FC00000
FFFF0000
FFFF0000
FFFF0000
FFFF0000
1FC00000
1FC00000
1FC3F000
1FCFFC00
1FDFFF00
1FFFFF00
1FFFFF80
1FF8FF80
1FE03FC0
1FC01FC0
1FC01FC0
1FC01FC0
1FC01FC0
1FC01FC0
1FC01FC0
1FC01FC0
1FC01FC0
1FC01FC0
1FC01FC0
1FC01FC0
1FC01FC0
1FC01FC0
1FC01FC0
1FC01FC0
1FC01FC0
1FC01FC0
1FC01FC0
1FC01FC0
ENDCHAR
STARTCHAR 045C
ENCODING 1116
SWIDTH 604 0
DWIDTH 29 0
BBX 25 35 3 0
BITMAP
000FE000
001FC000
003F8000
003F0000
007E0000
007C0000
00F80000
00000000
00000000
FE00FF80
FE00FF00
FE01FE00
FE03FC00
FE03FC00
FE07F800
FE0FF000
FE0FE000
FE1FE000
FE3FC000
FFFF8000
FFFF0000
FFFF0000
FFFF0000
FFFF8000
FFFFC000
FE1FE000
FE1FE000
FE0FF000
FE07F800
FE07FC00
FE03FC00
FE01FE00
FE01FF00
FE00FF80
FE007F80
ENDCHAR
STARTCHAR 045D
ENCODING 1117
SWIDTH 604 0
DWIDTH 29 0
BBX 23 35 3 0
BITMAP
1FC000
0FC000
07E000
07F000
03F000
01F800
00F800
000000
000000
FE00FE
FE01FE
FE01FE
FE03FE
FE07FE
FE07FE
FE0FFE
FE0FFE
FE1FFE
FE1FFE
FE3EFE
FE7EFE
FE7CFE
FEFCFE
FEF8FE
FFF8FE
FFF0FE
FFE0FE
FFE0FE
FFC0FE
FFC0FE
FF80FE
FF80FE
FF00FE
FE00FE
FE00FE
ENDCHAR
STARTCHAR 045E
ENCODING 1118
SWIDTH 604 0
DWIDTH 29 0
BBX 27 47 1 -11
BITMAP
03E07C00
03E07C00
03E07C00
01F0F800
01FFF800
00FFF000
007FE000
001F8000
00000000
00000000
FE000FE0
7F000FE0
7F001FE0
3F801FC0
3F801FC0
3F803F80
1FC03F80
1FC03F00
0FC07F00
0FE07F00
07E07E00
07F0FE00
03F0FC00
03F1FC00
03F9F800
01F9F800
01FBF800
00FFF000
00FFF000
007FE000
007FE000
007FC000
003FC000
003FC000
001F8000
001F8000
003F0000
003F0000
007E0000
00FE0000
00FE0000
0FFC0000
0FF80000
1FF80000
1FF00000
1FC00000
06000000
ENDCHAR
STARTCHAR 045F
ENCODING 1119
SWIDTH 604 0
DWIDTH 29 0
BBX 23 35 3 -9
BITMAP
FE00FE
FE00FE
FE00FE
FE00FE
FE00FE
FE00FE
FE00FE
FE00FE
FE00FE
FE00FE
FE00FE
FE00FE
FE00FE
FE00FE
FE00FE
FE00FE
FE00FE
FE00FE
FE00FE
FE00FE
FE00FE
FFFFFE
FFFFFE
FFFFFE
FFFFFE
FFFFFE
00FE00
00FE00
00FE00
00FE00
00FE00
00FE00
00FE00
00FE00
00FE00
ENDCHAR
STARTCHAR 0460
ENCODING 1120
SWIDTH 604 0
DWIDTH 29 0
BBX 27 34 2 0
BITMAP
FE3F8FE0
FE3F8FE0
FE3F8FE0
FE3F8FE0
FE3F8FE0
FE3F8FE0
FE3F8FE0
FE3F8FE0
FE3F8FE0
FE3F8FE0
FE3F8FE0
FE3F8FE0
FE3F8FE0
FE3F8FE0
FE3F8FE0
FE3F8FE0
FE3F8FE0
FE3F8FE0
FE3F8FE0
FE3F8FE0
FE3F8FE0
FE3F8FE0
FE3F8FE0
FE3F8FE0
FE3F8FE0
FE3F8FE0
FE3F8FC0
FE3F8FC0
FF7FDFC0
7FFFFFC0
7FFFFF80
3FFBFF00
1FF3FE00
07E0FC00
ENDCHAR
STARTCHAR 0461
ENCODING 1121
SWIDTH 604 0
DWIDTH 29 0
BBX 25 26 2 0
BITMAP
FE7F1F80
FE7F1F80
FE7F1F80
FE7F1F80
FE7F1F80
FE7F1F80
FE7F1F80
FE7F1F80
FE7F1F80
FE7F1F80
FE7F1F80
FE7F1F80
FE7F1F80
FE7F1F80
FE7F1F80
FE7F1F80
FE7F1F80
FE7F1F80
FE7F1F80
FE7F1F80
7E7FBF80
7FFFFF80
7FFFFF00
3FF7FE00
1FF3FC00
07C0F800
ENDCHAR
STARTCHAR 0462
ENCODING 1122
SWIDTH 604 0
DWIDTH 29 0
BBX 27 34 -1 0
BITMAP
0FE00000
0FE00000
0FE00000
0FE00000
FFFF0000
FFFF0000
FFFF0000
FFFF0000
0FE00000
0FE00000
0FE00000
0FE00000
0FE00000
0FFFF000
0FFFFC00
0FFFFF00
0FFFFF80
0FFFFF80
0FE07FC0
0FE01FC0
0FE00FE0
0FE00FE0
0FE00FE0
0FE00FE0
0FE00FE0
0FE00FE0
0FE01FE0
0FE03FC0
0FE0FFC0
0FFFFF80
0FFFFF00
0FFFFE00
0FFFF800
0FFFE000
ENDCHAR
STARTCHAR 0463
ENCODING 1123
SWIDTH 604 0
DWIDTH 29 0
BBX 26 37 1 0
BITMAP
0FE00000
0FE00000
0FE00000
0FE00000
0FE00000
0FE00000
0FE00000
FFFF8000
FFFF8000
FFFF8000
FFFF8000
0FE00000
0FE00000
0FE00000
0FE00000
0FE00000
0FE00000
0FE00000
0FE00000
0FE00000
0FFFE000
0FFFFC00
0FFFFE00
0FFFFF00
0FFFFF80
0FE07F80
0FE01FC0
0FE01FC0
0FE01FC0
0FE01FC0
0FE01FC0
0FE07F80
0FFFFF80
0FFFFF00
0FFFFE00
0FFFFC00
0FFFE000
ENDCHAR
STARTCHAR 0464
ENCODING 1124
SWIDTH 604 0
DWIDTH 29 0
BBX 27 34 1 1
BITMAP
FE03FC00
FE0FFF00
FE1FFF80
FE1FFF80
FE3FFFC0
FE3FFFC0
FE7F0FE0
FE7F07E0
FE7E07E0
FE7E07E0
FE7E07E0
FE7E0000
FEFE0000
FEFE0000
FFFFF000
FFFFF000
FFFFF000
FFFFF000
FFFFF000
FEFE0000
FEFE0000
FE7E0000
FE7E07E0
FE7E07E0
FE7E07E0
FE7E07E0
FE7F0FE0
FE3F8FC0
FE3FFFC0
FE1FFFC0
FE1FFF80
FE0FFF00
FE07FE00
FE01F800
ENDCHAR
STARTCHAR 0465
ENCODING 1125
SWIDTH 604 0
DWIDTH 29 0
BBX 26 26 2 0
BITMAP
FE01F800
FE07FE00
FE0FFF00
FE1FFF80
FE3FFF80
FE3FBFC0
FE7F1FC0
FE7E1FC0
FE7E1FC0
FE7E0000
FEFE0000
FFFFE000
FFFFE000
FFFFE000
FFFFE000
FEFE0000
FE7E0000
FE7E0000
FE7E1FC0
FE7F1FC0
FE3FBFC0
FE3FFF80
FE1FFF80
FE1FFF00
FE07FE00
FE01F800
ENDCHAR
STARTCHAR 0466
ENCODING 1126
SWIDTH 604 0
DWIDTH 29 0
BBX 30 34 0 0
BITMAP
001FE000
001FE000
001FF000
003FF000
003FF000
003FF800
007FF800
007FF800
007FFC00
00FFFC00
00FCFC00
00FCFE00
01FCFE00
01F87E00
01F87F00
03F83F00
03F03F00
03F03F80
07F01F80
07FFFF80
07FFFFC0
0FFFFFC0
0FFFFFC0
0FFFFFE0
1FCFCFE0
1FCFC7E0
1F8FC7F0
3F8FC7F0
3F8FC3F0
3F0FC3F8
7F0FC3F8
7F0FC1F8
7E0FC1FC
FE0FC1FC
ENDCHAR
STARTCHAR 0467
ENCODING 1127
SWIDTH 625 0
DWIDTH 30 0
BBX 27 26 2 0
BITMAP
003F8000
007FC000
007FC000
007FC000
00FFE000
00FFE000
00FFF000
01FBF000
01FBF000
03FBF800
03F1F800
03F1FC00
07E0FC00
07E0FC00
07E0FE00
0FFFFE00
0FFFFE00
1FFFFF00
1FFFFF00
1F9F3F80
3F9F1F80
3F1F1F80
7F1F1FC0
7F1F0FC0
7E1F0FE0
FE1F0FE0
ENDCHAR
STARTCHAR 0468
ENCODING 1128
SWIDTH 604 0
DWIDTH 29 0
BBX 26 34 2 0
BITMAP
F807E000
F807E000
F807E000
F807F000
F807F000
F80FF000
F80FF000
F80FF800
F80FF800
F81FF800
F81F7800
F81E7800
F81E7C00
F83E7C00
F83E7C00
F83E3C00
F83C3C00
F83C3E00
F87C3E00
FFFFFE00
FFFFFE00
FFFFFF00
FFFFFF00
FFFFFF00
F8FBDF00
F8FBDF00
F8FBDF80
F9F3CF80
F9F3CF80
F9F3CF80
F9F3CF80
FBF3CFC0
FBE3C7C0
FBE3C7C0
ENDCHAR
STARTCHAR 0469
ENCODING 1129
SWIDTH 604 0
DWIDTH 29 0
BBX 27 26 2 0
BITMAP
F803F000
F803F000
F803F000
F807F800
F807F800
F807F800
F80FFC00
F80FFC00
F80FFC00
F81FBC00
F81F3E00
F81F3E00
F83F3E00
F83E1F00
F83E1F00
FFFFFF00
FFFFFF00
FFFFFF80
FFFFFF80
F8F9EF80
F8F9EF80
F9F9E7C0
F9F9E7C0
F9F1E7C0
FBF1E7E0
FBF1E3E0
ENDCHAR
STARTCHAR 046A
ENCODING 1130
SWIDTH 604 0
DWIDTH 29 0
BBX 28 34 1 0
BITMAP
7FFFFFC0
3FFFFFC0
3FFFFF80
1FFFFF80
1FFFFF00
0FC07F00
0FE0FE00
0FE0FE00
07F0FE00
07F1FC00
03F1FC00
03FBF800
01FBF800
01FFF000
00FFF000
00FFE000
07FFFE00
1FFFFF00
3FFFFFC0
7FFFFFC0
7FFFFFE0
FF3F8FE0
FE3F87E0
FE3F87E0
FE3F87F0
FE3F87F0
FE3F87F0
FE3F87F0
FE3F87F0
FE3F87F0
FE3F87F0
FE3F87F0
FE3F87F0
FE3F87F0
ENDCHAR
STARTCHAR 046B
ENCODING 1131
SWIDTH 604 0
DWIDTH 29 0
BBX 25 26 2 0
BITMAP
7FFFFF80
7FFFFF00
3FFFFE00
3FFFFE00
1FC0FC00
0FC1FC00
0FE1F800
07E3F800
07F3F000
03F7E000
01FFE000
07FFF000
1FFFFC00
3FFFFE00
7FFFFF00
7FFFFF00
FF7F7F80
FE7F3F80
FE7F3F80
FE7F3F80
FE7F3F80
FE7F3F80
FE7F3F80
FE7F3F80
FE7F3F80
FE7F3F80
ENDCHAR
STARTCHAR 046C
ENCODING 1132
SWIDTH 604 0
DWIDTH 29 0
BBX 27 34 1 0
BITMAP
F8FFFFC0
F8FFFFC0
F87FFF80
F87FFF80
F83FFF80
F83F1F00
F83F1F00
F81F1F00
F81FBE00
F81FBE00
F80FBE00
F80FFC00
F80FFC00
F807FC00
F807F800
FFFFFE00
FFFFFF00
FFFFFF80
FFFFFFC0
FFFFFFC0
F9F9F7E0
F9F1F3E0
F9F1F3E0
F9F1F3E0
F9F1F3E0
F9F1F3E0
F9F1F3E0
F9F1F3E0
F9F1F3E0
F9F1F3E0
F9F1F3E0
F9F1F3E0
F9F1F3E0
F9F1F3E0
ENDCHAR
STARTCHAR 046D
ENCODING 1133
SWIDTH 604 0
DWIDTH 29 0
BBX 27 26 1 0
BITMAP
F87FFFC0
F87FFFC0
F83FFF80
F83FFF80
F81F1F80
F81F1F00
F81F9F00
F80FBF00
F80FBE00
F80FFE00
F807FC00
F807FC00
FFFFFE00
FFFFFF80
FFFFFFC0
FFFFFFC0
F8FDF7E0
F8F9F3E0
F8F9F3E0
F8F9F3E0
F8F9F3E0
F8F9F3E0
F8F9F3E0
F8F9F3E0
F8F9F3E0
F8F9F3E0
ENDCHAR
STARTCHAR 046E
ENCODING 1134
SWIDTH 604 0
DWIDTH 29 0
BBX 22 56 3 -10
BITMAP
FC07C0
7E0FC0
3F1F80
1FFE00
0FFC00
03F800
01F000
000000
000000
000000
000000
000000
1FFC00
1FFF80
1FFFC0
1FFFE0
1FFFF0
001FF8
0007F8
0003F8
0003F8
0003F8
0003F8
0003F0
000FF0
03FFE0
03FFC0
03FF00
03FFC0
03FFE0
001FF0
0003F8
0001F8
0001FC
0001FC
0001FC
0001FC
0001FC
0001FC
0003F8
000FF8
0FFFF0
3FFFF0
7FFFE0
7FFF80
FFFE00
FE0000
FE0000
FE0000
FE0000
7E0000
7F8000
3FC000
1F8000
0F8000
030000
ENDCHAR
STARTCHAR 046F
ENCODING 1135
SWIDTH 583 0
DWIDTH 28 0
BBX 21 47 4 -10
BITMAP
7C07C0
7E0FC0
3F9F80
1FFE00
07FC00
03F800
01F000
000000
000000
000000
000000
3FF800
3FFF00
3FFF80
3FFFC0
3FFFE0
001FE0
000FE0
0007F0
0007E0
0007E0
001FE0
07FFC0
07FF00
07FF80
07FFE0
000FF0
0003F0
0003F0
0003F8
0007F0
001FF0
1FFFF0
3FFFE0
7FFFC0
FFFF80
FFFC00
FE0000
FC0000
FC0000
FC0000
7E0000
7F0000
3F8000
1F0000
0F0000
020000
ENDCHAR
STARTCHAR 0470
ENCODING 1136
SWIDTH 604 0
DWIDTH 29 0
BBX 28 34 2 0
BITMAP
FE1FC7F0
FE1FC7F0
FE1FC7F0
FE1FC7F0
FE1FC7F0
FE1FC7F0
FE1FC7F0
FE1FC7F0
FE1FC7F0
FE1FC7F0
FE1FC7F0
FE1FC7F0
FE1FC7F0
FE1FC7F0
FE1FC7E0
FE1FC7E0
FE1FC7E0
FE1FCFE0
7F1FCFE0
7F9FDFC0
3FFFFFC0
3FFFFF80
1FFFFF80
0FFFFF00
03FFFC00
00FFF000
001FC000
001FC000
001FC000
001FC000
001FC000
001FC000
001FC000
001FC000
ENDCHAR
STARTCHAR 0471
ENCODING 1137
SWIDTH 604 0
DWIDTH 29 0
BBX 28 37 2 -11
BITMAP
FE3F9FC0
FE3F8FC0
FE3F8FC0
FE3F8FE0
FE3F8FE0
FE3F8FE0
FE3F87E0
FE3F87E0
FE3F87E0
FE3F87E0
FE3F87E0
FE3F87F0
FE3F87F0
FE3F87E0
FE3F87E0
FE3F87E0
FE3F8FE0
7F3F8FE0
7F3F9FC0
7FBFBFC0
3FFFFF80
1FFFFF80
1FFFFF00
07FFFE00
03FFF800
00FFE000
003F8000
003F8000
003F8000
003F8000
003F8000
003F8000
003F8000
003F8000
003F8000
003F8000
003F8000
ENDCHAR
STARTCHAR 0472
ENCODING 1138
SWIDTH 604 0
DWIDTH 29 0
BBX 25 35 2 0
BITMAP
00080000
01FF8000
07FFE000
0FFFF000
1FFFF800
1FFFFC00
3F81FE00
7F00FE00
7F007F00
7E003F00
7E003F00
FE003F80
FE003F80
FE003F80
FE003F80
FFFFFF80
FFFFFF80
FFFFFF80
FFFFFF80
FE003F80
FE003F80
FE003F80
FE003F80
FE003F80
FE003F80
7E003F00
7E007F00
7F007F00
3F80FE00
3FE3FE00
1FFFFC00
0FFFF800
07FFF000
03FFC000
007F0000
ENDCHAR
STARTCHAR 0473
ENCODING 1139
SWIDTH 604 0
DWIDTH 29 0
BBX 24 26 2 0
BITMAP
00FF00
03FFC0
0FFFF0
1FFFF8
3FFFFC
3FC3FC
7F81FE
7F00FE
7E007E
FE007F
FE007F
FFFFFF
FFFFFF
FFFFFF
FFFFFF
FE007F
FE007F
7E007E
7F00FE
7F81FE
3FC3FC
3FFFFC
1FFFF8
0FFFF0
03FFC0
00FF00
ENDCHAR
STARTCHAR 0474
ENCODING 1140
SWIDTH 604 0
DWIDTH 29 0
BBX 30 35 0 0
BITMAP
00000004
FF00007C
7F0000FC
7F0001FC
7F0003FC
3F8003FC
3F8007F0
3F8007E0
1FC007E0
1FC00FC0
1FC00FC0
0FE00FC0
0FE01F80
0FE01F80
07E01F80
07F01F00
07F03F00
03F03F00
03F83F00
03F87E00
01F87E00
01F87E00
01FC7C00
00FCFC00
00FCFC00
00FEF800
007FF800
007FF800
007FF800
003FF000
003FF000
001FF000
001FE000
001FE000
000FE000
ENDCHAR
STARTCHAR 0475
ENCODING 1141
SWIDTH 604 0
DWIDTH 29 0
BBX 26 26 1 0
BITMAP
FE0007C0
7F001FC0
7F003F80
7F007F80
3F007F80
3F80FE00
3F80FC00
1F80FC00
1FC1F800
0FC1F800
0FC1F800
0FC3F000
07E3F000
07E3F000
07E7E000
03F7E000
03F7E000
03F7C000
01FFC000
01FFC000
01FF8000
00FF8000
00FF8000
00FF0000
007F0000
007F0000
ENDCHAR
STARTCHAR 0476
ENCODING 1142
SWIDTH 604 0
DWIDTH 29 0
BBX 30 45 0 0
BITMAP
3F9FC000
0FCFC000
07E7E000
03F3F000
01F9F800
00FCF800
00000000
00000000
00000000
00000000
00000004
FF00007C
7F0000FC
7F0001FC
7F0003FC
3F8003FC
3F8007F0
3F8007E0
1FC007E0
1FC00FC0
1FC00FC0
0FE00FC0
0FE01F80
0FE01F80
07E01F80
07F01F00
07F03F00
03F03F00
03F83F00
03F87E00
01F87E00
01F87E00
01FC7C00
00FCFC00
00FCFC00
00FEF800
007FF800
007FF800
007FF800
003FF000
003FF000
001FF000
001FE000
001FE000
000FE000
ENDCHAR
STARTCHAR 0477
ENCODING 1143
SWIDTH 604 0
DWIDTH 29 0
BBX 26 38 1 0
BITMAP
7E3F0000
3F1F8000
1F9F8000
0FCFC000
07E7E000
03F3F000
00000000
00000000
00000000
00000000
00000000
00000000
FE0007C0
7F001FC0
7F003F80
7F007F80
3F007F80
3F80FE00
3F80FC00
1F80FC00
1FC1F800
0FC1F800
0FC1F800
0FC3F000
07E3F000
07E3F000
07E7E000
03F7E000
03F7E000
03F7C000
01FFC000
01FFC000
01FF8000
00FF8000
00FF8000
00FF0000
007F0000
007F0000
ENDCHAR
STARTCHAR 0478
ENCODING 1144
SWIDTH 604 0
DWIDTH 29 0
BBX 27 44 2 -10
BITMAP
1FC00000
3FE00000
3FF00000
7FF80000
78F80000
70780000
F07C0000
F07C0000
F07DE1E0
F07DE1E0
F07DE3E0
F07CF3C0
F07CF3C0
F07CF3C0
F07CF3C0
F07CF3C0
F07CF780
F07CF780
F07CF780
F07C7780
F07C7F80
F07C7F80
F07C7F00
F07C7F00
F07C7F00
F07C7F00
F07C3F00
F0783E00
78F83E00
78F83E00
3FF03E00
3FF03E00
1FE03E00
0F803C00
00001C00
00003C00
00003C00
00003C00
00007800
00007800
0003F800
0003F000
0003F000
0003E000
ENDCHAR
STARTCHAR 0479
ENCODING 1145
SWIDTH 604 0
DWIDTH 29 0
BBX 28 37 1 -11
BITMAP
07E0F1F0
0FF0F1E0
1FF8F1E0
3FFCF1E0
7E7EF1E0
7C3EF1E0
781E7BC0
F81E7BC0
F81F7BC0
F81F7BC0
F81F7BC0
F81F7BC0
F81F7B80
F81F3F80
F81F3F80
F81F3F80
F81F3F80
F81F3F00
781E3F00
781E3F00
7C3E1F00
7E7E1F00
3FFC1F00
1FF81E00
0FF01E00
07E01E00
00001E00
00001E00
00001C00
00003C00
00003C00
00003C00
0003F800
0003F800
0003F000
0003E000
00008000
ENDCHAR
STARTCHAR 047A
ENCODING 1146
SWIDTH 604 0
DWIDTH 29 0
BBX 25 41 2 -3
BITMAP
003E0000
003E0000
003E0000
003E0000
01FF8000
07FFE000
0FFFF000
1FFFF800
1FFFFC00
3FFFFE00
7F3EFE00
7F3E7F00
7E003F00
7E003F00
FE003F80
FE003F80
FE003F80
FE003F80
FE003F80
FE003F80
FE003F80
FE003F80
FE003F80
FE003F80
FE003F80
FE003F80
FE003F80
FE003F80
7E003F00
7F007F00
7F3E7F00
3FBEFE00
3FFFFE00
1FFFFC00
0FFFF800
07FFF000
03FFC000
007F0000
003E0000
003E0000
003E0000
ENDCHAR
STARTCHAR 047B
ENCODING 1147
SWIDTH 583 0
DWIDTH 28 0
BBX 24 33 2 -3
BITMAP
003C00
003C00
003C00
003C00
00FF00
03FFC0
0FFFF0
1FFFF8
3FFFFC
3FFFFC
7FBDFE
7F3CFE
7E007E
FE007F
FE007F
FE007F
FE007F
FE007F
FE007F
FE007F
FE007F
7E007E
7F3CFE
7FBDFE
3FFFFC
3FFFFC
1FFFF8
0FFFF0
03FFC0
00FF00
003C00
003C00
003C00
ENDCHAR
STARTCHAR 047C
ENCODING 1148
SWIDTH 604 0
DWIDTH 29 0
BBX 29 44 1 0
BITMAP
003F0000
007FC000
00FFF000
00F1FF00
00E07F00
00E00F00
00070000
00070000
00070000
00070000
01EF1C00
0FEE1F80
1FFE1FC0
3FE41FE0
7FE01FF0
7F800FF0
FE0003F8
FE0003F8
FE0003F8
FE0003F8
FE0003F8
FE0003F8
FE0003F8
FE0003F8
FE0003F8
FE1FC3F8
FE1FC3F8
FE1FC3F8
FE1FC3F8
FE1FC3F8
FE1FC3F8
FE1FC3F8
FE1FC3F8
FE1FC3F8
FE1FC3F8
FE1FC3F8
FE1FC3F8
FE1FC3F8
FF3FE7F0
7FFFFFF0
7FFFFFE0
3FFFFFE0
1FF9FF80
03F07E00
ENDCHAR
STARTCHAR 047D
ENCODING 1149
SWIDTH 604 0
DWIDTH 29 0
BBX 26 36 2 0
BITMAP
007C0000
01FF0000
03FFC000
03C7FC00
0381FC00
03807C00
000F0000
000F0000
000F0000
000F0000
038F7000
0F9E7C00
3FBC7F00
3F887F00
7F807F80
7E001F80
FE001FC0
FE001FC0
FE001FC0
FE001FC0
FE001FC0
FE001FC0
FE3F1FC0
FE3F1FC0
FE3F1FC0
FE3F1FC0
FE3F1FC0
FE3F1FC0
FE3F1FC0
FE3F1FC0
FF7F9FC0
7FFFFF80
7FFFFF80
3FF3FF00
1FF3FE00
07C0F800
ENDCHAR
STARTCHAR 047E
ENCODING 1150
SWIDTH 604 0
DWIDTH 29 0
BBX 27 43 2 0
BITMAP
07FFFC00
07FFFC00
07FFFC00
001E0000
001E0000
001E0000
00000000
00000000
00000000
FE3F8FE0
FE3F8FE0
FE3F8FE0
FE3F8FE0
FE3F8FE0
FE3F8FE0
FE3F8FE0
FE3F8FE0
FE3F8FE0
FE3F8FE0
FE3F8FE0
FE3F8FE0
FE3F8FE0
FE3F8FE0
FE3F8FE0
FE3F8FE0
FE3F8FE0
FE3F8FE0
FE3F8FE0
FE3F8FE0
FE3F8FE0
FE3F8FE0
FE3F8FE0
FE3F8FE0
FE3F8FE0
FE3F8FE0
FE3F8FC0
FE3F8FC0
FF7FDFC0
7FFFFFC0
7FFFFF80
3FFBFF00
1FF3FE00
07E0FC00
ENDCHAR
STARTCHAR 047F
ENCODING 1151
SWIDTH 625 0
DWIDTH 30 0
BBX 26 34 2 0
BITMAP
07FFFC00
07FFFC00
07FFFC00
001E0000
001E0000
00000000
00000000
00000000
FE7F1FC0
FE7F1FC0
FE7F1FC0
FE7F1FC0
FE7F1FC0
FE7F1FC0
FE7F1FC0
FE7F1FC0
FE7F1FC0
FE7F1FC0
FE7F1FC0
FE7F1FC0
FE7F1FC0
FE7F1FC0
FE7F1FC0
FE7F1FC0
FE7F1FC0
FE7F1FC0
FE7F1FC0
FE7F1FC0
7E7F9F80
7FFFFF80
7FFFFF80
3FFFFF00
1FF3FE00
07C0F800
ENDCHAR
STARTCHAR 0480
ENCODING 1152
SWIDTH 604 0
DWIDTH 29 0
BBX 23 43 3 -8
BITMAP
01FF80
07FFE0
0FFFF0
1FFFF8
3FFFF8
3F83FC
7F01FC
7F00FE
7E00FE
FE00FE
FE00FE
FE0000
FE0000
FE0000
FE0000
FE0000
FE0000
FE0000
FE0000
FE0000
FE0000
FE0000
FE0000
FE0000
FE0000
7E0000
7F0000
7F0000
3F8000
3FE000
1FFFC0
0FFFC0
07FFC0
01FFC0
007FC0
001FC0
001FC0
001FC0
001FC0
001FC0
001FC0
001FC0
001FC0
ENDCHAR
STARTCHAR 0481
ENCODING 1153
SWIDTH 604 0
DWIDTH 29 0
BBX 22 34 4 -8
BITMAP
00FE00
03FFC0
0FFFE0
1FFFF0
3FFFF8
3FC7F8
7F81F8
7F01FC
7E00FC
FE00FC
FE0000
FE0000
FE0000
FE0000
FE0000
FE0000
FE0000
7E0000
7F0000
7F0000
3FC000
3FFF00
1FFF00
0FFF00
03FF00
00FF00
007F00
007F00
007F00
007F00
007F00
007F00
007F00
007F00
ENDCHAR
STARTCHAR 0482
ENCODING 1154
SWIDTH 604 0
DWIDTH 29 0
BBX 24 32 3 0
BITMAP
00001E
00003C
00003C
000078
010078
01C0F0
03F1F0
03F9E0
00FFC0
003FC0
000FC0
0007F0
000FFC
001F7F
001E3F
003C0F
603C02
F07800
FC7800
7FF000
1FF000
0FE000
03F800
03FE00
07FF00
079FC0
0F0780
0F0380
1E0000
3E0000
3C0000
780000
ENDCHAR
STARTCHAR 0483
ENCODING 1155
SWIDTH 604 0
DWIDTH 29 0
BBX 17 8 -17 28
BITMAP
000780
000780
FFFF80
FFFF80
FFFF80
F00000
F00000
F00000
ENDCHAR
STARTCHAR 0484
ENCODING 1156
SWIDTH 604 0
DWIDTH 29 0
BBX 18 6 -18 31
BITMAP
003F00
01FF80
07FFC0
FFC3C0
FF01C0
F801C0
ENDCHAR
STARTCHAR 0485
ENCODING 1157
SWIDTH 604 0
DWIDTH 29 0
BBX 5 8 -12 30
BITMAP
F0
F0
F0
F0
78
38
18
10
ENDCHAR
STARTCHAR 0486
ENCODING 1158
SWIDTH 583 0
DWIDTH 28 0
BBX 5 8 -13 30
BITMAP
78
78
78
70
F0
E0
C0
40
ENDCHAR
STARTCHAR 0488
ENCODING 1160
SWIDTH 604 0
DWIDTH 29 0
BBX 46 42 -8 -8
BITMAP
00000F800000
00003FE00000
000078E00000
000070700000
000000000000
000000000000
03E000003E00
07F800007F80
0F3C0000E380
0E1C0000E1C0
000000000000
000000000000
000000000000
000000000000
000000000000
000000000000
000000000000
000000000000
3F00000003E0
7F80000007F8
F3C000000F38
E1C000000E1C
000000000000
000000000000
000000000000
000000000000
000000000000
000000000000
000000000000
000000000000
01E000003E00
07F800007F00
0F3C0000E380
0E1C0000C180
0E1C0000C180
000000000000
000000000000
00000F800000
00003FE00000
000038E00000
000070700000
000070700000
ENDCHAR
STARTCHAR 0489
ENCODING 1161
SWIDTH 604 0
DWIDTH 29 0
BBX 43 44 -7 -10
BITMAP
000003000000
000007000000
000007000000
000006000000
00000E000000
00000E000000
01801E000000
01C01E000800
01C000003C00
00E00000F800
00F00003F000
00700003C000
007000018000
002000000000
000000000000
000000000000
000000000000
000000000000
000000000000
000000001000
F80000001C00
FF0000001F80
3F0000001FE0
0700000003E0
010000000020
000000000000
000000000000
000000000000
000000000000
000000000000
000000000000
000000008000
00300001C000
00780001C000
01F80001E000
03E00000E000
078007007000
02000F007000
00000E003000
00000E002000
00000E000000
00000C000000
00001C000000
000018000000
ENDCHAR
STARTCHAR 048A
ENCODING 1162
SWIDTH 625 0
DWIDTH 30 0
BBX 29 54 3 -10
BITMAP
1F03E000
1F03E000
1F03E000
0F87C000
0FFFC000
07FF8000
03FF0000
00FC0000
00000000
00000000
FE00FE00
FE00FE00
FE01FE00
FE01FE00
FE03FE00
FE03FE00
FE07FE00
FE07FE00
FE07FE00
FE0FFE00
FE0FFE00
FE1FFE00
FE1FFE00
FE3FFE00
FE3EFE00
FE7EFE00
FE7EFE00
FEFCFE00
FEFCFE00
FEF8FE00
FFF8FE00
FFF0FE00
FFF0FE00
FFE0FE00
FFE0FE00
FFC0FE00
FFC0FE00
FFC0FE00
FF80FE00
FF80FFF8
FF00FFF8
FF00FFF8
FE00FFF8
FE00FFF8
000003F8
000003F0
000003F0
000003F0
000007F0
000007E0
000007C0
00000FC0
00000F80
00000100
ENDCHAR
STARTCHAR 048B
ENCODING 1163
SWIDTH 604 0
DWIDTH 29 0
BBX 28 46 3 -10
BITMAP
1F03E000
1F03E000
1F87E000
0FFFC000
07FF8000
03FF0000
00FC0000
00000000
00000000
00000000
FE00FE00
FE01FE00
FE01FE00
FE03FE00
FE07FE00
FE07FE00
FE0FFE00
FE0FFE00
FE1FFE00
FE1FFE00
FE3EFE00
FE7EFE00
FE7CFE00
FEFCFE00
FEF8FE00
FFF8FE00
FFF0FE00
FFE0FE00
FFE0FE00
FFC0FE00
FFC0FE00
FF80FFF0
FF80FFF0
FF00FFF0
FE00FFF0
FE00FFF0
000007F0
000007F0
000007F0
000007E0
000007E0
000007E0
00000FC0
00000F80
00000F80
00000300
ENDCHAR
STARTCHAR 048C
ENCODING 1164
SWIDTH 604 0
DWIDTH 29 0
BBX 27 34 -1 0
BITMAP
0FE00000
0FE00000
0FE00000
0FE00000
FFFF0000
FFFF0000
FFFF0000
FFFF0000
0FE00000
0FE00000
0FE00000
0FE00000
0FE00000
0FFFF000
0FFFFC00
0FFFFF00
0FFFFF80
0FFFFF80
0FE07FC0
0FE01FC0
0FE00FE0
0FE00FE0
0FE00FE0
0FE00FE0
0FE00FE0
0FE00FE0
0FE01FE0
0FE03FC0
0FE0FFC0
0FFFFF80
0FFFFF00
0FFFFE00
0FFFF800
0FFFE000
ENDCHAR
ENDFONT
